<?xml version="1.0" encoding="UTF-8" standalone="no"?>
<!-- Created with Inkscape (http://www.inkscape.org/) -->

<svg
   xmlns:dc="http://purl.org/dc/elements/1.1/"
   xmlns:cc="http://creativecommons.org/ns#"
   xmlns:rdf="http://www.w3.org/1999/02/22-rdf-syntax-ns#"
   xmlns:svg="http://www.w3.org/2000/svg"
   xmlns="http://www.w3.org/2000/svg"
   xmlns:sodipodi="http://sodipodi.sourceforge.net/DTD/sodipodi-0.dtd"
   xmlns:inkscape="http://www.inkscape.org/namespaces/inkscape"
   id="svg2"
   version="1.1"
   inkscape:version="0.91 r"
   width="912.66644"
   height="708.01044"
   xml:space="preserve"
   sodipodi:docname="appendix_a_pg1.svg"><metadata
     id="metadata8"><rdf:RDF><cc:Work
         rdf:about=""><dc:format>image/svg+xml</dc:format><dc:type
           rdf:resource="http://purl.org/dc/dcmitype/StillImage" /><dc:title /></cc:Work></rdf:RDF></metadata><defs
     id="defs6" /><sodipodi:namedview
     pagecolor="#ffffff"
     bordercolor="#666666"
     borderopacity="1"
     objecttolerance="10"
     gridtolerance="10"
     guidetolerance="10"
     inkscape:pageopacity="0"
     inkscape:pageshadow="2"
     inkscape:window-width="640"
     inkscape:window-height="480"
     id="namedview4"
     showgrid="false"
     inkscape:zoom="0.30849673"
     inkscape:cx="470.60742"
     inkscape:cy="350.28183"
     inkscape:window-x="0"
     inkscape:window-y="0"
     inkscape:window-maximized="0"
     inkscape:current-layer="g10" /><g
     id="g10"
     inkscape:groupmode="layer"
     inkscape:label="Appendix A - Appendix A"
     transform="matrix(0,1.25,1.25,0,-24.392578,-24.771387)"><path
       d="m 205.2,82.86 6.54,0 0,349.32 -6.54,0 0,-349.32 z"
       style="fill:#c0c0c0;fill-opacity:1;fill-rule:nonzero;stroke:none"
       id="path12"
       inkscape:connector-curvature="0" /><path
       d="m 464.4,82.86 6.54,0 0,349.32 -6.54,0 0,-349.32 z"
       style="fill:#c0c0c0;fill-opacity:1;fill-rule:nonzero;stroke:none"
       id="path14"
       inkscape:connector-curvature="0" /><text
       transform="matrix(0,1,1,0,24.36,19.38)"
       id="text16"><tspan
         style="font-variant:normal;font-weight:bold;font-stretch:normal;font-size:6.23999977px;font-family:Arial;-inkscape-font-specification:Arial-BoldMT;writing-mode:lr-tb;fill:#000000;fill-opacity:1;fill-rule:nonzero;stroke:none"
         x="0 4.1620798 7.6315198 10.05888 12.1368 15.94944 18.376801 23.92416 27.3936 31.20624 34.675678 38.145119 39.879841 44.38512 48.197762 50.625118 54.094559 57.563999"
         y="0"
         sodipodi:role="line"
         id="tspan18">Performance Curves</tspan><tspan
         style="font-variant:normal;font-weight:bold;font-stretch:normal;font-size:6.23999977px;font-family:Arial;-inkscape-font-specification:Arial-BoldMT;writing-mode:lr-tb;fill:#000000;fill-opacity:1;fill-rule:nonzero;stroke:none"
         x="0 5.1979198 8.6673603 12.48 16.292641 18.37056 21.84 25.309441 27.38736 31.200001 33.627361 37.096802 39.524158"
         y="7.979712"
         sodipodi:role="line"
         id="tspan20">Manufacturer:</tspan></text>
<text
       transform="matrix(0,1,1,0,32.34,83.82)"
       id="text22"><tspan
         style="font-variant:normal;font-weight:normal;font-stretch:normal;font-size:5.21999979px;font-family:Arial;-inkscape-font-specification:ArialMT;writing-mode:lr-tb;fill:#000000;fill-opacity:1;fill-rule:nonzero;stroke:none"
         x="0 3.48174 6.3840599 8.1223202"
         y="0"
         sodipodi:role="line"
         id="tspan24">York</tspan></text>
<text
       transform="matrix(0,1,1,0,40.32,19.38)"
       id="text26"><tspan
         style="font-variant:normal;font-weight:bold;font-stretch:normal;font-size:6.23999977px;font-family:Arial;-inkscape-font-specification:Arial-BoldMT;writing-mode:lr-tb;fill:#000000;fill-opacity:1;fill-rule:nonzero;stroke:none"
         x="0 4.50528 6.2399998 9.7094402 13.17888 16.648319 18.72624"
         y="0"
         sodipodi:role="line"
         id="tspan28">Class: </tspan></text>
<text
       transform="matrix(0,1,1,0,40.32,83.82)"
       id="text30"><tspan
         style="font-variant:normal;font-weight:normal;font-stretch:normal;font-size:5.21999979px;font-family:Arial;-inkscape-font-specification:ArialMT;writing-mode:lr-tb;fill:#000000;fill-opacity:1;fill-rule:nonzero;stroke:none"
         x="0 3.7688401 6.6711602 9.2811604 10.44 13.34232 15.08058 17.982901 20.592899 23.49522 24.946381 26.105221 29.00754 31.909861 33.361019 38.2887 41.191021 42.642181 45.544498 47.282761 48.733921 52.502762 55.405079 56.563919 57.722759 58.881599 61.78392 167.86998"
         y="0"
         sodipodi:role="line"
         id="tspan32">Reciprocating Water Chiller </tspan></text>
<text
       transform="matrix(0,1,1,0,48.3,19.38)"
       id="text34"><tspan
         style="font-variant:normal;font-weight:bold;font-stretch:normal;font-size:6.23999977px;font-family:Arial;-inkscape-font-specification:Arial-BoldMT;writing-mode:lr-tb;fill:#000000;fill-opacity:1;fill-rule:nonzero;stroke:none"
         x="0 3.81264 7.2820802 11.09472 14.56416"
         y="0"
         sodipodi:role="line"
         id="tspan36">Type:</tspan></text>
<text
       transform="matrix(0,1,1,0,48.3,83.82)"
       id="text38"><tspan
         style="font-variant:normal;font-weight:normal;font-stretch:normal;font-size:5.21999979px;font-family:Arial;-inkscape-font-specification:ArialMT;writing-mode:lr-tb;fill:#000000;fill-opacity:1;fill-rule:nonzero;stroke:none"
         x="0 4.92768 7.8299999 9.2811604 12.18348 13.92174 15.66 19.428841 22.33116 25.23348 26.392321 29.29464 32.19696 33.648121 35.099281 38.58102 39.739861 42.642181 45.252178 46.703339 48.441601 49.600441"
         y="0"
         sodipodi:role="line"
         id="tspan40">Water-Cooled, Electric</tspan></text>
<text
       transform="matrix(0,1,1,0,56.28,19.38)"
       id="text42"><tspan
         style="font-variant:normal;font-weight:bold;font-stretch:normal;font-size:6.23999977px;font-family:Arial;-inkscape-font-specification:Arial-BoldMT;writing-mode:lr-tb;fill:#000000;fill-opacity:1;fill-rule:nonzero;stroke:none"
         x="0 4.1620798 7.97472 11.78736 14.21472 17.68416 21.153601 22.888321 26.70096 28.778879 30.513599 35.018879 38.488319 40.566238 44.035679"
         y="0"
         sodipodi:role="line"
         id="tspan44">Source of Data:</tspan></text>
<text
       transform="matrix(0,1,1,0,56.28,83.82)"
       id="text46"><tspan
         style="font-variant:normal;font-weight:normal;font-stretch:normal;font-size:5.21999979px;font-family:Arial;-inkscape-font-specification:ArialMT;writing-mode:lr-tb;fill:#000000;fill-opacity:1;fill-rule:nonzero;stroke:none"
         x="0 3.48174 7.5429001 11.31174 14.79348 16.24464 20.592899 21.75174 22.91058 24.06942 26.971741 29.87406 32.776379 33.935219 36.83754 41.185799 42.636959 45.53928 46.69812 49.600441 52.502762 53.661598 56.563919 58.015079 61.78392 64.686241 65.845078 67.003922 68.162758 71.065079 72.803337 75.413338 76.864502 78.315659 81.217979 84.1203 85.571457 87.022621 89.924942 91.376099 94.278419 97.18074 100.08306 101.53422 102.98538 105.8877 108.79002 111.40002 112.85118 114.30234 117.49176 120.39408 122.13234 126.4806 127.93176 130.83408 133.7364 136.63872 138.08987 140.9922 143.89452 145.63278 149.11452 153.17567 156.078 157.52916 159.26743 162.16974 165.07207 167.97438"
         y="0"
         sodipodi:role="line"
         id="tspan48">YORK Millennium Liquid Chillers, 60 to 250 tons, Form 150.24-EG2 (899)</tspan><tspan
         style="font-variant:normal;font-weight:normal;font-stretch:normal;font-size:5.21999979px;font-family:Arial;-inkscape-font-specification:ArialMT;writing-mode:lr-tb;fill:#000000;fill-opacity:1;fill-rule:nonzero;stroke:none"
         x="0"
         y="7.9798141"
         id="tspan50" /></text>
<text
       transform="matrix(0,1,1,0,78.72,19.38)"
       id="text52"><tspan
         style="font-variant:normal;font-weight:bold;font-stretch:normal;font-size:6.23999977px;font-family:Arial;-inkscape-font-specification:Arial-BoldMT;writing-mode:lr-tb;fill:#000000;fill-opacity:1;fill-rule:nonzero;stroke:none"
         x="0 4.1620798 7.97472 11.44416 13.87152 17.68416 21.153601 25.31568 27.0504 30.863041 34.332481 36.0672 40.572479 44.38512 46.812481 50.281921 53.751362"
         y="0"
         sodipodi:role="line"
         id="tspan54">EnergyPlus Curve:</tspan></text>
<text
       transform="matrix(0,1,1,0,78.72,83.82)"
       id="text56"><tspan
         style="font-variant:normal;font-weight:normal;font-stretch:normal;font-size:5.21999979px;font-family:Arial;-inkscape-font-specification:ArialMT;writing-mode:lr-tb;fill:#000000;fill-opacity:1;fill-rule:nonzero;stroke:none"
         x="0 3.7688401 6.6711602 9.2811604 10.44 13.34232 17.11116 20.013479 22.9158 26.105221 81.05616 84.824997 88.593842 93.521523 97.003258 100.05174 103.82058 106.7229 107.88174 109.04058 110.19942 113.10174 116.00406 117.45522 122.3829 125.28522 126.73638 129.6387 131.37695 132.82812 136.30986 139.21217 142.1145 145.01682 146.17566 148.78566 150.23682 153.42624 156.32857 160.67682 163.57915 166.48146 168.21973 171.12204 172.5732 175.47552 177.21378 180.1161 181.56726 183.30553 186.49493 197.08736 200.8562 205.78389 209.26562 212.3141 215.79584 218.69817 220.14932 223.05165 224.7899 225.94875 228.85106 231.75339 233.20454 236.97339 239.8757 242.77803 245.68034 248.58266 251.48499 254.09499 256.99731 258.73557 260.18674 265.11441 268.01672 269.4679 272.37021 274.10846 275.55963 278.74905 281.65137 285.99963 288.90195 291.80426 293.54251 296.44485 297.896 300.79831 302.53659 305.4389 306.89008 308.62833 311.81775"
         y="0"
         sodipodi:role="line"
         id="tspan58">RecipCapFtCHWS=Chilled Water Supply Temperature (F)CWS=Entering Condenser Water Temperature (F)</tspan></text>
<text
       transform="matrix(0,1,1,0,86.699814,83.82)"
       id="text60"><tspan
         style="font-variant:normal;font-weight:bold;font-stretch:normal;font-size:5.21999979px;font-family:Arial;-inkscape-font-specification:Arial-BoldMT;writing-mode:lr-tb;fill:#000000;fill-opacity:1;fill-rule:nonzero;stroke:none"
         x="0 3.48174 6.6711602 9.8605804 11.31174 12.7629 15.66522 18.854639 20.305799 24.07464 27.264059 28.715219 30.45348"
         y="0"
         sodipodi:role="line"
         id="tspan62">English Units</tspan></text>
<text
       transform="matrix(0,1,1,0,93.59961,365.82006)"
       id="text64"><tspan
         style="font-variant:normal;font-weight:normal;font-stretch:normal;font-size:5.21999979px;font-family:Arial;-inkscape-font-specification:ArialMT;writing-mode:lr-tb;fill:#000000;fill-opacity:1;fill-rule:nonzero;stroke:none"
         x="0 3.7688401 6.6711602 8.40942 12.75768 15.66 16.81884 17.97768 20.587681 23.49 46.433987 50.202827 53.684566 57.166309 58.904568 62.093987 83.874962 88.515541 89.966698 93.735542 94.894379 96.345543 126.1152 129.88403 133.36578 136.84752 138.58578 141.77521"
         y="0"
         sodipodi:role="line"
         id="tspan66">NormalizedCAP-FT% DiffCAP-FT</tspan><tspan
         style="font-variant:normal;font-weight:normal;font-stretch:normal;font-size:5.21999979px;font-family:Arial;-inkscape-font-specification:ArialMT;writing-mode:lr-tb;fill:#000000;fill-opacity:1;fill-rule:nonzero;stroke:none"
         x="-282.00006 -277.65179 -274.74948 -271.84717 -268.94485 -267.49368 -264.59137 -261.98135 -260.53021 -257.62787 -255.88962 -252.9873 -245.40317 -241.0549 -238.15259 -235.25026 -232.34795 -190.32642 -186.55759 -182.78874 -177.86105 -168.4875 -164.71866 -160.94983 -156.02214 -152.54041 -150.50983 -148.47925 -128.53102 -124.76218 -119.8345 -106.27085 -102.50201 -97.574326 -94.09259 -92.062012 -90.031425 -82.633125 -78.864281 -75.095444 -70.167763 -66.68602 -64.655441 -60.8866 -55.958923 -47.654945 -43.886105 -40.983788 -38.081467 -35.179146 -32.569145 -31.410307 -29.959146 -27.349146 -25.897985 -24.159725 -22.708567 -19.806246 -16.903927 -14.293926 15.52167 19.29051 22.772249 37.780792 40.970215 42.708473 45.610794 49.959053 51.410213 55.179054 58.081375 59.819633 62.429634"
         y="6.4801078"
         sodipodi:role="line"
         id="tspan68">ManufacturerModelCHWSCHWS**2CWSCWS**2CHWS*CWSCapacity (tons)CAPFrom Curve</tspan><tspan
         style="font-variant:normal;font-weight:normal;font-stretch:normal;font-size:5.21999979px;font-family:Arial;-inkscape-font-specification:ArialMT;writing-mode:lr-tb;fill:#000000;fill-opacity:1;fill-rule:nonzero;stroke:none"
         x="-282.00006 -278.51831 -275.616 -273.87775 -245.40108 -241.91933 -238.1505 -233.22281 -230.0334 -227.13107 -224.22876 -220.74701 -217.26527 -179.82274 -176.92041 -156.78427 -153.88194 -150.97963 -148.0773 -121.80766 -118.90533 -98.349495 -95.447182 -92.544861 -89.64254 -63.372887 -60.47057 -57.568249 -54.665928 -22.876127 -19.973808 -17.071487 -15.620328 13.302126 16.204447 17.655605 20.557926 23.460245 49.479858 52.382179 53.83334 56.735657 59.637978 62.540298 83.136848 86.039169 87.490334 90.392654 93.294975 143.73427 181.1152 218.37453 255.09357 292.59354 330.27252 355.17194 358.65369 361.556 362.71484 365.61716 368.22714 369.67831 372.58063 375.48294 376.93411"
         y="12.960216"
         sodipodi:role="line"
         id="tspan70">YorkYCWZ33AB0401600755625300055.30.9790.97870.00%fedcbaAdjusted a</tspan><tspan
         style="font-variant:normal;font-weight:normal;font-stretch:normal;font-size:5.21999979px;font-family:Arial;-inkscape-font-specification:ArialMT;writing-mode:lr-tb;fill:#000000;fill-opacity:1;fill-rule:nonzero;stroke:none"
         x="-282.00006 -278.51831 -275.616 -273.87775 -245.40108 -241.91933 -238.1505 -233.22281 -230.0334 -227.13107 -224.22876 -220.74701 -217.26527 -179.82274 -176.92041 -156.78427 -153.88194 -150.97963 -148.0773 -121.80766 -118.90533 -98.349495 -95.447182 -92.544861 -89.64254 -63.372887 -60.47057 -57.568249 -54.665928 -22.876127 -19.973808 -17.071487 -15.620328 13.302126 16.204447 17.655605 20.557926 23.460245 49.479858 52.382179 53.83334 56.735657 59.637978 62.540298 81.396507 83.134766 86.037086 87.488243 90.390564 93.292885 131.01418 132.75243 135.65475 137.10591 140.00822 142.91055 145.81287 148.71519 151.61751 155.09924 156.83751 159.73982 168.86856 170.60683 173.50914 174.96031 177.86263 180.76495 183.66727 186.56958 189.47191 192.95364 194.69191 197.59422 204.92311 206.66136 209.56369 211.01485 213.91716 216.81949 219.7218 222.62413 225.52644 228.42877 231.33109 234.2334 243.25618 246.15849 247.60965 250.51198 253.41429 256.31662 259.21893 262.12125 265.02359 267.9259 270.82822 281.94891 284.85123 286.3024 289.20471 292.10703 295.00934 297.91165 300.814 303.71631 306.61862 309.52094 318.54163 321.44394 322.89511 325.79742 328.69974 331.60205 334.50439 337.40671 340.30902 343.21133 346.11368 353.51459 356.4169 357.86807 360.77039 363.6727 366.57501 369.47736 372.37967 375.35193 378.25424 381.15656"
         y="19.440325"
         sodipodi:role="line"
         id="tspan72">YorkYCWZ33AB0421764755625315057.51.0181.0169-0.08%-6.11884E-05-1.08362E-05-0.0011742820.0001036170.0151978880.5378014920.537601492</tspan><tspan
         style="font-variant:normal;font-weight:normal;font-stretch:normal;font-size:5.21999979px;font-family:Arial;-inkscape-font-specification:ArialMT;writing-mode:lr-tb;fill:#000000;fill-opacity:1;fill-rule:nonzero;stroke:none"
         x="-282.00006 -278.51831 -275.616 -273.87775 -245.40108 -241.91933 -238.1505 -233.22281 -230.0334 -227.13107 -224.22876 -220.74701 -217.26527 -179.82274 -176.92041 -156.78427 -153.88194 -150.97963 -148.0773 -121.80766 -118.90533 -98.349495 -95.447182 -92.544861 -89.64254 -63.372887 -60.47057 -57.568249 -54.665928 -22.876127 -19.973808 -17.071487 -15.620328 13.302126 16.204447 17.655605 20.557926 23.460245 49.479858 52.382179 53.83334 56.735657 59.637978 62.540298 81.396507 83.134766 86.037086 87.488243 90.390564 93.292885 132.754 135.65631 137.10748 140.0098 142.91211 145.81444 148.71675 151.61908 155.10081 156.83908 159.74139 170.6084 173.51071 174.96187 177.8642 180.76651 183.66884 186.57115 189.47346 192.95522 194.69347 197.59579 206.66293 209.56525 211.01642 213.91873 216.82104 219.72337 222.62569 225.52802 228.43033 231.33266 234.23497 243.79593 246.69824 248.1494 251.05173 253.95404 256.85635 259.7587 262.66101 266.14273 267.88101 270.78333 281.95047 284.85278 286.30396 289.20627 292.10858 295.01089 297.91324 300.81555 303.71786 306.62018 309.52252 318.54318 321.44553 322.89667 325.79898 328.70132 331.60364 334.50595 337.40826 340.31058 343.21292 346.11523"
         y="25.920431"
         sodipodi:role="line"
         id="tspan74">YorkYCWZ33AB0441936755625330059.71.0571.0560-0.06%3.53229E-061.88809E-060.0003583517.82061E-060.0007656260.024830849</tspan><tspan
         style="font-variant:normal;font-weight:normal;font-stretch:normal;font-size:5.21999979px;font-family:Arial;-inkscape-font-specification:ArialMT;writing-mode:lr-tb;fill:#000000;fill-opacity:1;fill-rule:nonzero;stroke:none"
         x="-282.00006 -278.51831 -275.616 -273.87775 -245.40108 -241.91933 -238.1505 -233.22281 -230.0334 -227.13107 -224.22876 -220.74701 -217.26527 -179.82274 -176.92041 -156.78427 -153.88194 -150.97963 -148.0773 -121.80766 -118.90533 -98.349495 -95.447182 -92.544861 -89.64254 -63.372887 -60.47057 -57.568249 -54.665928 -22.876127 -19.973808 -17.071487 -15.620328 13.302126 16.204447 17.655605 20.557926 23.460245 49.479858 52.382179 53.83334 56.735657 59.637978 62.540298 81.396507 83.134766 86.037086 87.488243 90.390564 93.292885 119.55418 121.29244 132.21321 135.11552 136.56668 139.46901 142.37132 145.27365 148.17596 151.07828 153.98061 156.88292 159.78525 170.06604 172.96835 174.41951 177.32184 180.22415 183.12648 186.02879 188.93111 191.83344 194.73575 197.63808 213.97876 216.88109 220.64992 222.10109 250.57774 253.48007 257.2489 258.70007 288.25674 291.15906 294.92792 296.37906 325.87573 328.77805 332.54688 333.99805"
         y="32.400539"
         sodipodi:role="line"
         id="tspan76">YorkYCWZ33AB0452025755625337560.81.0761.0758-0.03%r20.9999665060.000467278#N/A#N/A#N/A#N/A</tspan><tspan
         style="font-variant:normal;font-weight:normal;font-stretch:normal;font-size:5.21999979px;font-family:Arial;-inkscape-font-specification:ArialMT;writing-mode:lr-tb;fill:#000000;fill-opacity:1;fill-rule:nonzero;stroke:none"
         x="-282.00006 -278.51831 -275.616 -273.87775 -245.40108 -241.91933 -238.1505 -233.22281 -230.0334 -227.13107 -224.22876 -220.74701 -217.26527 -179.82274 -176.92041 -156.78427 -153.88194 -150.97963 -148.0773 -121.80766 -118.90533 -98.349495 -95.447182 -92.544861 -89.64254 -63.372887 -60.47057 -57.568249 -54.665928 -22.876127 -19.973808 -17.071487 -15.620328 13.302126 16.204447 17.655605 20.557926 23.460245 49.479858 52.382179 53.83334 56.735657 59.637978 62.540298 83.136848 86.039169 87.490334 90.392654 93.294975"
         y="38.88065"
         sodipodi:role="line"
         id="tspan78">YorkYCWZ33AB0462116755625345061.91.0961.09580.02%</tspan><tspan
         style="font-variant:normal;font-weight:normal;font-stretch:normal;font-size:5.21999979px;font-family:Arial;-inkscape-font-specification:ArialMT;writing-mode:lr-tb;fill:#000000;fill-opacity:1;fill-rule:nonzero;stroke:none"
         x="-282.00006 -278.51831 -275.616 -273.87775 -245.40108 -241.91933 -238.1505 -233.22281 -230.0334 -227.13107 -224.22876 -220.74701 -217.26527 -179.82274 -176.92041 -156.78427 -153.88194 -150.97963 -148.0773 -121.80766 -118.90533 -98.349495 -95.447182 -92.544861 -89.64254 -63.372887 -60.47057 -57.568249 -54.665928 -22.876127 -19.973808 -17.071487 -15.620328 13.302126 16.204447 17.655605 20.557926 23.460245 49.479858 52.382179 53.83334 56.735657 59.637978 62.540298 83.136848 86.039169 87.490334 90.392654 93.294975"
         y="45.360756"
         sodipodi:role="line"
         id="tspan80">YorkYCWZ33AB0482304755625360064.21.1361.13650.02%</tspan><tspan
         style="font-variant:normal;font-weight:normal;font-stretch:normal;font-size:5.21999979px;font-family:Arial;-inkscape-font-specification:ArialMT;writing-mode:lr-tb;fill:#000000;fill-opacity:1;fill-rule:nonzero;stroke:none"
         x="-282.00006 -278.51831 -275.616 -273.87775 -245.40108 -241.91933 -238.1505 -233.22281 -230.0334 -227.13107 -224.22876 -220.74701 -217.26527 -179.82274 -176.92041 -156.78427 -153.88194 -150.97963 -148.0773 -121.80766 -118.90533 -98.349495 -95.447182 -92.544861 -89.64254 -63.372887 -60.47057 -57.568249 -54.665928 -22.876127 -19.973808 -17.071487 -15.620328 13.302126 16.204447 17.655605 20.557926 23.460245 49.479858 52.382179 53.83334 56.735657 59.637978 62.540298 81.396507 83.134766 86.037086 87.488243 90.390564 93.292885"
         y="51.840862"
         sodipodi:role="line"
         id="tspan82">YorkYCWZ33AB0502500755625375066.61.1791.1781-0.06%</tspan><tspan
         style="font-variant:normal;font-weight:normal;font-stretch:normal;font-size:5.21999979px;font-family:Arial;-inkscape-font-specification:ArialMT;writing-mode:lr-tb;fill:#000000;fill-opacity:1;fill-rule:nonzero;stroke:none"
         x="-282.00006 -278.51831 -275.616 -273.87775 -245.40108 -241.91933 -238.1505 -233.22281 -230.0334 -227.13107 -224.22876 -220.74701 -217.26527 -179.82274 -176.92041 -156.78427 -153.88194 -150.97963 -148.0773 -121.80766 -118.90533 -98.349495 -95.447182 -92.544861 -89.64254 -63.372887 -60.47057 -57.568249 -54.665928 -22.876127 -19.973808 -17.071487 -15.620328 13.302126 16.204447 17.655605 20.557926 23.460245 49.479858 52.382179 53.83334 56.735657 59.637978 62.540298 83.136848 86.039169 87.490334 90.392654 93.294975"
         y="58.320972"
         sodipodi:role="line"
         id="tspan84">YorkYCWZ33AB0401600806400320053.80.9520.95220.00%</tspan><tspan
         style="font-variant:normal;font-weight:normal;font-stretch:normal;font-size:5.21999979px;font-family:Arial;-inkscape-font-specification:ArialMT;writing-mode:lr-tb;fill:#000000;fill-opacity:1;fill-rule:nonzero;stroke:none"
         x="-282.00006 -278.51831 -275.616 -273.87775 -245.40108 -241.91933 -238.1505 -233.22281 -230.0334 -227.13107 -224.22876 -220.74701 -217.26527 -179.82274 -176.92041 -156.78427 -153.88194 -150.97963 -148.0773 -121.80766 -118.90533 -98.349495 -95.447182 -92.544861 -89.64254 -63.372887 -60.47057 -57.568249 -54.665928 -22.876127 -19.973808 -17.071487 -15.620328 13.302126 16.204447 17.655605 20.557926 23.460245 49.479858 52.382179 53.83334 56.735657 59.637978 62.540298 83.136848 86.039169 87.490334 90.392654 93.294975"
         y="64.801079"
         sodipodi:role="line"
         id="tspan86">YorkYCWZ33AB0421764806400336055.90.9890.98980.04%</tspan><tspan
         style="font-variant:normal;font-weight:normal;font-stretch:normal;font-size:5.21999979px;font-family:Arial;-inkscape-font-specification:ArialMT;writing-mode:lr-tb;fill:#000000;fill-opacity:1;fill-rule:nonzero;stroke:none"
         x="-282.00006 -278.51831 -275.616 -273.87775 -245.40108 -241.91933 -238.1505 -233.22281 -230.0334 -227.13107 -224.22876 -220.74701 -217.26527 -179.82274 -176.92041 -156.78427 -153.88194 -150.97963 -148.0773 -121.80766 -118.90533 -98.349495 -95.447182 -92.544861 -89.64254 -63.372887 -60.47057 -57.568249 -54.665928 -22.876127 -19.973808 -17.071487 -15.620328 13.302126 16.204447 17.655605 20.557926 23.460245 49.479858 52.382179 53.83334 56.735657 59.637978 62.540298 81.396507 83.134766 86.037086 87.488243 90.390564 93.292885"
         y="71.281189"
         sodipodi:role="line"
         id="tspan88">YorkYCWZ33AB0441936806400352058.11.0281.0282-0.01%</tspan><tspan
         style="font-variant:normal;font-weight:normal;font-stretch:normal;font-size:5.21999979px;font-family:Arial;-inkscape-font-specification:ArialMT;writing-mode:lr-tb;fill:#000000;fill-opacity:1;fill-rule:nonzero;stroke:none"
         x="-282.00006 -278.51831 -275.616 -273.87775 -245.40108 -241.91933 -238.1505 -233.22281 -230.0334 -227.13107 -224.22876 -220.74701 -217.26527 -179.82274 -176.92041 -156.78427 -153.88194 -150.97963 -148.0773 -121.80766 -118.90533 -98.349495 -95.447182 -92.544861 -89.64254 -63.372887 -60.47057 -57.568249 -54.665928 -22.876127 -19.973808 -17.071487 -15.620328 13.302126 16.204447 17.655605 20.557926 23.460245 49.479858 52.382179 53.83334 56.735657 59.637978 62.540298 83.136848 86.039169 87.490334 90.392654 93.294975"
         y="77.761299"
         sodipodi:role="line"
         id="tspan90">YorkYCWZ33AB0452025806400360059.21.0481.04780.00%</tspan><tspan
         style="font-variant:normal;font-weight:normal;font-stretch:normal;font-size:5.21999979px;font-family:Arial;-inkscape-font-specification:ArialMT;writing-mode:lr-tb;fill:#000000;fill-opacity:1;fill-rule:nonzero;stroke:none"
         x="-282.00006 -278.51831 -275.616 -273.87775 -245.40108 -241.91933 -238.1505 -233.22281 -230.0334 -227.13107 -224.22876 -220.74701 -217.26527 -179.82274 -176.92041 -156.78427 -153.88194 -150.97963 -148.0773 -121.80766 -118.90533 -98.349495 -95.447182 -92.544861 -89.64254 -63.372887 -60.47057 -57.568249 -54.665928 -22.876127 -19.973808 -17.071487 -15.620328 13.302126 16.204447 17.655605 20.557926 23.460245 49.479858 52.382179 53.83334 56.735657 59.637978 62.540298 83.136848 86.039169 87.490334 90.392654 93.294975"
         y="84.241402"
         sodipodi:role="line"
         id="tspan92">YorkYCWZ33AB0462116806400368060.31.0671.06750.02%</tspan><tspan
         style="font-variant:normal;font-weight:normal;font-stretch:normal;font-size:5.21999979px;font-family:Arial;-inkscape-font-specification:ArialMT;writing-mode:lr-tb;fill:#000000;fill-opacity:1;fill-rule:nonzero;stroke:none"
         x="-282.00006 -278.51831 -275.616 -273.87775 -245.40108 -241.91933 -238.1505 -233.22281 -230.0334 -227.13107 -224.22876 -220.74701 -217.26527 -179.82274 -176.92041 -156.78427 -153.88194 -150.97963 -148.0773 -121.80766 -118.90533 -98.349495 -95.447182 -92.544861 -89.64254 -63.372887 -60.47057 -57.568249 -54.665928 -22.876127 -19.973808 -17.071487 -15.620328 13.302126 16.204447 17.655605 20.557926 23.460245 49.479858 52.382179 53.83334 56.735657 59.637978 62.540298 81.396507 83.134766 86.037086 87.488243 90.390564 93.292885 126.09432"
         y="90.721512"
         sodipodi:role="line"
         id="tspan94">YorkYCWZ33AB0482304806400384062.61.1081.1076-0.04% </tspan><tspan
         style="font-variant:normal;font-weight:normal;font-stretch:normal;font-size:5.21999979px;font-family:Arial;-inkscape-font-specification:ArialMT;writing-mode:lr-tb;fill:#000000;fill-opacity:1;fill-rule:nonzero;stroke:none"
         x="-282.00006 -278.51831 -275.616 -273.87775 -245.40108 -241.91933 -238.1505 -233.22281 -230.0334 -227.13107 -224.22876 -220.74701 -217.26527 -179.82274 -176.92041 -156.78427 -153.88194 -150.97963 -148.0773 -121.80766 -118.90533 -98.349495 -95.447182 -92.544861 -89.64254 -63.372887 -60.47057 -57.568249 -54.665928 -22.876127 -19.973808 -17.071487 -15.620328 13.302126 16.204447 17.655605 20.557926 23.460245 49.479858 52.382179 53.83334 56.735657 59.637978 62.540298 81.396507 83.134766 86.037086 87.488243 90.390564 93.292885"
         y="97.201622"
         sodipodi:role="line"
         id="tspan96">YorkYCWZ33AB0502500806400400064.91.1491.1485-0.02%</tspan><tspan
         style="font-variant:normal;font-weight:normal;font-stretch:normal;font-size:5.21999979px;font-family:Arial;-inkscape-font-specification:ArialMT;writing-mode:lr-tb;fill:#000000;fill-opacity:1;fill-rule:nonzero;stroke:none"
         x="-282.00006 -278.51831 -275.616 -273.87775 -245.40108 -241.91933 -238.1505 -233.22281 -230.0334 -227.13107 -224.22876 -220.74701 -217.26527 -179.82274 -176.92041 -156.78427 -153.88194 -150.97963 -148.0773 -121.80766 -118.90533 -98.349495 -95.447182 -92.544861 -89.64254 -63.372887 -60.47057 -57.568249 -54.665928 -22.876127 -19.973808 -17.071487 -15.620328 13.302126 16.204447 17.655605 20.557926 23.460245 49.479858 52.382179 53.83334 56.735657 59.637978 62.540298 81.396507 83.134766 86.037086 87.488243 90.390564 93.292885"
         y="103.68173"
         sodipodi:role="line"
         id="tspan98">YorkYCWZ33AB0401600857225340052.30.9260.9252-0.05%</tspan><tspan
         style="font-variant:normal;font-weight:normal;font-stretch:normal;font-size:5.21999979px;font-family:Arial;-inkscape-font-specification:ArialMT;writing-mode:lr-tb;fill:#000000;fill-opacity:1;fill-rule:nonzero;stroke:none"
         x="-282.00006 -278.51831 -275.616 -273.87775 -245.40108 -241.91933 -238.1505 -233.22281 -230.0334 -227.13107 -224.22876 -220.74701 -217.26527 -179.82274 -176.92041 -156.78427 -153.88194 -150.97963 -148.0773 -121.80766 -118.90533 -98.349495 -95.447182 -92.544861 -89.64254 -63.372887 -60.47057 -57.568249 -54.665928 -22.876127 -19.973808 -17.071487 -15.620328 13.302126 16.204447 17.655605 20.557926 23.460245 49.479858 52.382179 53.83334 56.735657 59.637978 62.540298 81.396507 83.134766 86.037086 87.488243 90.390564 93.292885"
         y="110.16184"
         sodipodi:role="line"
         id="tspan100">YorkYCWZ33AB0421764857225357054.40.9630.9621-0.07%</tspan><tspan
         style="font-variant:normal;font-weight:normal;font-stretch:normal;font-size:5.21999979px;font-family:Arial;-inkscape-font-specification:ArialMT;writing-mode:lr-tb;fill:#000000;fill-opacity:1;fill-rule:nonzero;stroke:none"
         x="-282.00006 -278.51831 -275.616 -273.87775 -245.40108 -241.91933 -238.1505 -233.22281 -230.0334 -227.13107 -224.22876 -220.74701 -217.26527 -179.82274 -176.92041 -156.78427 -153.88194 -150.97963 -148.0773 -121.80766 -118.90533 -98.349495 -95.447182 -92.544861 -89.64254 -63.372887 -60.47057 -57.568249 -54.665928 -22.876127 -19.973808 -17.071487 -15.620328 13.302126 16.204447 17.655605 20.557926 23.460245 49.479858 52.382179 53.83334 56.735657 59.637978 62.540298 83.136848 86.039169 87.490334 90.392654 93.294975"
         y="116.64194"
         sodipodi:role="line"
         id="tspan102">YorkYCWZ33AB0441936857225374056.51.0001.00000.00%</tspan><tspan
         style="font-variant:normal;font-weight:normal;font-stretch:normal;font-size:5.21999979px;font-family:Arial;-inkscape-font-specification:ArialMT;writing-mode:lr-tb;fill:#000000;fill-opacity:1;fill-rule:nonzero;stroke:none"
         x="-282.00006 -278.51831 -275.616 -273.87775 -245.40108 -241.91933 -238.1505 -233.22281 -230.0334 -227.13107 -224.22876 -220.74701 -217.26527 -179.82274 -176.92041 -156.78427 -153.88194 -150.97963 -148.0773 -121.80766 -118.90533 -98.349495 -95.447182 -92.544861 -89.64254 -63.372887 -60.47057 -57.568249 -54.665928 -22.876127 -19.973808 -17.071487 -15.620328 13.302126 16.204447 17.655605 20.557926 23.460245 49.479858 52.382179 53.83334 56.735657 59.637978 62.540298 81.396507 83.134766 86.037086 87.488243 90.390564 93.292885"
         y="123.12205"
         sodipodi:role="line"
         id="tspan104">YorkYCWZ33AB0452025857225382557.61.0191.0192-0.03%</tspan><tspan
         style="font-variant:normal;font-weight:normal;font-stretch:normal;font-size:5.21999979px;font-family:Arial;-inkscape-font-specification:ArialMT;writing-mode:lr-tb;fill:#000000;fill-opacity:1;fill-rule:nonzero;stroke:none"
         x="-282.00006 -278.51831 -275.616 -273.87775 -245.40108 -241.91933 -238.1505 -233.22281 -230.0334 -227.13107 -224.22876 -220.74701 -217.26527 -179.82274 -176.92041 -156.78427 -153.88194 -150.97963 -148.0773 -121.80766 -118.90533 -98.349495 -95.447182 -92.544861 -89.64254 -63.372887 -60.47057 -57.568249 -54.665928 -22.876127 -19.973808 -17.071487 -15.620328 13.302126 16.204447 17.655605 20.557926 23.460245 49.479858 52.382179 53.83334 56.735657 59.637978 62.540298 81.396507 83.134766 86.037086 87.488243 90.390564 93.292885"
         y="129.60216"
         sodipodi:role="line"
         id="tspan106">YorkYCWZ33AB0462116857225391058.71.0391.0386-0.03%</tspan><tspan
         style="font-variant:normal;font-weight:normal;font-stretch:normal;font-size:5.21999979px;font-family:Arial;-inkscape-font-specification:ArialMT;writing-mode:lr-tb;fill:#000000;fill-opacity:1;fill-rule:nonzero;stroke:none"
         x="-282.00006 -278.51831 -275.616 -273.87775 -245.40108 -241.91933 -238.1505 -233.22281 -230.0334 -227.13107 -224.22876 -220.74701 -217.26527 -179.82274 -176.92041 -156.78427 -153.88194 -150.97963 -148.0773 -121.80766 -118.90533 -98.349495 -95.447182 -92.544861 -89.64254 -63.372887 -60.47057 -57.568249 -54.665928 -22.876127 -19.973808 -17.071487 -15.620328 13.302126 16.204447 17.655605 20.557926 23.460245 49.479858 52.382179 53.83334 56.735657 59.637978 62.540298 83.136848 86.039169 87.490334 90.392654 93.294975"
         y="136.08228"
         sodipodi:role="line"
         id="tspan108">YorkYCWZ33AB0482304857225408060.91.0781.07810.02%</tspan><tspan
         style="font-variant:normal;font-weight:normal;font-stretch:normal;font-size:5.21999979px;font-family:Arial;-inkscape-font-specification:ArialMT;writing-mode:lr-tb;fill:#000000;fill-opacity:1;fill-rule:nonzero;stroke:none"
         x="-282.00006 -278.51831 -275.616 -273.87775 -245.40108 -241.91933 -238.1505 -233.22281 -230.0334 -227.13107 -224.22876 -220.74701 -217.26527 -179.82274 -176.92041 -156.78427 -153.88194 -150.97963 -148.0773 -121.80766 -118.90533 -98.349495 -95.447182 -92.544861 -89.64254 -63.372887 -60.47057 -57.568249 -54.665928 -22.876127 -19.973808 -17.071487 -15.620328 13.302126 16.204447 17.655605 20.557926 23.460245 49.479858 52.382179 53.83334 56.735657 59.637978 62.540298 81.396507 83.134766 86.037086 87.488243 90.390564 93.292885"
         y="142.56238"
         sodipodi:role="line"
         id="tspan110">YorkYCWZ33AB0502500857225425063.21.1191.1184-0.02%</tspan><tspan
         style="font-variant:normal;font-weight:normal;font-stretch:normal;font-size:5.21999979px;font-family:Arial;-inkscape-font-specification:ArialMT;writing-mode:lr-tb;fill:#000000;fill-opacity:1;fill-rule:nonzero;stroke:none"
         x="-282.00006 -278.51831 -275.616 -273.87775 -245.40108 -241.91933 -238.1505 -233.22281 -230.0334 -227.13107 -224.22876 -220.74701 -217.26527 -179.82274 -176.92041 -156.78427 -153.88194 -150.97963 -148.0773 -121.80766 -118.90533 -98.349495 -95.447182 -92.544861 -89.64254 -63.372887 -60.47057 -57.568249 -54.665928 -22.876127 -19.973808 -17.071487 -15.620328 13.302126 16.204447 17.655605 20.557926 23.460245 49.479858 52.382179 53.83334 56.735657 59.637978 62.540298 83.136848 86.039169 87.490334 90.392654 93.294975"
         y="149.04248"
         sodipodi:role="line"
         id="tspan112">YorkYCWZ33AB0401600908100360050.70.8970.89760.02%</tspan><tspan
         style="font-variant:normal;font-weight:normal;font-stretch:normal;font-size:5.21999979px;font-family:Arial;-inkscape-font-specification:ArialMT;writing-mode:lr-tb;fill:#000000;fill-opacity:1;fill-rule:nonzero;stroke:none"
         x="-282.00006 -278.51831 -275.616 -273.87775 -245.40108 -241.91933 -238.1505 -233.22281 -230.0334 -227.13107 -224.22876 -220.74701 -217.26527 -179.82274 -176.92041 -156.78427 -153.88194 -150.97963 -148.0773 -121.80766 -118.90533 -98.349495 -95.447182 -92.544861 -89.64254 -63.372887 -60.47057 -57.568249 -54.665928 -22.876127 -19.973808 -17.071487 -15.620328 13.302126 16.204447 17.655605 20.557926 23.460245 49.479858 52.382179 53.83334 56.735657 59.637978 62.540298 81.396507 83.134766 86.037086 87.488243 90.390564 93.292885"
         y="155.52258"
         sodipodi:role="line"
         id="tspan114">YorkYCWZ33AB0421764908100378052.80.9350.9339-0.06%</tspan><tspan
         style="font-variant:normal;font-weight:normal;font-stretch:normal;font-size:5.21999979px;font-family:Arial;-inkscape-font-specification:ArialMT;writing-mode:lr-tb;fill:#000000;fill-opacity:1;fill-rule:nonzero;stroke:none"
         x="-282.00006 -278.51831 -275.616 -273.87775 -245.40108 -241.91933 -238.1505 -233.22281 -230.0334 -227.13107 -224.22876 -220.74701 -217.26527 -179.82274 -176.92041 -156.78427 -153.88194 -150.97963 -148.0773 -121.80766 -118.90533 -98.349495 -95.447182 -92.544861 -89.64254 -63.372887 -60.47057 -57.568249 -54.665928 -22.876127 -19.973808 -17.071487 -15.620328 13.302126 16.204447 17.655605 20.557926 23.460245 49.479858 52.382179 53.83334 56.735657 59.637978 62.540298 81.396507 83.134766 86.037086 87.488243 90.390564 93.292885"
         y="162.0027"
         sodipodi:role="line"
         id="tspan116">YorkYCWZ33AB0441936908100396054.90.9720.9711-0.06%</tspan><tspan
         style="font-variant:normal;font-weight:normal;font-stretch:normal;font-size:5.21999979px;font-family:Arial;-inkscape-font-specification:ArialMT;writing-mode:lr-tb;fill:#000000;fill-opacity:1;fill-rule:nonzero;stroke:none"
         x="-282.00006 -278.51831 -275.616 -273.87775 -245.40108 -241.91933 -238.1505 -233.22281 -230.0334 -227.13107 -224.22876 -220.74701 -217.26527 -179.82274 -176.92041 -156.78427 -153.88194 -150.97963 -148.0773 -121.80766 -118.90533 -98.349495 -95.447182 -92.544861 -89.64254 -63.372887 -60.47057 -57.568249 -54.665928 -18.556055 -15.653736 13.302648 16.204967 17.656128 20.558449 23.460768 49.480381 52.382702 53.833858 56.736179 59.6385 62.540821 81.397026 83.135284 86.037605 87.48877 90.391083 93.293404"
         y="168.4828"
         sodipodi:role="line"
         id="tspan118">YorkYCWZ33AB04520259081004050560.9910.9901-0.11%</tspan><tspan
         style="font-variant:normal;font-weight:normal;font-stretch:normal;font-size:5.21999979px;font-family:Arial;-inkscape-font-specification:ArialMT;writing-mode:lr-tb;fill:#000000;fill-opacity:1;fill-rule:nonzero;stroke:none"
         x="-282.00006 -278.51831 -275.616 -273.87775 -245.40108 -241.91933 -238.1505 -233.22281 -230.0334 -227.13107 -224.22876 -220.74701 -217.26527 -179.82274 -176.92041 -156.78427 -153.88194 -150.97963 -148.0773 -121.80766 -118.90533 -98.349495 -95.447182 -92.544861 -89.64254 -63.372887 -60.47057 -57.568249 -54.665928 -18.556055 -15.653736 13.302648 16.204967 17.656128 20.558449 23.460768 49.480381 52.382702 53.833858 56.736179 59.6385 62.540821 83.137375 86.039696 87.490852 90.393173 93.295494"
         y="174.96292"
         sodipodi:role="line"
         id="tspan120">YorkYCWZ33AB04621169081004140571.0091.00920.03%</tspan><tspan
         style="font-variant:normal;font-weight:normal;font-stretch:normal;font-size:5.21999979px;font-family:Arial;-inkscape-font-specification:ArialMT;writing-mode:lr-tb;fill:#000000;fill-opacity:1;fill-rule:nonzero;stroke:none"
         x="-282.00006 -278.51831 -275.616 -273.87775 -245.40108 -241.91933 -238.1505 -233.22281 -230.0334 -227.13107 -224.22876 -220.74701 -217.26527 -179.82274 -176.92041 -156.78427 -153.88194 -150.97963 -148.0773 -121.80766 -118.90533 -98.349495 -95.447182 -92.544861 -89.64254 -63.372887 -60.47057 -57.568249 -54.665928 -22.876127 -19.973808 -17.071487 -15.620328 13.302126 16.204447 17.655605 20.557926 23.460245 49.479858 52.382179 53.83334 56.735657 59.637978 62.540298 83.136848 86.039169 87.490334 90.392654 93.294975"
         y="181.44302"
         sodipodi:role="line"
         id="tspan122">YorkYCWZ33AB0482304908100432059.21.0481.04800.02%</tspan><tspan
         style="font-variant:normal;font-weight:normal;font-stretch:normal;font-size:5.21999979px;font-family:Arial;-inkscape-font-specification:ArialMT;writing-mode:lr-tb;fill:#000000;fill-opacity:1;fill-rule:nonzero;stroke:none"
         x="-282.00006 -278.51831 -275.616 -273.87775 -245.40108 -241.91933 -238.1505 -233.22281 -230.0334 -227.13107 -224.22876 -220.74701 -217.26527 -179.82274 -176.92041 -156.78427 -153.88194 -150.97963 -148.0773 -121.80766 -118.90533 -98.349495 -95.447182 -92.544861 -89.64254 -63.372887 -60.47057 -57.568249 -54.665928 -22.876127 -19.973808 -17.071487 -15.620328 13.302126 16.204447 17.655605 20.557926 23.460245 49.479858 52.382179 53.83334 56.735657 59.637978 62.540298 81.396507 83.134766 86.037086 87.488243 90.390564 93.292885"
         y="187.92313"
         sodipodi:role="line"
         id="tspan124">YorkYCWZ33AB0502500908100450061.51.0881.0877-0.07%</tspan><tspan
         style="font-variant:normal;font-weight:normal;font-stretch:normal;font-size:5.21999979px;font-family:Arial;-inkscape-font-specification:ArialMT;writing-mode:lr-tb;fill:#000000;fill-opacity:1;fill-rule:nonzero;stroke:none"
         x="-282.00006 -278.51831 -275.616 -273.87775 -245.40108 -241.91933 -238.1505 -233.22281 -230.0334 -227.13107 -224.22876 -220.74701 -217.26527 -179.82274 -176.92041 -156.78427 -153.88194 -150.97963 -148.0773 -121.80766 -118.90533 -98.349495 -95.447182 -92.544861 -89.64254 -63.372887 -60.47057 -57.568249 -54.665928 -22.876127 -19.973808 -17.071487 -15.620328 13.302126 16.204447 17.655605 20.557926 23.460245 49.479858 52.382179 53.83334 56.735657 59.637978 62.540298 83.136848 86.039169 87.490334 90.392654 93.294975"
         y="194.40324"
         sodipodi:role="line"
         id="tspan126">YorkYCWZ33AB0401600959025380049.10.8690.86940.05%</tspan><tspan
         style="font-variant:normal;font-weight:normal;font-stretch:normal;font-size:5.21999979px;font-family:Arial;-inkscape-font-specification:ArialMT;writing-mode:lr-tb;fill:#000000;fill-opacity:1;fill-rule:nonzero;stroke:none"
         x="-282.00006 -278.51831 -275.616 -273.87775 -245.40108 -241.91933 -238.1505 -233.22281 -230.0334 -227.13107 -224.22876 -220.74701 -217.26527 -179.82274 -176.92041 -156.78427 -153.88194 -150.97963 -148.0773 -121.80766 -118.90533 -98.349495 -95.447182 -92.544861 -89.64254 -63.372887 -60.47057 -57.568249 -54.665928 -22.876127 -19.973808 -17.071487 -15.620328 13.302126 16.204447 17.655605 20.557926 23.460245 49.479858 52.382179 53.83334 56.735657 59.637978 62.540298 81.396507 83.134766 86.037086 87.488243 90.390564 93.292885"
         y="200.88335"
         sodipodi:role="line"
         id="tspan128">YorkYCWZ33AB0421764959025399051.20.9060.9052-0.11%</tspan><tspan
         style="font-variant:normal;font-weight:normal;font-stretch:normal;font-size:5.21999979px;font-family:Arial;-inkscape-font-specification:ArialMT;writing-mode:lr-tb;fill:#000000;fill-opacity:1;fill-rule:nonzero;stroke:none"
         x="-282.00006 -278.51831 -275.616 -273.87775 -245.40108 -241.91933 -238.1505 -233.22281 -230.0334 -227.13107 -224.22876 -220.74701 -217.26527 -179.82274 -176.92041 -156.78427 -153.88194 -150.97963 -148.0773 -121.80766 -118.90533 -98.349495 -95.447182 -92.544861 -89.64254 -63.372887 -60.47057 -57.568249 -54.665928 -22.876127 -19.973808 -17.071487 -15.620328 13.302126 16.204447 17.655605 20.557926 23.460245 49.479858 52.382179 53.83334 56.735657 59.637978 62.540298 83.136848 86.039169 87.490334 90.392654 93.294975"
         y="207.36346"
         sodipodi:role="line"
         id="tspan130">YorkYCWZ33AB0441936959025418053.20.9420.94180.02%</tspan><tspan
         style="font-variant:normal;font-weight:normal;font-stretch:normal;font-size:5.21999979px;font-family:Arial;-inkscape-font-specification:ArialMT;writing-mode:lr-tb;fill:#000000;fill-opacity:1;fill-rule:nonzero;stroke:none"
         x="-282.00006 -278.51831 -275.616 -273.87775 -245.40108 -241.91933 -238.1505 -233.22281 -230.0334 -227.13107 -224.22876 -220.74701 -217.26527 -179.82274 -176.92041 -156.78427 -153.88194 -150.97963 -148.0773 -121.80766 -118.90533 -98.349495 -95.447182 -92.544861 -89.64254 -63.372887 -60.47057 -57.568249 -54.665928 -22.876127 -19.973808 -17.071487 -15.620328 13.302126 16.204447 17.655605 20.557926 23.460245 49.479858 52.382179 53.83334 56.735657 59.637978 62.540298 81.396507 83.134766 86.037086 87.488243 90.390564 93.292885"
         y="213.84357"
         sodipodi:role="line"
         id="tspan132">YorkYCWZ33AB0452025959025427554.30.9610.9604-0.07%</tspan><tspan
         style="font-variant:normal;font-weight:normal;font-stretch:normal;font-size:5.21999979px;font-family:Arial;-inkscape-font-specification:ArialMT;writing-mode:lr-tb;fill:#000000;fill-opacity:1;fill-rule:nonzero;stroke:none"
         x="-282.00006 -278.51831 -275.616 -273.87775 -245.40108 -241.91933 -238.1505 -233.22281 -230.0334 -227.13107 -224.22876 -220.74701 -217.26527 -179.82274 -176.92041 -156.78427 -153.88194 -150.97963 -148.0773 -121.80766 -118.90533 -98.349495 -95.447182 -92.544861 -89.64254 -63.372887 -60.47057 -57.568249 -54.665928 -22.876127 -19.973808 -17.071487 -15.620328 13.302126 16.204447 17.655605 20.557926 23.460245 49.479858 52.382179 53.83334 56.735657 59.637978 62.540298 83.136848 86.039169 87.490334 90.392654 93.294975"
         y="220.32367"
         sodipodi:role="line"
         id="tspan134">YorkYCWZ33AB0462116959025437055.30.9790.97920.05%</tspan><tspan
         style="font-variant:normal;font-weight:normal;font-stretch:normal;font-size:5.21999979px;font-family:Arial;-inkscape-font-specification:ArialMT;writing-mode:lr-tb;fill:#000000;fill-opacity:1;fill-rule:nonzero;stroke:none"
         x="-282.00006 -278.51831 -275.616 -273.87775 -245.40108 -241.91933 -238.1505 -233.22281 -230.0334 -227.13107 -224.22876 -220.74701 -217.26527 -179.82274 -176.92041 -156.78427 -153.88194 -150.97963 -148.0773 -121.80766 -118.90533 -98.349495 -95.447182 -92.544861 -89.64254 -63.372887 -60.47057 -57.568249 -54.665928 -22.876127 -19.973808 -17.071487 -15.620328 13.302126 16.204447 17.655605 20.557926 23.460245 49.479858 52.382179 53.83334 56.735657 59.637978 62.540298 81.396507 83.134766 86.037086 87.488243 90.390564 93.292885"
         y="226.80379"
         sodipodi:role="line"
         id="tspan136">YorkYCWZ33AB0482304959025456057.51.0181.0175-0.02%</tspan><tspan
         style="font-variant:normal;font-weight:normal;font-stretch:normal;font-size:5.21999979px;font-family:Arial;-inkscape-font-specification:ArialMT;writing-mode:lr-tb;fill:#000000;fill-opacity:1;fill-rule:nonzero;stroke:none"
         x="-282.00006 -278.51831 -275.616 -273.87775 -245.40108 -241.91933 -238.1505 -233.22281 -230.0334 -227.13107 -224.22876 -220.74701 -217.26527 -179.82274 -176.92041 -156.78427 -153.88194 -150.97963 -148.0773 -121.80766 -118.90533 -98.349495 -95.447182 -92.544861 -89.64254 -63.372887 -60.47057 -57.568249 -54.665928 -22.876127 -19.973808 -17.071487 -15.620328 13.302126 16.204447 17.655605 20.557926 23.460245 49.479858 52.382179 53.83334 56.735657 59.637978 62.540298 81.396507 83.134766 86.037086 87.488243 90.390564 93.292885"
         y="233.28389"
         sodipodi:role="line"
         id="tspan138">YorkYCWZ33AB0502500959025475059.71.0571.0565-0.01%</tspan></text>
<text
       transform="matrix(0,1,1,0,339.84371,83.82)"
       id="text140"><tspan
         style="font-variant:normal;font-weight:bold;font-stretch:normal;font-size:5.21999979px;font-family:Arial;-inkscape-font-specification:Arial-BoldMT;writing-mode:lr-tb;fill:#000000;fill-opacity:1;fill-rule:nonzero;stroke:none"
         x="0 4.3482599 7.2505798 8.9888401 11.01942 12.47058 15.3729 16.82406 20.592899 23.78232 25.23348 26.971741"
         y="0"
         sodipodi:role="line"
         id="tspan142">Metric Units</tspan></text>
<text
       transform="matrix(0,1,1,0,346.32382,164.87981)"
       id="text144"><tspan
         style="font-variant:normal;font-weight:normal;font-stretch:normal;font-size:5.21999979px;font-family:Arial;-inkscape-font-specification:ArialMT;writing-mode:lr-tb;fill:#000000;fill-opacity:1;fill-rule:nonzero;stroke:none"
         x="0 3.7688401 7.5376801 12.46536 15.9471 18.995581 22.76442 25.66674 26.825581 27.984421 29.143259 32.045582 34.947899 36.399059 41.32674 44.229061 45.680222 48.582539 50.320801 51.771961 55.2537 58.156021 61.058338 63.960659 65.119499 67.7295 69.180656 72.370079 75.2724 79.620659 82.52298 85.425301 87.163559 90.06588 91.517036 94.419357 96.157623 99.059937 100.5111 102.24936 106.0182 116.02964 119.79848 124.72616 128.2079 131.25638 134.73811 137.64044 139.0916 141.99391 143.73218 144.89102 147.79333 150.69566 152.14682 155.91566 158.81798 161.72029 164.62262 167.52493 170.42726 173.03726 175.93958 177.67784 179.129 184.05667 186.959 188.41016 191.31248 193.05074 194.50189 197.69131 200.59364 204.94189 207.84422 210.74654 212.4848 215.38712 216.83827 219.7406 221.47885 224.38118 225.83234 227.5706 231.33943"
         y="0"
         sodipodi:role="line"
         id="tspan146">CHWS=Chilled Water Supply Temperature (C)CWS=Entering Condenser Water Temperature (C)</tspan><tspan
         style="font-variant:normal;font-weight:normal;font-stretch:normal;font-size:5.21999979px;font-family:Arial;-inkscape-font-specification:ArialMT;writing-mode:lr-tb;fill:#000000;fill-opacity:1;fill-rule:nonzero;stroke:none"
         x="200.94025 204.70909 207.6114 209.34967 213.69792 216.60025 217.75908 218.91792 221.52792 224.43025 247.37424 251.14307 254.62482 258.10657 259.84482 263.03424 284.81522 289.45578 290.90695 294.67578 295.83463 297.2858 327.05545 330.82428 334.30603 337.78778 339.52603 342.71545"
         y="6.4801078"
         sodipodi:role="line"
         id="tspan148">NormalizedCAP-FT% DiffCAP-FT</tspan><tspan
         style="font-variant:normal;font-weight:normal;font-stretch:normal;font-size:5.21999979px;font-family:Arial;-inkscape-font-specification:ArialMT;writing-mode:lr-tb;fill:#000000;fill-opacity:1;fill-rule:nonzero;stroke:none"
         x="-81.059814 -76.711555 -73.809235 -70.906914 -68.004593 -66.553436 -63.651115 -61.041115 -59.589954 -56.687634 -54.949375 -52.047054 -44.462917 -40.114655 -37.212337 -34.310017 -31.407696 10.613826 14.382666 18.151506 23.079185 32.45274 36.221581 39.990421 44.918098 48.399841 50.43042 52.460999 72.409233 76.17807 81.105751 94.669395 98.43824 103.36592 106.84766 108.87823 110.90882 118.30712 122.07597 125.8448 130.77249 134.25423 136.28481 140.05365 144.98132 155.26524 159.03409 161.9364 164.83873 167.74104 170.35104 171.50989 172.96104 175.57104 177.0222 178.76047 181.37047 186.29814 216.46349 220.23232 223.71407 238.72261 241.91203 243.65028 246.55261 250.90086 252.35202 256.12088 259.02319 260.76144 263.37146"
         y="12.960216"
         sodipodi:role="line"
         id="tspan150">ManufacturerModelCHWSCHWS**2CWSCWS**2CHWS*CWSCapacity (kW)CAPFrom Curve</tspan><tspan
         style="font-variant:normal;font-weight:normal;font-stretch:normal;font-size:5.21999979px;font-family:Arial;-inkscape-font-specification:ArialMT;writing-mode:lr-tb;fill:#000000;fill-opacity:1;fill-rule:nonzero;stroke:none"
         x="-81.059814 -77.578072 -74.675751 -72.937492 -44.460827 -40.979088 -37.210247 -32.28257 -29.093147 -26.190828 -23.288507 -19.806768 -16.325027 19.677834 22.580154 24.031315 45.597221 48.499542 51.401863 52.853024 74.815651 77.717972 80.620293 82.071449 101.15421 104.05653 106.95885 109.86116 111.31232 136.13185 139.03418 141.93649 144.83882 146.28998 175.18947 178.09178 180.99411 183.89642 185.34758 217.12694 220.02927 221.48042 224.38275 250.42532 253.32764 254.77881 257.68112 260.58344 263.48578 284.08231 286.98465 288.43579 291.3381 294.24045 344.67972 382.06067 419.31998 456.03903 493.539 531.21802 556.11737 559.59912 562.50146 563.66028 566.56262 569.17261 570.62378 573.52612 576.42841 577.87958"
         y="19.440325"
         sodipodi:role="line"
         id="tspan152">YorkYCWZ33AB04.419.823.9570.7106.2194.40.980.97870.00%fedcbaAdjusted a</tspan><tspan
         style="font-variant:normal;font-weight:normal;font-stretch:normal;font-size:5.21999979px;font-family:Arial;-inkscape-font-specification:ArialMT;writing-mode:lr-tb;fill:#000000;fill-opacity:1;fill-rule:nonzero;stroke:none"
         x="-81.059814 -77.578072 -74.675751 -72.937492 -44.460827 -40.979088 -37.210247 -32.28257 -29.093147 -26.190828 -23.288507 -19.806768 -16.325027 19.677834 22.580154 24.031315 45.597221 48.499542 51.401863 52.853024 74.815651 77.717972 80.620293 82.071449 101.15421 104.05653 106.95885 109.86116 111.31232 136.13185 139.03418 141.93649 144.83882 146.28998 175.18947 178.09178 180.99411 183.89642 185.34758 217.12694 220.02927 221.48042 224.38275 250.42532 253.32764 254.77881 257.68112 260.58344 263.48578 282.34198 284.08023 286.98254 288.43372 291.33603 294.23834 334.29977 336.03802 338.94034 340.39151 343.29382 346.19614 349.09845 352.00079 354.90311 357.80542 360.70773 369.81351 371.55176 374.4541 375.90524 378.80756 381.7099 384.61221 387.51453 390.41684 393.89859 395.63684 398.53918 405.86804 407.60632 410.50864 411.95978 414.86212 417.76443 420.66675 423.56906 426.47141 429.37372 432.27603 435.17834 444.20111 447.10345 448.5546 451.45691 454.35925 457.26157 460.16388 463.06619 465.96851 468.87085 471.77316 482.89386 485.79617 487.24731 490.14966 493.05197 495.95428 498.8566 501.75894 504.66125 507.56357 510.46588 519.48657 522.38892 523.84003 526.74237 529.64471 532.547 535.44934 538.35162 541.25397 544.15631 547.05859 554.45953 557.36182 558.81299 561.71533 564.67975 567.58209 570.48438 573.38672 576.28906 579.19135 582.09369"
         y="25.920431"
         sodipodi:role="line"
         id="tspan154">YorkYCWZ33AB05.630.923.9570.7132.7202.21.021.0169-0.08%-0.00019825-3.51093E-05-0.0068864870.0003357180.0357683881.0189071981.018707198</tspan><tspan
         style="font-variant:normal;font-weight:normal;font-stretch:normal;font-size:5.21999979px;font-family:Arial;-inkscape-font-specification:ArialMT;writing-mode:lr-tb;fill:#000000;fill-opacity:1;fill-rule:nonzero;stroke:none"
         x="-81.059814 -77.578072 -74.675751 -72.937492 -44.460827 -40.979088 -37.210247 -32.28257 -29.093147 -26.190828 -23.288507 -19.806768 -16.325027 19.677834 22.580154 24.031315 45.597221 48.499542 51.401863 52.853024 74.815651 77.717972 80.620293 82.071449 101.15421 104.05653 106.95885 109.86116 111.31232 136.13185 139.03418 141.93649 144.83882 146.28998 175.18947 178.09178 180.99411 183.89642 185.34758 217.12694 220.02927 221.48042 224.38275 250.42532 253.32764 254.77881 257.68112 260.58344 263.48578 282.34198 284.08023 286.98254 288.43372 291.33603 294.23834 333.69946 336.60178 338.05295 340.95526 343.85757 346.75989 349.66223 352.56454 356.0463 357.78455 360.68686 374.43427 377.33658 378.78772 381.69006 384.59238 387.49469 390.397 393.87875 395.617 398.51935 407.60944 410.51175 411.96292 414.86523 417.76755 420.66989 423.5722 426.47452 429.37683 432.27917 435.18149 444.74243 447.64474 449.09592 451.99823 454.90054 457.80289 460.7052 463.60751 467.08926 468.82751 471.72983 482.89697 485.79929 487.25046 490.15277 493.05511 495.95743 498.85974 501.76205 504.66437 507.56671 510.46902 519.48969 522.39203 523.8432 526.74548 529.64783 532.55017 535.45245 538.3548 541.25708 544.15942 547.06177"
         y="32.400539"
         sodipodi:role="line"
         id="tspan156">YorkYCWZ33AB06.744.423.9570.7159.3209.91.061.0560-0.06%1.14446E-056.1174E-060.0003701542.53388E-050.0004995360.005921788</tspan><tspan
         style="font-variant:normal;font-weight:normal;font-stretch:normal;font-size:5.21999979px;font-family:Arial;-inkscape-font-specification:ArialMT;writing-mode:lr-tb;fill:#000000;fill-opacity:1;fill-rule:nonzero;stroke:none"
         x="-81.059814 -77.578072 -74.675751 -72.937492 -44.460827 -40.979088 -37.210247 -32.28257 -29.093147 -26.190828 -23.288507 -19.806768 -16.325027 19.677834 22.580154 24.031315 45.597221 48.499542 51.401863 52.853024 74.815651 77.717972 80.620293 82.071449 101.15421 104.05653 106.95885 109.86116 111.31232 136.13185 139.03418 141.93649 144.83882 146.28998 175.18947 178.09178 180.99411 183.89642 185.34758 217.12694 220.02927 221.48042 224.38275 250.42532 253.32764 254.77881 257.68112 260.58344 263.48578 282.34198 284.08023 286.98254 288.43372 291.33603 294.23834 320.49963 322.23792 333.15866 336.061 337.51215 340.41446 343.3168 346.21912 349.12143 352.02374 354.92606 357.8284 360.73071 371.01151 373.91382 375.36499 378.2673 381.16962 384.07193 386.97427 389.87659 392.7789 395.68121 398.58353 414.92422 417.82654 421.5954 423.04654 451.52322 454.42554 458.19437 459.64554 489.20221 492.10455 495.87338 497.32452 526.82117 529.72351 533.49237 534.94354"
         y="38.88065"
         sodipodi:role="line"
         id="tspan158">YorkYCWZ33AB07.252.223.9570.7172.5213.81.081.0758-0.03%r20.9999665060.000467278#N/A#N/A#N/A#N/A</tspan><tspan
         style="font-variant:normal;font-weight:normal;font-stretch:normal;font-size:5.21999979px;font-family:Arial;-inkscape-font-specification:ArialMT;writing-mode:lr-tb;fill:#000000;fill-opacity:1;fill-rule:nonzero;stroke:none"
         x="-81.059814 -77.578072 -74.675751 -72.937492 -44.460827 -40.979088 -37.210247 -32.28257 -29.093147 -26.190828 -23.288507 -19.806768 -16.325027 19.677834 22.580154 24.031315 45.597221 48.499542 51.401863 52.853024 74.815651 77.717972 80.620293 82.071449 101.15421 104.05653 106.95885 109.86116 111.31232 136.13185 139.03418 141.93649 144.83882 146.28998 175.18947 178.09178 180.99411 183.89642 185.34758 217.12694 220.02927 221.48042 224.38275 250.42532 253.32764 254.77881 257.68112 260.58344 263.48578 284.08231 286.98465 288.43579 291.3381 294.24045"
         y="45.360756"
         sodipodi:role="line"
         id="tspan160">YorkYCWZ33AB07.860.523.9570.7185.8217.61.101.09580.02%</tspan><tspan
         style="font-variant:normal;font-weight:normal;font-stretch:normal;font-size:5.21999979px;font-family:Arial;-inkscape-font-specification:ArialMT;writing-mode:lr-tb;fill:#000000;fill-opacity:1;fill-rule:nonzero;stroke:none"
         x="-81.059814 -77.578072 -74.675751 -72.937492 -44.460827 -40.979088 -37.210247 -32.28257 -29.093147 -26.190828 -23.288507 -19.806768 -16.325027 19.677834 22.580154 24.031315 45.597221 48.499542 51.401863 52.853024 74.815651 77.717972 80.620293 82.071449 101.15421 104.05653 106.95885 109.86116 111.31232 136.13185 139.03418 141.93649 144.83882 146.28998 175.18947 178.09178 180.99411 183.89642 185.34758 217.12694 220.02927 221.48042 224.38275 250.42532 253.32764 254.77881 257.68112 260.58344 263.48578 284.08231 286.98465 288.43579 291.3381 294.24045"
         y="51.840862"
         sodipodi:role="line"
         id="tspan162">YorkYCWZ33AB08.979.023.9570.7212.3225.71.141.13650.02%</tspan><tspan
         style="font-variant:normal;font-weight:normal;font-stretch:normal;font-size:5.21999979px;font-family:Arial;-inkscape-font-specification:ArialMT;writing-mode:lr-tb;fill:#000000;fill-opacity:1;fill-rule:nonzero;stroke:none"
         x="-81.059814 -77.578072 -74.675751 -72.937492 -44.460827 -40.979088 -37.210247 -32.28257 -29.093147 -26.190828 -23.288507 -19.806768 -16.325027 16.797438 19.699759 22.602077 24.053238 42.715782 45.618103 48.520424 51.422741 52.873901 74.81356 77.715881 80.618202 82.069359 101.15211 104.05444 106.95676 109.85908 111.31023 136.12978 139.03209 141.9344 144.83673 146.28789 175.18738 178.08969 180.99202 183.89433 185.34549 217.12486 220.02718 221.47833 224.38066 250.42323 253.32556 254.77672 257.67905 260.58136 263.48367 282.33987 284.07816 286.98047 288.43161 291.33395 294.23627"
         y="58.320972"
         sodipodi:role="line"
         id="tspan164">YorkYCWZ33AB010.0100.023.9570.7238.9234.21.181.1781-0.06%</tspan><tspan
         style="font-variant:normal;font-weight:normal;font-stretch:normal;font-size:5.21999979px;font-family:Arial;-inkscape-font-specification:ArialMT;writing-mode:lr-tb;fill:#000000;fill-opacity:1;fill-rule:nonzero;stroke:none"
         x="-81.059814 -77.578072 -74.675751 -72.937492 -44.460827 -40.979088 -37.210247 -32.28257 -29.093147 -26.190828 -23.288507 -19.806768 -16.325027 19.677834 22.580154 24.031315 45.597221 48.499542 51.401863 52.853024 74.815651 77.717972 80.620293 82.071449 101.15421 104.05653 106.95885 109.86116 111.31232 136.13185 139.03418 141.93649 144.83882 146.28998 175.18947 178.09178 180.99411 183.89642 185.34758 217.12694 220.02927 221.48042 224.38275 250.42532 253.32764 254.77881 257.68112 260.58344 263.48578 284.08231 286.98465 288.43579 291.3381 294.24045"
         y="64.801079"
         sodipodi:role="line"
         id="tspan166">YorkYCWZ33AB04.419.826.7711.1118.5189.20.950.95220.00%</tspan><tspan
         style="font-variant:normal;font-weight:normal;font-stretch:normal;font-size:5.21999979px;font-family:Arial;-inkscape-font-specification:ArialMT;writing-mode:lr-tb;fill:#000000;fill-opacity:1;fill-rule:nonzero;stroke:none"
         x="-81.059814 -77.578072 -74.675751 -72.937492 -44.460827 -40.979088 -37.210247 -32.28257 -29.093147 -26.190828 -23.288507 -19.806768 -16.325027 19.677834 22.580154 24.031315 45.597221 48.499542 51.401863 52.853024 74.815651 77.717972 80.620293 82.071449 101.15421 104.05653 106.95885 109.86116 111.31232 136.13185 139.03418 141.93649 144.83882 146.28998 175.18947 178.09178 180.99411 183.89642 185.34758 217.12694 220.02927 221.48042 224.38275 250.42532 253.32764 254.77881 257.68112 260.58344 263.48578 284.08231 286.98465 288.43579 291.3381 294.24045"
         y="71.281189"
         sodipodi:role="line"
         id="tspan168">YorkYCWZ33AB05.630.926.7711.1148.1196.50.990.98980.04%</tspan><tspan
         style="font-variant:normal;font-weight:normal;font-stretch:normal;font-size:5.21999979px;font-family:Arial;-inkscape-font-specification:ArialMT;writing-mode:lr-tb;fill:#000000;fill-opacity:1;fill-rule:nonzero;stroke:none"
         x="-81.059814 -77.578072 -74.675751 -72.937492 -44.460827 -40.979088 -37.210247 -32.28257 -29.093147 -26.190828 -23.288507 -19.806768 -16.325027 19.677834 22.580154 24.031315 45.597221 48.499542 51.401863 52.853024 74.815651 77.717972 80.620293 82.071449 101.15421 104.05653 106.95885 109.86116 111.31232 136.13185 139.03418 141.93649 144.83882 146.28998 175.18947 178.09178 180.99411 183.89642 185.34758 217.12694 220.02927 221.48042 224.38275 250.42532 253.32764 254.77881 257.68112 260.58344 263.48578 282.34198 284.08023 286.98254 288.43372 291.33603 294.23834"
         y="77.761299"
         sodipodi:role="line"
         id="tspan170">YorkYCWZ33AB06.744.426.7711.1177.8204.31.031.0282-0.01%</tspan><tspan
         style="font-variant:normal;font-weight:normal;font-stretch:normal;font-size:5.21999979px;font-family:Arial;-inkscape-font-specification:ArialMT;writing-mode:lr-tb;fill:#000000;fill-opacity:1;fill-rule:nonzero;stroke:none"
         x="-81.059814 -77.578072 -74.675751 -72.937492 -44.460827 -40.979088 -37.210247 -32.28257 -29.093147 -26.190828 -23.288507 -19.806768 -16.325027 19.677834 22.580154 24.031315 45.597221 48.499542 51.401863 52.853024 74.815651 77.717972 80.620293 82.071449 101.15421 104.05653 106.95885 109.86116 111.31232 136.13185 139.03418 141.93649 144.83882 146.28998 175.18947 178.09178 180.99411 183.89642 185.34758 217.12694 220.02927 221.48042 224.38275 250.42532 253.32764 254.77881 257.68112 260.58344 263.48578 284.08231 286.98465 288.43579 291.3381 294.24045"
         y="84.241402"
         sodipodi:role="line"
         id="tspan172">YorkYCWZ33AB07.252.226.7711.1192.6208.11.051.04780.00%</tspan><tspan
         style="font-variant:normal;font-weight:normal;font-stretch:normal;font-size:5.21999979px;font-family:Arial;-inkscape-font-specification:ArialMT;writing-mode:lr-tb;fill:#000000;fill-opacity:1;fill-rule:nonzero;stroke:none"
         x="-81.059814 -77.578072 -74.675751 -72.937492 -44.460827 -40.979088 -37.210247 -32.28257 -29.093147 -26.190828 -23.288507 -19.806768 -16.325027 19.677834 22.580154 24.031315 45.597221 48.499542 51.401863 52.853024 74.815651 77.717972 80.620293 82.071449 101.15421 104.05653 106.95885 109.86116 111.31232 136.13185 139.03418 141.93649 144.83882 146.28998 175.18947 178.09178 180.99411 183.89642 185.34758 217.12694 220.02927 221.48042 224.38275 250.42532 253.32764 254.77881 257.68112 260.58344 263.48578 284.08231 286.98465 288.43579 291.3381 294.24045"
         y="90.721512"
         sodipodi:role="line"
         id="tspan174">YorkYCWZ33AB07.860.526.7711.1207.4212.01.071.06750.02%</tspan><tspan
         style="font-variant:normal;font-weight:normal;font-stretch:normal;font-size:5.21999979px;font-family:Arial;-inkscape-font-specification:ArialMT;writing-mode:lr-tb;fill:#000000;fill-opacity:1;fill-rule:nonzero;stroke:none"
         x="-81.059814 -77.578072 -74.675751 -72.937492 -44.460827 -40.979088 -37.210247 -32.28257 -29.093147 -26.190828 -23.288507 -19.806768 -16.325027 19.677834 22.580154 24.031315 45.597221 48.499542 51.401863 52.853024 74.815651 77.717972 80.620293 82.071449 101.15421 104.05653 106.95885 109.86116 111.31232 136.13185 139.03418 141.93649 144.83882 146.28998 175.18947 178.09178 180.99411 183.89642 185.34758 217.12694 220.02927 221.48042 224.38275 250.42532 253.32764 254.77881 257.68112 260.58344 263.48578 282.34198 284.08023 286.98254 288.43372 291.33603 294.23834"
         y="97.201622"
         sodipodi:role="line"
         id="tspan176">YorkYCWZ33AB08.979.026.7711.1237.0220.11.111.1076-0.04%</tspan><tspan
         style="font-variant:normal;font-weight:normal;font-stretch:normal;font-size:5.21999979px;font-family:Arial;-inkscape-font-specification:ArialMT;writing-mode:lr-tb;fill:#000000;fill-opacity:1;fill-rule:nonzero;stroke:none"
         x="-81.059814 -77.578072 -74.675751 -72.937492 -44.460827 -40.979088 -37.210247 -32.28257 -29.093147 -26.190828 -23.288507 -19.806768 -16.325027 16.797438 19.699759 22.602077 24.053238 42.715782 45.618103 48.520424 51.422741 52.873901 74.81356 77.715881 80.618202 82.069359 101.15211 104.05444 106.95676 109.85908 111.31023 136.12978 139.03209 141.9344 144.83673 146.28789 175.18738 178.08969 180.99202 183.89433 185.34549 217.12486 220.02718 221.47833 224.38066 250.42323 253.32556 254.77672 257.67905 260.58136 263.48367 282.33987 284.07816 286.98047 288.43161 291.33395 294.23627"
         y="103.68173"
         sodipodi:role="line"
         id="tspan178">YorkYCWZ33AB010.0100.026.7711.1266.7228.21.151.1485-0.02%</tspan><tspan
         style="font-variant:normal;font-weight:normal;font-stretch:normal;font-size:5.21999979px;font-family:Arial;-inkscape-font-specification:ArialMT;writing-mode:lr-tb;fill:#000000;fill-opacity:1;fill-rule:nonzero;stroke:none"
         x="-81.059814 -77.578072 -74.675751 -72.937492 -44.460827 -40.979088 -37.210247 -32.28257 -29.093147 -26.190828 -23.288507 -19.806768 -16.325027 19.677834 22.580154 24.031315 45.597221 48.499542 51.401863 52.853024 74.815651 77.717972 80.620293 82.071449 101.15421 104.05653 106.95885 109.86116 111.31232 136.13185 139.03418 141.93649 144.83882 146.28998 175.18947 178.09178 180.99411 183.89642 185.34758 217.12694 220.02927 221.48042 224.38275 250.42532 253.32764 254.77881 257.68112 260.58344 263.48578 282.34198 284.08023 286.98254 288.43372 291.33603 294.23834 347.1394 350.90823 354.67706 359.60477 388.77829 392.54712 397.47482"
         y="110.16184"
         sodipodi:role="line"
         id="tspan180">YorkYCWZ33AB04.419.829.4867.0130.9183.90.930.9252-0.05%CHWSCWS</tspan><tspan
         style="font-variant:normal;font-weight:normal;font-stretch:normal;font-size:5.21999979px;font-family:Arial;-inkscape-font-specification:ArialMT;writing-mode:lr-tb;fill:#000000;fill-opacity:1;fill-rule:nonzero;stroke:none"
         x="-81.059814 -77.578072 -74.675751 -72.937492 -44.460827 -40.979088 -37.210247 -32.28257 -29.093147 -26.190828 -23.288507 -19.806768 -16.325027 19.677834 22.580154 24.031315 45.597221 48.499542 51.401863 52.853024 74.815651 77.717972 80.620293 82.071449 101.15421 104.05653 106.95885 109.86116 111.31232 136.13185 139.03418 141.93649 144.83882 146.28998 175.18947 178.09178 180.99411 183.89642 185.34758 217.12694 220.02927 221.48042 224.38275 250.42532 253.32764 254.77881 257.68112 260.58344 263.48578 282.34198 284.08023 286.98254 288.43372 291.33603 294.23834 391.1795 394.08182 396.98413 398.4353 427.77795 430.68027 433.58261 435.03375 464.37643 467.27875 470.18106 471.63223 503.07489 505.9772 508.87952 510.33069 539.67334 542.57568 545.47797 546.92914 574.65204 577.55438 580.45667 581.90784"
         y="116.64194"
         sodipodi:role="line"
         id="tspan182">YorkYCWZ33AB05.630.929.4867.0163.6191.30.960.9621-0.07%21.523.926.729.432.235.0</tspan><tspan
         style="font-variant:normal;font-weight:normal;font-stretch:normal;font-size:5.21999979px;font-family:Arial;-inkscape-font-specification:ArialMT;writing-mode:lr-tb;fill:#000000;fill-opacity:1;fill-rule:nonzero;stroke:none"
         x="-81.059814 -77.578072 -74.675751 -72.937492 -44.460827 -40.979088 -37.210247 -32.28257 -29.093147 -26.190828 -23.288507 -19.806768 -16.325027 16.797438 19.699759 21.150917 24.053238 45.595657 48.497974 51.400295 52.851456 71.934212 74.836533 77.738853 79.19001 82.092331 101.15211 104.05444 106.95676 109.85908 111.31023 136.12978 139.03209 141.9344 144.83673 146.28789 175.18738 178.08969 180.99202 183.89433 185.34549 217.12486 220.02718 221.47833 224.38066 250.42323 253.32556 254.77672 257.67905 260.58136 263.48367 284.08023 286.98254 288.43372 291.33603 294.23834 356.19766 359.09998 360.55115 385.41714 388.31946 389.7706 392.67294 395.57526 398.47757 422.01404 424.91635 426.36752 429.26984 432.17215 435.07446 458.61093 461.51324 462.96442 465.86673 468.76904 471.67136 497.30783 500.21014 501.66132 504.56363 507.46594 510.36829 533.90472 536.80707 538.25824 541.16052 544.06287 546.96515 568.88184 571.78418 573.23535 576.13763 579.03998 581.94232"
         y="123.12205"
         sodipodi:role="line"
         id="tspan184">YorkYCWZ33AB06.6744.429.44867.0196.3198.71.001.00000.00%3.20.95870.93690.91110.88470.85780.8304</tspan><tspan
         style="font-variant:normal;font-weight:normal;font-stretch:normal;font-size:5.21999979px;font-family:Arial;-inkscape-font-specification:ArialMT;writing-mode:lr-tb;fill:#000000;fill-opacity:1;fill-rule:nonzero;stroke:none"
         x="-81.059814 -77.578072 -74.675751 -72.937492 -44.460827 -40.979088 -37.210247 -32.28257 -29.093147 -26.190828 -23.288507 -19.806768 -16.325027 19.677834 22.580154 24.031315 45.597221 48.499542 51.401863 52.853024 74.815651 77.717972 80.620293 82.071449 101.15421 104.05653 106.95885 109.86116 111.31232 136.13185 139.03418 141.93649 144.83882 146.28998 175.18947 178.09178 180.99411 183.89642 185.34758 217.12694 220.02927 221.48042 224.38275 250.42532 253.32764 254.77881 257.68112 260.58344 263.48578 282.34198 284.08023 286.98254 288.43372 291.33603 294.23834 356.19974 359.10208 360.55322 385.41922 388.32153 389.77271 392.67502 395.57733 398.47968 422.01611 424.91843 426.3696 429.27191 432.17422 435.07657 458.61301 461.51535 462.96649 465.8688 468.77115 471.67346 497.30994 500.21225 501.66339 504.56573 507.46805 510.37036 533.9068 536.80914 538.26031 541.1626 544.06494 546.96729 568.88397 571.78625 573.23743 576.13977 579.04205 581.9444"
         y="129.60216"
         sodipodi:role="line"
         id="tspan186">YorkYCWZ33AB07.252.229.4867.0212.7202.51.021.0192-0.03%4.41.00110.97870.95220.92520.89760.8694</tspan><tspan
         style="font-variant:normal;font-weight:normal;font-stretch:normal;font-size:5.21999979px;font-family:Arial;-inkscape-font-specification:ArialMT;writing-mode:lr-tb;fill:#000000;fill-opacity:1;fill-rule:nonzero;stroke:none"
         x="-81.059814 -77.578072 -74.675751 -72.937492 -44.460827 -40.979088 -37.210247 -32.28257 -29.093147 -26.190828 -23.288507 -19.806768 -16.325027 19.677834 22.580154 24.031315 45.597221 48.499542 51.401863 52.853024 74.815651 77.717972 80.620293 82.071449 101.15421 104.05653 106.95885 109.86116 111.31232 136.13185 139.03418 141.93649 144.83882 146.28998 175.18947 178.09178 180.99411 183.89642 185.34758 217.12694 220.02927 221.48042 224.38275 250.42532 253.32764 254.77881 257.68112 260.58344 263.48578 282.34198 284.08023 286.98254 288.43372 291.33603 294.23834 356.19974 359.10208 360.55322 385.41922 388.32153 389.77271 392.67502 395.57733 398.47968 422.01611 424.91843 426.3696 429.27191 432.17422 435.07657 458.61301 461.51535 462.96649 465.8688 468.77115 471.67346 497.30994 500.21225 501.66339 504.56573 507.46805 510.37036 533.9068 536.80914 538.26031 541.1626 544.06494 546.96729 568.88397 571.78625 573.23743 576.13977 579.04205 581.9444"
         y="136.08228"
         sodipodi:role="line"
         id="tspan188">YorkYCWZ33AB07.860.529.4867.0229.0206.41.041.0386-0.03%5.61.03981.01690.98980.96210.93390.9052</tspan><tspan
         style="font-variant:normal;font-weight:normal;font-stretch:normal;font-size:5.21999979px;font-family:Arial;-inkscape-font-specification:ArialMT;writing-mode:lr-tb;fill:#000000;fill-opacity:1;fill-rule:nonzero;stroke:none"
         x="-81.059814 -77.578072 -74.675751 -72.937492 -44.460827 -40.979088 -37.210247 -32.28257 -29.093147 -26.190828 -23.288507 -19.806768 -16.325027 19.677834 22.580154 24.031315 45.597221 48.499542 51.401863 52.853024 74.815651 77.717972 80.620293 82.071449 101.15421 104.05653 106.95885 109.86116 111.31232 136.13185 139.03418 141.93649 144.83882 146.28998 175.18947 178.09178 180.99411 183.89642 185.34758 217.12694 220.02927 221.48042 224.38275 250.42532 253.32764 254.77881 257.68112 260.58344 263.48578 284.08231 286.98465 288.43579 291.3381 294.24045 356.19974 359.10208 360.55322 385.41922 388.32153 389.77271 392.67502 395.57733 398.47968 422.01611 424.91843 426.3696 429.27191 432.17422 435.07657 458.61301 461.51535 462.96649 465.8688 468.77115 471.67346 497.30994 500.21225 501.66339 504.56573 507.46805 510.37036 533.9068 536.80914 538.26031 541.1626 544.06494 546.96729 568.88397 571.78625 573.23743 576.13977 579.04205 581.9444"
         y="142.56238"
         sodipodi:role="line"
         id="tspan190">YorkYCWZ33AB08.979.029.4867.0261.7214.11.081.07810.02%6.71.07941.05601.02821.00000.97110.9418</tspan><tspan
         style="font-variant:normal;font-weight:normal;font-stretch:normal;font-size:5.21999979px;font-family:Arial;-inkscape-font-specification:ArialMT;writing-mode:lr-tb;fill:#000000;fill-opacity:1;fill-rule:nonzero;stroke:none"
         x="-81.059814 -77.578072 -74.675751 -72.937492 -44.460827 -40.979088 -37.210247 -32.28257 -29.093147 -26.190828 -23.288507 -19.806768 -16.325027 16.797438 19.699759 22.602077 24.053238 42.715782 45.618103 48.520424 51.422741 52.873901 74.81356 77.715881 80.618202 82.069359 101.15211 104.05444 106.95676 109.85908 111.31023 136.12978 139.03209 141.9344 144.83673 146.28789 175.18738 178.08969 180.99202 183.89433 185.34549 217.12486 220.02718 221.47833 224.38066 250.42323 253.32556 254.77672 257.67905 260.58136 263.48367 282.33987 284.07816 286.98047 288.43161 291.33395 294.23627 356.19766 359.09998 360.55115 385.41714 388.31946 389.7706 392.67294 395.57526 398.47757 422.01404 424.91635 426.36752 429.26984 432.17215 435.07446 458.61093 461.51324 462.96442 465.86673 468.76904 471.67136 497.30783 500.21014 501.66132 504.56363 507.46594 510.36829 533.90472 536.80707 538.25824 541.16052 544.06287 546.96515 568.88184 571.78418 573.23535 576.13763 579.03998 581.94232"
         y="149.04248"
         sodipodi:role="line"
         id="tspan192">YorkYCWZ33AB010.0100.029.4867.0294.4222.21.121.1184-0.02%7.21.09951.07581.04781.01920.99010.9604</tspan><tspan
         style="font-variant:normal;font-weight:normal;font-stretch:normal;font-size:5.21999979px;font-family:Arial;-inkscape-font-specification:ArialMT;writing-mode:lr-tb;fill:#000000;fill-opacity:1;fill-rule:nonzero;stroke:none"
         x="-81.059814 -77.578072 -74.675751 -72.937492 -44.460827 -40.979088 -37.210247 -32.28257 -29.093147 -26.190828 -23.288507 -19.806768 -16.325027 19.677834 22.580154 24.031315 45.597221 48.499542 51.401863 52.853024 74.815651 77.717972 80.620293 82.071449 98.27433 101.17665 104.07897 106.98129 109.88361 111.33477 136.13133 139.03366 141.93597 144.8383 146.28946 175.18895 178.09126 180.99358 183.8959 185.34706 217.12642 220.02875 221.4799 224.38222 250.4248 253.32712 254.77827 257.6806 260.58292 263.48523 284.08179 286.98413 288.43527 291.33759 294.23993 356.19922 359.10156 360.5527 385.4187 388.32101 389.77219 392.6745 395.57681 398.47913 422.01559 424.91791 426.36908 429.27139 432.17371 435.07605 458.61249 461.5148 462.96597 465.86829 468.77063 471.67294 497.30939 500.21173 501.66287 504.56519 507.46753 510.36984 533.90631 536.80859 538.25977 541.16211 544.06439 546.96674 568.88342 571.78577 573.23694 576.13922 579.04156 581.94385"
         y="155.52258"
         sodipodi:role="line"
         id="tspan194">YorkYCWZ33AB04.419.832.21038.3143.2178.30.900.89760.02%7.81.11981.09581.06751.03861.00920.9792</tspan><tspan
         style="font-variant:normal;font-weight:normal;font-stretch:normal;font-size:5.21999979px;font-family:Arial;-inkscape-font-specification:ArialMT;writing-mode:lr-tb;fill:#000000;fill-opacity:1;fill-rule:nonzero;stroke:none"
         x="-81.059814 -77.578072 -74.675751 -72.937492 -44.460827 -40.979088 -37.210247 -32.28257 -29.093147 -26.190828 -23.288507 -19.806768 -16.325027 19.677834 22.580154 24.031315 45.597221 48.499542 51.401863 52.853024 74.815651 77.717972 80.620293 82.071449 98.27433 101.17665 104.07897 106.98129 109.88361 111.33477 136.13133 139.03366 141.93597 144.8383 146.28946 175.18895 178.09126 180.99358 183.8959 185.34706 217.12642 220.02875 221.4799 224.38222 250.4248 253.32712 254.77827 257.6806 260.58292 263.48523 282.34146 284.07971 286.98203 288.4332 291.33551 294.23782 356.19922 359.10156 360.5527 385.4187 388.32101 389.77219 392.6745 395.57681 398.47913 422.01559 424.91791 426.36908 429.27139 432.17371 435.07605 458.61249 461.5148 462.96597 465.86829 468.77063 471.67294 497.30939 500.21173 501.66287 504.56519 507.46753 510.36984 533.90631 536.80859 538.25977 541.16211 544.06439 546.96674 568.88342 571.78577 573.23694 576.13922 579.04156 581.94385"
         y="162.0027"
         sodipodi:role="line"
         id="tspan196">YorkYCWZ33AB05.630.932.21038.3179.0185.60.930.9339-0.06%8.91.16101.13651.10761.07811.04801.0175</tspan><tspan
         style="font-variant:normal;font-weight:normal;font-stretch:normal;font-size:5.21999979px;font-family:Arial;-inkscape-font-specification:ArialMT;writing-mode:lr-tb;fill:#000000;fill-opacity:1;fill-rule:nonzero;stroke:none"
         x="-81.059814 -77.578072 -74.675751 -72.937492 -44.460827 -40.979088 -37.210247 -32.28257 -29.093147 -26.190828 -23.288507 -19.806768 -16.325027 19.677834 22.580154 24.031315 45.597221 48.499542 51.401863 52.853024 74.815651 77.717972 80.620293 82.071449 98.27433 101.17665 104.07897 106.98129 109.88361 111.33477 136.13133 139.03366 141.93597 144.8383 146.28946 175.18895 178.09126 180.99358 183.8959 185.34706 217.12642 220.02875 221.4799 224.38222 250.4248 253.32712 254.77827 257.6806 260.58292 263.48523 282.34146 284.07971 286.98203 288.4332 291.33551 294.23782 353.31882 356.22116 359.12347 360.57465 385.41714 388.31946 389.7706 392.67294 395.57526 398.47757 422.01404 424.91635 426.36752 429.26984 432.17215 435.07446 458.61093 461.51324 462.96442 465.86673 468.76904 471.67136 497.30783 500.21014 501.66132 504.56363 507.46594 510.36829 533.90472 536.80707 538.25824 541.16052 544.06287 546.96515 568.88184 571.78418 573.23535 576.13763 579.03998 581.94232"
         y="168.4828"
         sodipodi:role="line"
         id="tspan198">YorkYCWZ33AB06.744.432.21038.3214.8193.00.970.9711-0.06%10.01.20311.17811.14851.11841.08771.0565</tspan><tspan
         style="font-variant:normal;font-weight:normal;font-stretch:normal;font-size:5.21999979px;font-family:Arial;-inkscape-font-specification:ArialMT;writing-mode:lr-tb;fill:#000000;fill-opacity:1;fill-rule:nonzero;stroke:none"
         x="-81.059814 -77.578072 -74.675751 -72.937492 -44.460827 -40.979088 -37.210247 -32.28257 -29.093147 -26.190828 -23.288507 -19.806768 -16.325027 19.677834 22.580154 24.031315 45.597221 48.499542 51.401863 52.853024 74.815651 77.717972 80.620293 82.071449 98.27433 101.17665 104.07897 106.98129 109.88361 111.33477 136.13133 139.03366 141.93597 144.8383 146.28946 175.18895 178.09126 180.99358 183.8959 185.34706 217.12642 220.02875 221.4799 224.38222 250.4248 253.32712 254.77827 257.6806 260.58292 263.48523 282.34146 284.07971 286.98203 288.4332 291.33551 294.23782 353.31882 356.22116 359.12347 360.57465 385.41714 388.31946 389.7706 392.67294 395.57526 398.47757 422.01404 424.91635 426.36752 429.26984 432.17215 435.07446 458.61093 461.51324 462.96442 465.86673 468.76904 471.67136 497.30783 500.21014 501.66132 504.56363 507.46594 510.36829 533.90472 536.80707 538.25824 541.16052 544.06287 546.96515 568.88184 571.78418 573.23535 576.13763 579.03998 581.94232"
         y="174.96292"
         sodipodi:role="line"
         id="tspan200">YorkYCWZ33AB07.252.232.21038.3232.7196.90.990.9901-0.11%11.21.24941.22381.19361.16281.13151.0997</tspan><tspan
         style="font-variant:normal;font-weight:normal;font-stretch:normal;font-size:5.21999979px;font-family:Arial;-inkscape-font-specification:ArialMT;writing-mode:lr-tb;fill:#000000;fill-opacity:1;fill-rule:nonzero;stroke:none"
         x="-81.059814 -77.578072 -74.675751 -72.937492 -44.460827 -40.979088 -37.210247 -32.28257 -29.093147 -26.190828 -23.288507 -19.806768 -16.325027 19.677834 22.580154 24.031315 45.597221 48.499542 51.401863 52.853024 74.815651 77.717972 80.620293 82.071449 98.27433 101.17665 104.07897 106.98129 109.88361 111.33477 136.13133 139.03366 141.93597 144.8383 146.28946 175.18895 178.09126 180.99358 183.8959 185.34706 217.12642 220.02875 221.4799 224.38222 250.4248 253.32712 254.77827 257.6806 260.58292 263.48523 284.08179 286.98413 288.43527 291.33759 294.23993"
         y="181.44302"
         sodipodi:role="line"
         id="tspan202">YorkYCWZ33AB07.860.532.21038.3250.6200.41.011.00920.03%</tspan><tspan
         style="font-variant:normal;font-weight:normal;font-stretch:normal;font-size:5.21999979px;font-family:Arial;-inkscape-font-specification:ArialMT;writing-mode:lr-tb;fill:#000000;fill-opacity:1;fill-rule:nonzero;stroke:none"
         x="-81.059814 -77.578072 -74.675751 -72.937492 -44.460827 -40.979088 -37.210247 -32.28257 -29.093147 -26.190828 -23.288507 -19.806768 -16.325027 19.677834 22.580154 24.031315 45.597221 48.499542 51.401863 52.853024 74.815651 77.717972 80.620293 82.071449 98.27433 101.17665 104.07897 106.98129 109.88361 111.33477 136.13133 139.03366 141.93597 144.8383 146.28946 175.18895 178.09126 180.99358 183.8959 185.34706 217.12642 220.02875 221.4799 224.38222 250.4248 253.32712 254.77827 257.6806 260.58292 263.48523 284.08179 286.98413 288.43527 291.33759 294.23993"
         y="187.92313"
         sodipodi:role="line"
         id="tspan204">YorkYCWZ33AB08.979.032.21038.3286.4208.11.051.04800.02%</tspan><tspan
         style="font-variant:normal;font-weight:normal;font-stretch:normal;font-size:5.21999979px;font-family:Arial;-inkscape-font-specification:ArialMT;writing-mode:lr-tb;fill:#000000;fill-opacity:1;fill-rule:nonzero;stroke:none"
         x="-81.059814 -77.578072 -74.675751 -72.937492 -44.460827 -40.979088 -37.210247 -32.28257 -29.093147 -26.190828 -23.288507 -19.806768 -16.325027 16.797438 19.699759 22.602077 24.053238 42.715782 45.618103 48.520424 51.422741 52.873901 74.81356 77.715881 80.618202 82.069359 98.27224 101.17456 104.07688 106.9792 109.88152 111.33268 136.12924 139.03157 141.93388 144.83621 146.28737 175.18686 178.08917 180.9915 183.89381 185.34497 217.12433 220.02666 221.47781 224.38013 250.42271 253.32503 254.7762 257.67853 260.58084 263.48315 282.33936 284.07761 286.97995 288.43109 291.33344 294.23575"
         y="194.40324"
         sodipodi:role="line"
         id="tspan206">YorkYCWZ33AB010.0100.032.21038.3322.2216.21.091.0877-0.07%</tspan><tspan
         style="font-variant:normal;font-weight:normal;font-stretch:normal;font-size:5.21999979px;font-family:Arial;-inkscape-font-specification:ArialMT;writing-mode:lr-tb;fill:#000000;fill-opacity:1;fill-rule:nonzero;stroke:none"
         x="-81.059814 -77.578072 -74.675751 -72.937492 -44.460827 -40.979088 -37.210247 -32.28257 -29.093147 -26.190828 -23.288507 -19.806768 -16.325027 19.677834 22.580154 24.031315 45.597221 48.499542 51.401863 52.853024 74.815651 77.717972 80.620293 82.071449 98.27433 101.17665 104.07897 106.98129 109.88361 111.33477 136.13133 139.03366 141.93597 144.8383 146.28946 175.18895 178.09126 180.99358 183.8959 185.34706 217.12642 220.02875 221.4799 224.38222 250.4248 253.32712 254.77827 257.6806 260.58292 263.48523 284.08179 286.98413 288.43527 291.33759 294.23993"
         y="200.88335"
         sodipodi:role="line"
         id="tspan208">YorkYCWZ33AB04.419.835.01225.0155.6172.60.870.86940.05%</tspan><tspan
         style="font-variant:normal;font-weight:normal;font-stretch:normal;font-size:5.21999979px;font-family:Arial;-inkscape-font-specification:ArialMT;writing-mode:lr-tb;fill:#000000;fill-opacity:1;fill-rule:nonzero;stroke:none"
         x="-81.059814 -77.578072 -74.675751 -72.937492 -44.460827 -40.979088 -37.210247 -32.28257 -29.093147 -26.190828 -23.288507 -19.806768 -16.325027 19.677834 22.580154 24.031315 45.597221 48.499542 51.401863 52.853024 74.815651 77.717972 80.620293 82.071449 98.27433 101.17665 104.07897 106.98129 109.88361 111.33477 136.13133 139.03366 141.93597 144.8383 146.28946 175.18895 178.09126 180.99358 183.8959 185.34706 217.12642 220.02875 221.4799 224.38222 250.4248 253.32712 254.77827 257.6806 260.58292 263.48523 282.34146 284.07971 286.98203 288.4332 291.33551 294.23782"
         y="207.36346"
         sodipodi:role="line"
         id="tspan210">YorkYCWZ33AB05.630.935.01225.0194.4180.00.910.9052-0.11%</tspan><tspan
         style="font-variant:normal;font-weight:normal;font-stretch:normal;font-size:5.21999979px;font-family:Arial;-inkscape-font-specification:ArialMT;writing-mode:lr-tb;fill:#000000;fill-opacity:1;fill-rule:nonzero;stroke:none"
         x="-81.059814 -77.578072 -74.675751 -72.937492 -44.460827 -40.979088 -37.210247 -32.28257 -29.093147 -26.190828 -23.288507 -19.806768 -16.325027 19.677834 22.580154 24.031315 45.597221 48.499542 51.401863 52.853024 74.815651 77.717972 80.620293 82.071449 98.27433 101.17665 104.07897 106.98129 109.88361 111.33477 136.13133 139.03366 141.93597 144.8383 146.28946 175.18895 178.09126 180.99358 183.8959 185.34706 217.12642 220.02875 221.4799 224.38222 250.4248 253.32712 254.77827 257.6806 260.58292 263.48523 284.08179 286.98413 288.43527 291.33759 294.23993"
         y="213.84357"
         sodipodi:role="line"
         id="tspan212">YorkYCWZ33AB06.744.435.01225.0233.3187.00.940.94180.02%</tspan><tspan
         style="font-variant:normal;font-weight:normal;font-stretch:normal;font-size:5.21999979px;font-family:Arial;-inkscape-font-specification:ArialMT;writing-mode:lr-tb;fill:#000000;fill-opacity:1;fill-rule:nonzero;stroke:none"
         x="-81.059814 -77.578072 -74.675751 -72.937492 -44.460827 -40.979088 -37.210247 -32.28257 -29.093147 -26.190828 -23.288507 -19.806768 -16.325027 19.677834 22.580154 24.031315 45.597221 48.499542 51.401863 52.853024 74.815651 77.717972 80.620293 82.071449 98.27433 101.17665 104.07897 106.98129 109.88361 111.33477 136.13133 139.03366 141.93597 144.8383 146.28946 175.18895 178.09126 180.99358 183.8959 185.34706 217.12642 220.02875 221.4799 224.38222 250.4248 253.32712 254.77827 257.6806 260.58292 263.48523 282.34146 284.07971 286.98203 288.4332 291.33551 294.23782"
         y="220.32367"
         sodipodi:role="line"
         id="tspan214">YorkYCWZ33AB07.252.235.01225.0252.8190.90.960.9604-0.07%</tspan><tspan
         style="font-variant:normal;font-weight:normal;font-stretch:normal;font-size:5.21999979px;font-family:Arial;-inkscape-font-specification:ArialMT;writing-mode:lr-tb;fill:#000000;fill-opacity:1;fill-rule:nonzero;stroke:none"
         x="-81.059814 -77.578072 -74.675751 -72.937492 -44.460827 -40.979088 -37.210247 -32.28257 -29.093147 -26.190828 -23.288507 -19.806768 -16.325027 19.677834 22.580154 24.031315 45.597221 48.499542 51.401863 52.853024 74.815651 77.717972 80.620293 82.071449 98.27433 101.17665 104.07897 106.98129 109.88361 111.33477 136.13133 139.03366 141.93597 144.8383 146.28946 175.18895 178.09126 180.99358 183.8959 185.34706 217.12642 220.02875 221.4799 224.38222 250.4248 253.32712 254.77827 257.6806 260.58292 263.48523 284.08179 286.98413 288.43527 291.33759 294.23993"
         y="226.80379"
         sodipodi:role="line"
         id="tspan216">YorkYCWZ33AB07.860.535.01225.0272.2194.40.980.97920.05%</tspan><tspan
         style="font-variant:normal;font-weight:normal;font-stretch:normal;font-size:5.21999979px;font-family:Arial;-inkscape-font-specification:ArialMT;writing-mode:lr-tb;fill:#000000;fill-opacity:1;fill-rule:nonzero;stroke:none"
         x="-81.059814 -77.578072 -74.675751 -72.937492 -44.460827 -40.979088 -37.210247 -32.28257 -29.093147 -26.190828 -23.288507 -19.806768 -16.325027 19.677834 22.580154 24.031315 45.597221 48.499542 51.401863 52.853024 74.815651 77.717972 80.620293 82.071449 98.27433 101.17665 104.07897 106.98129 109.88361 111.33477 136.13133 139.03366 141.93597 144.8383 146.28946 175.18895 178.09126 180.99358 183.8959 185.34706 217.12642 220.02875 221.4799 224.38222 250.4248 253.32712 254.77827 257.6806 260.58292 263.48523 282.34146 284.07971 286.98203 288.4332 291.33551 294.23782"
         y="233.28389"
         sodipodi:role="line"
         id="tspan218">YorkYCWZ33AB08.979.035.01225.0311.1202.21.021.0175-0.02%</tspan><tspan
         style="font-variant:normal;font-weight:normal;font-stretch:normal;font-size:5.21999979px;font-family:Arial;-inkscape-font-specification:ArialMT;writing-mode:lr-tb;fill:#000000;fill-opacity:1;fill-rule:nonzero;stroke:none"
         x="-81.059814 -77.578072 -74.675751 -72.937492 -44.460827 -40.979088 -37.210247 -32.28257 -29.093147 -26.190828 -23.288507 -19.806768 -16.325027 16.797438 19.699759 22.602077 24.053238 42.715782 45.618103 48.520424 51.422741 52.873901 74.81356 77.715881 80.618202 82.069359 98.27224 101.17456 104.07688 106.9792 109.88152 111.33268 136.12924 139.03157 141.93388 144.83621 146.28737 175.18686 178.08917 180.9915 183.89381 185.34497 217.12433 220.02666 221.47781 224.38013 250.42271 253.32503 254.7762 257.67853 260.58084 263.48315 282.33936 284.07761 286.97995 288.43109 291.33344 294.23575"
         y="239.76401"
         sodipodi:role="line"
         id="tspan220">YorkYCWZ33AB010.0100.035.01225.0350.0209.91.061.0565-0.01%</tspan><tspan
         style="font-variant:normal;font-weight:normal;font-stretch:normal;font-size:5.21999979px;font-family:Arial;-inkscape-font-specification:ArialMT;writing-mode:lr-tb;fill:#000000;fill-opacity:1;fill-rule:nonzero;stroke:none"
         x="-110.39986 -106.91813 -104.01581 -101.11349 -98.211166 -95.308846 -92.406525 -91.247688 -88.637688 -87.186531 -83.704788 -82.253632 -80.515366 -79.064209 -75.295364 -72.393051 -69.783051 -68.624207 -65.721886 -61.953049 -59.050728 -57.891888 -56.733047 -55.574207 -52.671886 -50.933628 -47.451889 -44.549568 -42.81131 -41.360149 -39.908989 -36.140148 -33.237827 -31.499569 -28.889568 -25.987247 -24.536089 -20.767248 -17.864927 -16.413769 -13.511448 -11.773188 -8.0043478 -5.1020279 -3.6508679 -0.74854797 0.410292 3.3126121 6.214932 9.6966724 12.306672 16.075512 18.977833 20.136671 22.746672 24.197832 26.807833 27.966673 30.576672 32.027832 36.955513 39.857834 41.30899 44.211311 45.949574 49.71841 52.620731 55.523052 56.681892 58.420151 62.188992 65.091309 67.701309 68.860153 71.762474 73.500732 77.269569 80.751312 84.233055 85.971313 89.160728 549.60022 552.50256 553.95374 556.85602 559.75836 561.20953 564.11182 567.01416 569.91644"
         y="227.58417"
         sodipodi:role="line"
         id="tspan222">Appendix A - RecipChillerPerf Curve Data-CatalogVsCalc.xls/WaterCool-Recip-CAP-FT6/29/2006</tspan></text>
</g></svg>