<svg xmlns="http://www.w3.org/2000/svg" width="918.31" viewBox="0 0 918.31378 694.1795"><g transform="matrix(0 1.25 1.25 0-24.305-24.608)"><g fill="#c0c0c0"><path d="m198.66 77.46h6.06v395.22h-6.06v-395.22"/><path d="m432.66 77.46h6.06v395.22h-6.06v-395.22"/></g><g font-family="Arial"><text transform="matrix(0 1 1 0 23.88 19.32)" font-weight="bold" font-size="5.76"><tspan x="0" y="0">Performance Curves</tspan><tspan x="0" y="7.38">Manufacturer:</tspan></text><text transform="matrix(0 1 1 0 31.26 78.36)" font-weight="normal" font-size="4.8"><tspan x="0" y="0">York </tspan></text><text transform="matrix(0 1 1 0 38.64 19.32)" font-weight="bold" font-size="5.76"><tspan x="0" y="0">Class: </tspan></text><text transform="matrix(0 1 1 0 38.64 78.36)" font-weight="normal" font-size="4.8"><tspan x="0" y="0">Reciprocating Water Chiller </tspan></text><text transform="matrix(0 1 1 0 46.02 19.32)" font-weight="bold" font-size="5.76"><tspan x="0" y="0">Type:</tspan></text><text transform="matrix(0 1 1 0 46.02 78.36)" font-weight="normal" font-size="4.8"><tspan x="0" y="0">Water-Cooled, Electric</tspan></text><text transform="matrix(0 1 1 0 53.4 19.32)" font-weight="bold" font-size="5.76"><tspan x="0" y="0">Source of Data:</tspan></text><text transform="matrix(0 1 1 0 53.4 78.36)" font-weight="normal" font-size="4.8"><tspan x="0" y="0">YORK Millennium Liquid Chillers, 60 to 250 tons, Form 150.24-EG2 (899)</tspan><tspan x="0" y="7.38"/></text><text transform="matrix(0 1 1 0 74.16 19.32)" font-weight="bold" font-size="5.76"><tspan x="0" y="0">EnergyPlus Curve:</tspan></text><g font-size="4.8"><text transform="matrix(0 1 1 0 74.16 78.36)" font-weight="normal"><tspan x="0" y="0">RecipEIRFtCHWS=Chilled Water Supply Temperature (F)CWS=Entering Condenser Water Temperature (F)</tspan></text><text transform="matrix(0 1 1 0 81.54 78.36)" fill="#f00" font-weight="bold"><tspan x="0" y="0">English Units</tspan><tspan x="77.7" y="0">EER includes compressor power</tspan></text><g fill="#000"><text transform="matrix(0 1 1 0 88.92 156.06)" font-weight="normal"><tspan x="0" y="0">EIR = 3.413/EER</tspan><tspan x="176.52" y="6.36">Total Unit EERNormalizedEIR-FT% DiffEIR-FT</tspan><tspan x="-77.7" y="12.36">ManufacturerModelCHWSCHWS**2CWSCWS**2CHWS*CWSCapacity (tons)BTU/WattEIREIRFrom Curve</tspan><tspan x="-77.7" y="18.36">YorkYCWZ33AB0401600755625300055.314.50.240.920.9211-0.33%fedcbaAdjusted a</tspan><tspan x="-77.7" y="24.36">YorkYCWZ33AB0421764755625315057.515.00.230.890.8917-0.18%-0.000135876.72502E-050.0088717550.000140632-0.0160399680.7037190870.701619</tspan><tspan x="-77.7" y="30.36">YorkYCWZ33AB0441936755625330059.715.50.220.860.8634-0.13%1.5715E-058.40004E-060.0015942943.47937E-050.0034062480.110471781</tspan><tspan x="-77.7" y="36.36">YorkYCWZ33AB0452025755625337560.815.70.220.850.8497-0.45%r20.9997093480.002078905#N/A#N/A#N/A#N/A</tspan><tspan x="-77.7" y="42.36">YorkYCWZ33AB0462116755625345061.916.00.210.840.8363-0.15%</tspan><tspan x="-77.7" y="48.36">YorkYCWZ33AB0482304755625360064.216.50.210.810.8103-0.23%</tspan><tspan x="-77.7" y="54.36">YorkYCWZ33AB0502500755625375066.617.00.200.790.7854-0.37%</tspan><tspan x="-77.7" y="60.36">YorkYCWZ33AB0401600806400320053.813.50.250.990.9904-0.22%</tspan><tspan x="-77.7" y="66.36">YorkYCWZ33AB0421764806400336055.913.90.250.960.9596-0.46%</tspan><tspan x="-77.7" y="72.36">YorkYCWZ33AB0441936806400352058.114.40.240.930.9300-0.06%</tspan><tspan x="-77.7" y="78.36">YorkYCWZ33AB0452025806400360059.214.60.230.920.9156-0.24%</tspan><tspan x="-77.7" y="84.36">YorkYCWZ33AB0462116806400368060.314.80.230.910.9015-0.43%</tspan><tspan x="-77.7" y="90.36">YorkYCWZ33AB0482304806400384062.615.30.220.880.8741-0.19%</tspan><tspan x="-77.7" y="96.36">YorkYCWZ33AB0502500806400400064.915.80.220.850.8479-0.03%</tspan><tspan x="-77.7" y="102.36">YorkYCWZ33AB0401600857225340052.312.60.271.061.0631-0.04%</tspan><tspan x="-77.7" y="108.36">YorkYCWZ33AB0421764857225357054.413.00.261.031.03090.02%</tspan><tspan x="-77.7" y="114.36">YorkYCWZ33AB0441936857225374056.513.40.251.001.00000.00%</tspan><tspan x="-77.7" y="120.36">YorkYCWZ33AB0452025857225382557.613.60.250.990.9849-0.04%</tspan><tspan x="-77.7" y="126.36">YorkYCWZ33AB0462116857225391058.713.80.250.970.9701-0.10%</tspan><tspan x="-77.7" y="132.36">YorkYCWZ33AB0482304857225408060.914.20.240.940.9414-0.24%</tspan><tspan x="-77.7" y="138.36">YorkYCWZ33AB0502500857225425063.214.60.230.920.9137-0.44%</tspan><tspan x="-77.7" y="144.36">YorkYCWZ33AB0401600908100360050.711.70.291.151.1391-0.54%</tspan><tspan x="-77.7" y="150.36">YorkYCWZ33AB0421764908100378052.812.10.281.111.1056-0.16%</tspan><tspan x="-77.7" y="156.36">YorkYCWZ33AB0441936908100396054.912.50.271.071.07330.12%</tspan><tspan x="-77.7" y="162.36">YorkYCWZ33AB045202590810040505612.60.271.061.0575-0.56%</tspan><tspan x="-77.7" y="168.36">YorkYCWZ33AB046211690810041405712.80.271.051.0420-0.46%</tspan><tspan x="-77.7" y="174.36">YorkYCWZ33AB0482304908100432059.213.20.261.021.0119-0.32%</tspan><tspan x="-77.7" y="180.36">YorkYCWZ33AB0502500908100450061.513.60.250.990.9830-0.24%</tspan><tspan x="-77.7" y="186.36">YorkYCWZ33AB0401600959025380049.111.00.311.221.21850.02%</tspan><tspan x="-77.7" y="192.36">YorkYCWZ33AB0421764959025399051.211.30.301.191.1836-0.19%</tspan><tspan x="-77.7" y="198.36">YorkYCWZ33AB0441936959025418053.211.60.291.161.1499-0.45%</tspan><tspan x="-77.7" y="204.36">YorkYCWZ33AB0452025959025427554.311.80.291.141.1335-0.18%</tspan><tspan x="-77.7" y="210.36">YorkYCWZ33AB0462116959025437055.312.00.281.121.11740.06%</tspan><tspan x="-77.7" y="216.36">YorkYCWZ33AB0482304959025456057.512.30.281.091.0859-0.32%</tspan><tspan x="-77.7" y="222.36">YorkYCWZ33AB0502500959025475059.712.70.271.061.05560.04%</tspan></text><text transform="matrix(0 1 1 0 323.28 78.36)" font-weight="bold"><tspan x="0" y="0">Metric Units</tspan></text><text transform="matrix(0 1 1 0 329.28 332.58)" font-weight="normal"><tspan x="0" y="0">Total Unit EERNormalizedEIR-FT% DiffEIR-FT</tspan><tspan x="-254.22" y="6">ManufacturerModelCHWSCHWS**2CWSCWS**2CHWS*CWSCapacity (tons)BTU/WattEIREIRFrom Curve</tspan><tspan x="-254.22" y="12">YorkYCWZ33AB04.419.823.9570.7106.255.314.50.240.920.9211-0.33%fedcbaAdjusted a</tspan><tspan x="-254.22" y="18">YorkYCWZ33AB05.630.923.9570.7132.757.515.00.230.890.8917-0.18%-0.0004402180.0002178910.0158902920.000455648-0.0204972120.548077280.545977</tspan><tspan x="-254.22" y="24">YorkYCWZ33AB06.744.423.9570.7159.359.715.50.220.860.8634-0.13%5.09167E-052.72161E-050.0016468050.0001127320.0022224220.026345877</tspan><tspan x="-254.22" y="30">YorkYCWZ33AB07.252.223.9570.7172.560.815.70.220.850.8497-0.45%r20.9997093480.002078905#N/A#N/A#N/A#N/A</tspan><tspan x="-254.22" y="36">YorkYCWZ33AB07.860.523.9570.7185.861.916.00.210.840.8363-0.15%</tspan><tspan x="-254.22" y="42">YorkYCWZ33AB08.979.023.9570.7212.364.216.50.210.810.8103-0.23%</tspan><tspan x="-254.22" y="48">YorkYCWZ33AB010.0100.023.9570.7238.966.617.00.200.790.7854-0.37%</tspan><tspan x="-254.22" y="54">YorkYCWZ33AB04.419.826.7711.1118.553.813.50.250.990.9904-0.22%</tspan><tspan x="-254.22" y="60">YorkYCWZ33AB05.630.926.7711.1148.155.913.90.250.960.9596-0.46%</tspan><tspan x="-254.22" y="66">YorkYCWZ33AB06.744.426.7711.1177.858.114.40.240.930.9300-0.06%</tspan><tspan x="-254.22" y="72">YorkYCWZ33AB07.252.226.7711.1192.659.214.60.230.920.9156-0.24%</tspan><tspan x="-254.22" y="78">YorkYCWZ33AB07.860.526.7711.1207.460.314.80.230.910.9015-0.43%</tspan><tspan x="-254.22" y="84">YorkYCWZ33AB08.979.026.7711.1237.062.615.30.220.880.8741-0.19%</tspan><tspan x="-254.22" y="90">YorkYCWZ33AB010.0100.026.7711.1266.764.915.80.220.850.8479-0.03%</tspan><tspan x="-254.22" y="96">YorkYCWZ33AB04.419.829.4867.0130.952.312.60.271.061.0631-0.04%</tspan><tspan x="-254.22" y="102">YorkYCWZ33AB05.630.929.4867.0163.654.413.00.261.031.03090.02%</tspan><tspan x="-254.22" y="108">YorkYCWZ33AB06.744.429.4867.0196.356.513.40.251.001.00000.00%COP=EER/3.413=3.926164665</tspan><tspan x="-254.22" y="114">YorkYCWZ33AB07.252.229.4867.0212.757.613.60.250.990.9849-0.04%</tspan><tspan x="-254.22" y="120">YorkYCWZ33AB07.860.529.4867.0229.058.713.80.250.970.9701-0.10%</tspan><tspan x="-254.22" y="126">YorkYCWZ33AB08.979.029.4867.0261.760.914.20.240.940.9414-0.24%</tspan><tspan x="-254.22" y="132">YorkYCWZ33AB010.0100.029.4867.0294.463.214.60.230.920.9137-0.44%</tspan><tspan x="-254.22" y="138">YorkYCWZ33AB04.419.832.21038.3143.250.711.70.291.151.1391-0.54%</tspan><tspan x="-254.22" y="144">YorkYCWZ33AB05.630.932.21038.3179.052.812.10.281.111.1056-0.16%</tspan><tspan x="-254.22" y="150">YorkYCWZ33AB06.744.432.21038.3214.854.912.50.271.071.07330.12%</tspan><tspan x="-254.22" y="156">YorkYCWZ33AB07.252.232.21038.3232.75612.60.271.061.0575-0.56%</tspan><tspan x="-254.22" y="162">YorkYCWZ33AB07.860.532.21038.3250.65712.80.271.051.0420-0.46%</tspan><tspan x="-254.22" y="168">YorkYCWZ33AB08.979.032.21038.3286.459.213.20.261.021.0119-0.32%</tspan><tspan x="-254.22" y="174">YorkYCWZ33AB010.0100.032.21038.3322.261.513.60.250.990.9830-0.24%</tspan><tspan x="-254.22" y="180">YorkYCWZ33AB04.419.835.01225.0155.649.111.00.311.221.21850.02%</tspan><tspan x="-254.22" y="186">YorkYCWZ33AB05.630.935.01225.0194.451.211.30.301.191.1836-0.19%</tspan><tspan x="-254.22" y="192">YorkYCWZ33AB06.744.435.01225.0233.353.211.60.291.161.1499-0.45%</tspan><tspan x="-254.22" y="198">YorkYCWZ33AB07.252.235.01225.0252.854.311.80.291.141.1335-0.18%</tspan><tspan x="-254.22" y="204">YorkYCWZ33AB07.860.535.01225.0272.255.312.00.281.121.11740.06%</tspan><tspan x="-254.22" y="210">YorkYCWZ33AB08.979.035.01225.0311.157.512.30.281.091.0859-0.32%</tspan><tspan x="-254.22" y="216">YorkYCWZ33AB010.0100.035.01225.0350.059.712.70.271.061.05560.04%</tspan><tspan x="-278.1" y="244.74">Appendix A - RecipChillerPerf Curve Data-CatalogVsCalc.xls/WaterCool-Recip-EIR-FT6/29/2006</tspan></text></g></g></g></g></svg>