<svg xmlns="http://www.w3.org/2000/svg" width="912.67" height="716.07" viewBox="0 0 912.66644 716.07428"><g transform="matrix(0 1.25 1.25 0-24.393-24.771)"><g fill="#c0c0c0"><path d="m205.2 82.86h6.54v349.32h-6.54v-349.32"/><path d="m464.4 82.86h6.54v349.32h-6.54v-349.32"/></g><g font-family="Arial"><text transform="matrix(0 1 1 0 24.36 19.38)" font-weight="bold" font-size="6.24"><tspan x="0" y="0">Performance Curves</tspan><tspan x="0" y="7.98">Manufacturer:</tspan></text><text transform="matrix(0 1 1 0 32.34 83.82)" font-weight="normal" font-size="5.22"><tspan x="0" y="0">York</tspan></text><text transform="matrix(0 1 1 0 40.32 19.38)" font-weight="bold" font-size="6.24"><tspan x="0" y="0">Class: </tspan></text><text transform="matrix(0 1 1 0 40.32 83.82)" font-weight="normal" font-size="5.22"><tspan x="0" y="0">Reciprocating Water Chiller </tspan></text><text transform="matrix(0 1 1 0 48.3 19.38)" font-weight="bold" font-size="6.24"><tspan x="0" y="0">Type:</tspan></text><text transform="matrix(0 1 1 0 48.3 83.82)" font-weight="normal" font-size="5.22"><tspan x="0" y="0">Water-Cooled, Electric</tspan></text><text transform="matrix(0 1 1 0 56.28 19.38)" font-weight="bold" font-size="6.24"><tspan x="0" y="0">Source of Data:</tspan></text><text transform="matrix(0 1 1 0 56.28 83.82)" font-weight="normal" font-size="5.22"><tspan x="0" y="0">YORK Millennium Liquid Chillers, 60 to 250 tons, Form 150.24-EG2 (899)</tspan><tspan x="0" y="7.98"/></text><text transform="matrix(0 1 1 0 78.72 19.38)" font-weight="bold" font-size="6.24"><tspan x="0" y="0">EnergyPlus Curve:</tspan></text><g font-size="5.22"><text transform="matrix(0 1 1 0 78.72 83.82)" font-weight="normal"><tspan x="0" y="0">RecipCapFtCHWS=Chilled Water Supply Temperature (F)CWS=Entering Condenser Water Temperature (F)</tspan></text><text transform="matrix(0 1 1 0 86.7 83.82)" font-weight="bold"><tspan x="0" y="0">English Units</tspan></text><text transform="matrix(0 1 1 0 93.6 365.82)" font-weight="normal"><tspan x="0" y="0">NormalizedCAP-FT% DiffCAP-FT</tspan><tspan x="-282" y="6.48">ManufacturerModelCHWSCHWS**2CWSCWS**2CHWS*CWSCapacity (tons)CAPFrom Curve</tspan><tspan x="-282" y="12.96">YorkYCWZ33AB0401600755625300055.30.9790.97870.00%fedcbaAdjusted a</tspan><tspan x="-282" y="19.44">YorkYCWZ33AB0421764755625315057.51.0181.0169-0.08%-6.11884E-05-1.08362E-05-0.0011742820.0001036170.0151978880.5378014920.537601492</tspan><tspan x="-282" y="25.92">YorkYCWZ33AB0441936755625330059.71.0571.0560-0.06%3.53229E-061.88809E-060.0003583517.82061E-060.0007656260.024830849</tspan><tspan x="-282" y="32.401">YorkYCWZ33AB0452025755625337560.81.0761.0758-0.03%r20.9999665060.000467278#N/A#N/A#N/A#N/A</tspan><tspan x="-282" y="38.881">YorkYCWZ33AB0462116755625345061.91.0961.09580.02%</tspan><tspan x="-282" y="45.36">YorkYCWZ33AB0482304755625360064.21.1361.13650.02%</tspan><tspan x="-282" y="51.841">YorkYCWZ33AB0502500755625375066.61.1791.1781-0.06%</tspan><tspan x="-282" y="58.32">YorkYCWZ33AB0401600806400320053.80.9520.95220.00%</tspan><tspan x="-282" y="64.801">YorkYCWZ33AB0421764806400336055.90.9890.98980.04%</tspan><tspan x="-282" y="71.28">YorkYCWZ33AB0441936806400352058.11.0281.0282-0.01%</tspan><tspan x="-282" y="77.76">YorkYCWZ33AB0452025806400360059.21.0481.04780.00%</tspan><tspan x="-282" y="84.24">YorkYCWZ33AB0462116806400368060.31.0671.06750.02%</tspan><tspan x="-282" y="90.72">YorkYCWZ33AB0482304806400384062.61.1081.1076-0.04% </tspan><tspan x="-282" y="97.2">YorkYCWZ33AB0502500806400400064.91.1491.1485-0.02%</tspan><tspan x="-282" y="103.68">YorkYCWZ33AB0401600857225340052.30.9260.9252-0.05%</tspan><tspan x="-282" y="110.16">YorkYCWZ33AB0421764857225357054.40.9630.9621-0.07%</tspan><tspan x="-282" y="116.64">YorkYCWZ33AB0441936857225374056.51.0001.00000.00%</tspan><tspan x="-282" y="123.12">YorkYCWZ33AB0452025857225382557.61.0191.0192-0.03%</tspan><tspan x="-282" y="129.6">YorkYCWZ33AB0462116857225391058.71.0391.0386-0.03%</tspan><tspan x="-282" y="136.08">YorkYCWZ33AB0482304857225408060.91.0781.07810.02%</tspan><tspan x="-282" y="142.56">YorkYCWZ33AB0502500857225425063.21.1191.1184-0.02%</tspan><tspan x="-282" y="149.04">YorkYCWZ33AB0401600908100360050.70.8970.89760.02%</tspan><tspan x="-282" y="155.52">YorkYCWZ33AB0421764908100378052.80.9350.9339-0.06%</tspan><tspan x="-282" y="162">YorkYCWZ33AB0441936908100396054.90.9720.9711-0.06%</tspan><tspan x="-282" y="168.48">YorkYCWZ33AB04520259081004050560.9910.9901-0.11%</tspan><tspan x="-282" y="174.96">YorkYCWZ33AB04621169081004140571.0091.00920.03%</tspan><tspan x="-282" y="181.44">YorkYCWZ33AB0482304908100432059.21.0481.04800.02%</tspan><tspan x="-282" y="187.92">YorkYCWZ33AB0502500908100450061.51.0881.0877-0.07%</tspan><tspan x="-282" y="194.4">YorkYCWZ33AB0401600959025380049.10.8690.86940.05%</tspan><tspan x="-282" y="200.88">YorkYCWZ33AB0421764959025399051.20.9060.9052-0.11%</tspan><tspan x="-282" y="207.36">YorkYCWZ33AB0441936959025418053.20.9420.94180.02%</tspan><tspan x="-282" y="213.84">YorkYCWZ33AB0452025959025427554.30.9610.9604-0.07%</tspan><tspan x="-282" y="220.32">YorkYCWZ33AB0462116959025437055.30.9790.97920.05%</tspan><tspan x="-282" y="226.8">YorkYCWZ33AB0482304959025456057.51.0181.0175-0.02%</tspan><tspan x="-282" y="233.28">YorkYCWZ33AB0502500959025475059.71.0571.0565-0.01%</tspan></text><text transform="matrix(0 1 1 0 339.84 83.82)" font-weight="bold"><tspan x="0" y="0">Metric Units</tspan></text><text transform="matrix(0 1 1 0 346.32 164.88)" font-weight="normal"><tspan x="0" y="0">CHWS=Chilled Water Supply Temperature (C)CWS=Entering Condenser Water Temperature (C)</tspan><tspan x="200.94" y="6.48">NormalizedCAP-FT% DiffCAP-FT</tspan><tspan x="-81.06" y="12.96">ManufacturerModelCHWSCHWS**2CWSCWS**2CHWS*CWSCapacity (kW)CAPFrom Curve</tspan><tspan x="-81.06" y="19.44">YorkYCWZ33AB04.419.823.9570.7106.2194.40.980.97870.00%fedcbaAdjusted a</tspan><tspan x="-81.06" y="25.92">YorkYCWZ33AB05.630.923.9570.7132.7202.21.021.0169-0.08%-0.00019825-3.51093E-05-0.0068864870.0003357180.0357683881.0189071981.018707198</tspan><tspan x="-81.06" y="32.401">YorkYCWZ33AB06.744.423.9570.7159.3209.91.061.0560-0.06%1.14446E-056.1174E-060.0003701542.53388E-050.0004995360.005921788</tspan><tspan x="-81.06" y="38.881">YorkYCWZ33AB07.252.223.9570.7172.5213.81.081.0758-0.03%r20.9999665060.000467278#N/A#N/A#N/A#N/A</tspan><tspan x="-81.06" y="45.36">YorkYCWZ33AB07.860.523.9570.7185.8217.61.101.09580.02%</tspan><tspan x="-81.06" y="51.841">YorkYCWZ33AB08.979.023.9570.7212.3225.71.141.13650.02%</tspan><tspan x="-81.06" y="58.32">YorkYCWZ33AB010.0100.023.9570.7238.9234.21.181.1781-0.06%</tspan><tspan x="-81.06" y="64.801">YorkYCWZ33AB04.419.826.7711.1118.5189.20.950.95220.00%</tspan><tspan x="-81.06" y="71.28">YorkYCWZ33AB05.630.926.7711.1148.1196.50.990.98980.04%</tspan><tspan x="-81.06" y="77.76">YorkYCWZ33AB06.744.426.7711.1177.8204.31.031.0282-0.01%</tspan><tspan x="-81.06" y="84.24">YorkYCWZ33AB07.252.226.7711.1192.6208.11.051.04780.00%</tspan><tspan x="-81.06" y="90.72">YorkYCWZ33AB07.860.526.7711.1207.4212.01.071.06750.02%</tspan><tspan x="-81.06" y="97.2">YorkYCWZ33AB08.979.026.7711.1237.0220.11.111.1076-0.04%</tspan><tspan x="-81.06" y="103.68">YorkYCWZ33AB010.0100.026.7711.1266.7228.21.151.1485-0.02%</tspan><tspan x="-81.06" y="110.16">YorkYCWZ33AB04.419.829.4867.0130.9183.90.930.9252-0.05%CHWSCWS</tspan><tspan x="-81.06" y="116.64">YorkYCWZ33AB05.630.929.4867.0163.6191.30.960.9621-0.07%21.523.926.729.432.235.0</tspan><tspan x="-81.06" y="123.12">YorkYCWZ33AB06.6744.429.44867.0196.3198.71.001.00000.00%3.20.95870.93690.91110.88470.85780.8304</tspan><tspan x="-81.06" y="129.6">YorkYCWZ33AB07.252.229.4867.0212.7202.51.021.0192-0.03%4.41.00110.97870.95220.92520.89760.8694</tspan><tspan x="-81.06" y="136.08">YorkYCWZ33AB07.860.529.4867.0229.0206.41.041.0386-0.03%5.61.03981.01690.98980.96210.93390.9052</tspan><tspan x="-81.06" y="142.56">YorkYCWZ33AB08.979.029.4867.0261.7214.11.081.07810.02%6.71.07941.05601.02821.00000.97110.9418</tspan><tspan x="-81.06" y="149.04">YorkYCWZ33AB010.0100.029.4867.0294.4222.21.121.1184-0.02%7.21.09951.07581.04781.01920.99010.9604</tspan><tspan x="-81.06" y="155.52">YorkYCWZ33AB04.419.832.21038.3143.2178.30.900.89760.02%7.81.11981.09581.06751.03861.00920.9792</tspan><tspan x="-81.06" y="162">YorkYCWZ33AB05.630.932.21038.3179.0185.60.930.9339-0.06%8.91.16101.13651.10761.07811.04801.0175</tspan><tspan x="-81.06" y="168.48">YorkYCWZ33AB06.744.432.21038.3214.8193.00.970.9711-0.06%10.01.20311.17811.14851.11841.08771.0565</tspan><tspan x="-81.06" y="174.96">YorkYCWZ33AB07.252.232.21038.3232.7196.90.990.9901-0.11%11.21.24941.22381.19361.16281.13151.0997</tspan><tspan x="-81.06" y="181.44">YorkYCWZ33AB07.860.532.21038.3250.6200.41.011.00920.03%</tspan><tspan x="-81.06" y="187.92">YorkYCWZ33AB08.979.032.21038.3286.4208.11.051.04800.02%</tspan><tspan x="-81.06" y="194.4">YorkYCWZ33AB010.0100.032.21038.3322.2216.21.091.0877-0.07%</tspan><tspan x="-81.06" y="200.88">YorkYCWZ33AB04.419.835.01225.0155.6172.60.870.86940.05%</tspan><tspan x="-81.06" y="207.36">YorkYCWZ33AB05.630.935.01225.0194.4180.00.910.9052-0.11%</tspan><tspan x="-81.06" y="213.84">YorkYCWZ33AB06.744.435.01225.0233.3187.00.940.94180.02%</tspan><tspan x="-81.06" y="220.32">YorkYCWZ33AB07.252.235.01225.0252.8190.90.960.9604-0.07%</tspan><tspan x="-81.06" y="226.8">YorkYCWZ33AB07.860.535.01225.0272.2194.40.980.97920.05%</tspan><tspan x="-81.06" y="233.28">YorkYCWZ33AB08.979.035.01225.0311.1202.21.021.0175-0.02%</tspan><tspan x="-81.06" y="239.76">YorkYCWZ33AB010.0100.035.01225.0350.0209.91.061.0565-0.01%</tspan><tspan x="549.6">6/29/2006</tspan></text></g></g></g></svg>