<?xml version="1.0" encoding="UTF-8" standalone="no"?>
<!-- Created with Inkscape (http://www.inkscape.org/) -->

<svg
   xmlns:dc="http://purl.org/dc/elements/1.1/"
   xmlns:cc="http://creativecommons.org/ns#"
   xmlns:rdf="http://www.w3.org/1999/02/22-rdf-syntax-ns#"
   xmlns:svg="http://www.w3.org/2000/svg"
   xmlns="http://www.w3.org/2000/svg"
   xmlns:sodipodi="http://sodipodi.sourceforge.net/DTD/sodipodi-0.dtd"
   xmlns:inkscape="http://www.inkscape.org/namespaces/inkscape"
   id="svg2"
   version="1.1"
   inkscape:version="0.91 r"
   width="918.31378"
   height="694.1795"
   xml:space="preserve"
   sodipodi:docname="appendix_a_pg2.svg"><metadata
     id="metadata8"><rdf:RDF><cc:Work
         rdf:about=""><dc:format>image/svg+xml</dc:format><dc:type
           rdf:resource="http://purl.org/dc/dcmitype/StillImage" /><dc:title /></cc:Work></rdf:RDF></metadata><defs
     id="defs6" /><sodipodi:namedview
     pagecolor="#ffffff"
     bordercolor="#666666"
     borderopacity="1"
     objecttolerance="10"
     gridtolerance="10"
     guidetolerance="10"
     inkscape:pageopacity="0"
     inkscape:pageshadow="2"
     inkscape:window-width="640"
     inkscape:window-height="480"
     id="namedview4"
     showgrid="false"
     inkscape:zoom="0.30849673"
     inkscape:cx="470.69531"
     inkscape:cy="336.2877"
     inkscape:window-x="0"
     inkscape:window-y="0"
     inkscape:window-maximized="0"
     inkscape:current-layer="g10" /><g
     id="g10"
     inkscape:groupmode="layer"
     inkscape:label="Appendix A - Appendix A"
     transform="matrix(0,1.25,1.25,0,-24.304688,-24.608203)"><path
       d="m 198.66,77.46 6.06,0 0,395.22 -6.06,0 0,-395.22 z"
       style="fill:#c0c0c0;fill-opacity:1;fill-rule:nonzero;stroke:none"
       id="path12"
       inkscape:connector-curvature="0" /><path
       d="m 432.66,77.46 6.06,0 0,395.22 -6.06,0 0,-395.22 z"
       style="fill:#c0c0c0;fill-opacity:1;fill-rule:nonzero;stroke:none"
       id="path14"
       inkscape:connector-curvature="0" /><text
       transform="matrix(0,1,1,0,23.88,19.32)"
       id="text16"><tspan
         style="font-variant:normal;font-weight:bold;font-stretch:normal;font-size:5.76000023px;font-family:Arial;-inkscape-font-specification:Arial-BoldMT;writing-mode:lr-tb;fill:#000000;fill-opacity:1;fill-rule:nonzero;stroke:none"
         x="0 3.8419199 7.0444798 9.28512 11.2032 14.72256 16.9632 22.083839 25.2864 28.805759 32.00832 35.21088 36.81216 40.970879 44.490238 46.730881 49.933441 53.136002"
         y="0"
         sodipodi:role="line"
         id="tspan18">Performance Curves</tspan><tspan
         style="font-variant:normal;font-weight:bold;font-stretch:normal;font-size:5.76000023px;font-family:Arial;-inkscape-font-specification:Arial-BoldMT;writing-mode:lr-tb;fill:#000000;fill-opacity:1;fill-rule:nonzero;stroke:none"
         x="0 4.79808 8.0006399 11.52 15.03936 16.957439 20.16 23.36256 25.28064 28.799999 31.04064 34.243198 36.483841"
         y="7.3802881"
         sodipodi:role="line"
         id="tspan20">Manufacturer:</tspan></text>
<text
       transform="matrix(0,1,1,0,31.26,78.36)"
       id="text22"><tspan
         style="font-variant:normal;font-weight:normal;font-stretch:normal;font-size:4.80000019px;font-family:Arial;-inkscape-font-specification:ArialMT;writing-mode:lr-tb;fill:#000000;fill-opacity:1;fill-rule:nonzero;stroke:none"
         x="0 3.2016001 5.8704 7.4688001 157.25903"
         y="0"
         sodipodi:role="line"
         id="tspan24">York </tspan></text>
<text
       transform="matrix(0,1,1,0,38.64,19.32)"
       id="text26"><tspan
         style="font-variant:normal;font-weight:bold;font-stretch:normal;font-size:5.76000023px;font-family:Arial;-inkscape-font-specification:Arial-BoldMT;writing-mode:lr-tb;fill:#000000;fill-opacity:1;fill-rule:nonzero;stroke:none"
         x="0 4.15872 5.7600002 8.9625597 12.16512 15.36768 17.285761"
         y="0"
         sodipodi:role="line"
         id="tspan28">Class: </tspan></text>
<text
       transform="matrix(0,1,1,0,38.64,78.36)"
       id="text30"><tspan
         style="font-variant:normal;font-weight:normal;font-stretch:normal;font-size:4.80000019px;font-family:Arial;-inkscape-font-specification:ArialMT;writing-mode:lr-tb;fill:#000000;fill-opacity:1;fill-rule:nonzero;stroke:none"
         x="0 3.4656 6.1343999 8.5344 9.6000004 12.2688 13.8672 16.535999 18.936001 21.604799 22.939199 24.004801 26.673599 29.3424 30.6768 35.208 37.876801 39.211201 41.880001 43.478401 44.812801 48.2784 50.947201 52.012798 53.0784 54.144001 56.812801 157.25089"
         y="0"
         sodipodi:role="line"
         id="tspan32">Reciprocating Water Chiller </tspan></text>
<text
       transform="matrix(0,1,1,0,46.02,19.32)"
       id="text34"><tspan
         style="font-variant:normal;font-weight:bold;font-stretch:normal;font-size:5.76000023px;font-family:Arial;-inkscape-font-specification:Arial-BoldMT;writing-mode:lr-tb;fill:#000000;fill-opacity:1;fill-rule:nonzero;stroke:none"
         x="0 3.5193601 6.72192 10.24128 13.44384"
         y="0"
         sodipodi:role="line"
         id="tspan36">Type:</tspan></text>
<text
       transform="matrix(0,1,1,0,46.02,78.36)"
       id="text38"><tspan
         style="font-variant:normal;font-weight:normal;font-stretch:normal;font-size:4.80000019px;font-family:Arial;-inkscape-font-specification:ArialMT;writing-mode:lr-tb;fill:#000000;fill-opacity:1;fill-rule:nonzero;stroke:none"
         x="0 4.5311999 7.1999998 8.5344 11.2032 12.8016 14.4 17.865601 20.534401 23.203199 24.268801 26.937599 29.6064 30.9408 32.2752 35.476799 36.5424 39.211201 41.611198 42.945599 44.543999 45.6096"
         y="0"
         sodipodi:role="line"
         id="tspan40">Water-Cooled, Electric</tspan></text>
<text
       transform="matrix(0,1,1,0,53.4,19.32)"
       id="text42"><tspan
         style="font-variant:normal;font-weight:bold;font-stretch:normal;font-size:5.76000023px;font-family:Arial;-inkscape-font-specification:Arial-BoldMT;writing-mode:lr-tb;fill:#000000;fill-opacity:1;fill-rule:nonzero;stroke:none"
         x="0 3.8419199 7.36128 10.88064 13.12128 16.323839 19.5264 21.12768 24.647039 26.565121 28.166401 32.325119 35.527679 37.445759 40.648319"
         y="0"
         sodipodi:role="line"
         id="tspan44">Source of Data:</tspan></text>
<text
       transform="matrix(0,1,1,0,53.4,78.36)"
       id="text46"><tspan
         style="font-variant:normal;font-weight:normal;font-stretch:normal;font-size:4.80000019px;font-family:Arial;-inkscape-font-specification:ArialMT;writing-mode:lr-tb;fill:#000000;fill-opacity:1;fill-rule:nonzero;stroke:none"
         x="0 3.2016001 6.9359999 10.4016 13.6032 14.9376 18.936001 20.0016 21.0672 22.132799 24.8016 27.4704 30.1392 31.2048 33.8736 37.872002 39.206402 41.875198 42.9408 45.6096 48.2784 49.344002 52.012798 53.347198 56.812801 59.481602 60.547199 61.612801 62.678398 65.347198 66.945602 69.345596 70.68 72.014397 74.683197 77.351997 78.686401 80.020798 82.689598 84.024002 86.692802 89.361603 92.030403 93.364799 94.699203 97.367996 100.0368 102.4368 103.7712 105.1056 108.0384 110.7072 112.3056 116.304 117.6384 120.3072 122.976 125.6448 126.9792 129.64799 132.3168 133.91521 137.11681 140.8512 143.52 144.8544 146.4528 149.1216 151.79041 154.4592"
         y="0"
         sodipodi:role="line"
         id="tspan48">YORK Millennium Liquid Chillers, 60 to 250 tons, Form 150.24-EG2 (899)</tspan><tspan
         style="font-variant:normal;font-weight:normal;font-stretch:normal;font-size:4.80000019px;font-family:Arial;-inkscape-font-specification:ArialMT;writing-mode:lr-tb;fill:#000000;fill-opacity:1;fill-rule:nonzero;stroke:none"
         x="0"
         y="7.3800001"
         id="tspan50" /></text>
<text
       transform="matrix(0,1,1,0,74.16,19.32)"
       id="text52"><tspan
         style="font-variant:normal;font-weight:bold;font-stretch:normal;font-size:5.76000023px;font-family:Arial;-inkscape-font-specification:Arial-BoldMT;writing-mode:lr-tb;fill:#000000;fill-opacity:1;fill-rule:nonzero;stroke:none"
         x="0 3.8419199 7.36128 10.56384 12.80448 16.323839 19.5264 23.36832 24.969601 28.48896 31.691521 33.292801 37.451519 40.970879 43.211521 46.414082 49.616638"
         y="0"
         sodipodi:role="line"
         id="tspan54">EnergyPlus Curve:</tspan></text>
<text
       transform="matrix(0,1,1,0,74.16,78.36)"
       id="text56"><tspan
         style="font-variant:normal;font-weight:normal;font-stretch:normal;font-size:4.80000019px;font-family:Arial;-inkscape-font-specification:ArialMT;writing-mode:lr-tb;fill:#000000;fill-opacity:1;fill-rule:nonzero;stroke:none"
         x="0 3.4656 6.1343999 8.5344 9.6000004 12.2688 15.4704 16.8048 20.270399 23.203199 77.698563 81.164162 84.629761 89.160957 92.362556 95.165756 98.631363 101.30016 102.36576 103.43136 104.49696 107.16576 109.83456 111.16896 115.70016 118.36896 119.70336 122.37216 123.97056 125.30496 128.50656 131.17535 133.84416 136.51295 137.57857 139.97856 141.31296 144.24576 146.91457 150.91296 153.58176 156.25056 157.84895 160.51776 161.85216 164.52097 166.11935 168.78816 170.12256 171.72096 174.65376 184.01041 187.476 192.0072 195.2088 198.01199 201.21359 203.8824 205.2168 207.8856 209.48399 210.54961 213.2184 215.88721 217.2216 220.68719 223.356 226.0248 228.6936 231.3624 234.0312 236.4312 239.10001 240.69839 242.03281 246.564 249.2328 250.5672 253.23599 254.8344 256.16879 259.10159 261.77039 265.7688 268.43759 271.10641 272.7048 275.3736 276.70801 279.3768 280.97519 283.64401 284.97839 286.57681 289.50961"
         y="0"
         sodipodi:role="line"
         id="tspan58">RecipEIRFtCHWS=Chilled Water Supply Temperature (F)CWS=Entering Condenser Water Temperature (F)</tspan></text>
<text
       transform="matrix(0,1,1,0,81.54,78.36)"
       id="text60"><tspan
         style="font-variant:normal;font-weight:bold;font-stretch:normal;font-size:4.80000019px;font-family:Arial;-inkscape-font-specification:Arial-BoldMT;writing-mode:lr-tb;fill:#000000;fill-opacity:1;fill-rule:nonzero;stroke:none"
         x="0 3.2016001 6.1343999 9.0671997 10.4016 11.736 14.4048 17.337601 18.672001 22.1376 25.0704 26.4048 28.003201"
         y="0"
         sodipodi:role="line"
         id="tspan62">English Units</tspan><tspan
         style="font-variant:normal;font-weight:bold;font-stretch:normal;font-size:4.80000019px;font-family:Arial;-inkscape-font-specification:Arial-BoldMT;writing-mode:lr-tb;fill:#ff0000;fill-opacity:1;fill-rule:nonzero;stroke:none"
         x="77.699997 80.901604 84.103203 87.568802 88.903198 90.237602 93.170403 95.839203 97.173599 100.1064 103.0392 105.708 108.3768 109.7112 112.38 115.3128 119.58 122.5128 124.38 127.0488 129.71761 132.3864 135.3192 137.1864 138.5208 141.4536 144.3864 148.1208 150.7896"
         y="0"
         sodipodi:role="line"
         id="tspan64">EER includes compressor power</tspan></text>
<text
       transform="matrix(0,1,1,0,88.92,156.06)"
       id="text66"><tspan
         style="font-variant:normal;font-weight:normal;font-stretch:normal;font-size:4.80000019px;font-family:Arial;-inkscape-font-specification:ArialMT;writing-mode:lr-tb;fill:#000000;fill-opacity:1;fill-rule:nonzero;stroke:none"
         x="0 3.2016001 4.5359998 8.0016003 9.3360004 12.1392 13.4736 16.142401 17.476801 20.145599 22.8144 25.4832 26.8176 30.019199 33.220798"
         y="0"
         sodipodi:role="line"
         id="tspan68">EIR = 3.413/EER</tspan><tspan
         style="font-variant:normal;font-weight:normal;font-stretch:normal;font-size:4.80000019px;font-family:Arial;-inkscape-font-specification:ArialMT;writing-mode:lr-tb;fill:#000000;fill-opacity:1;fill-rule:nonzero;stroke:none"
         x="176.52 179.4528 182.1216 183.45599 186.1248 187.1904 188.5248 191.9904 194.65919 195.72479 197.0592 198.3936 201.5952 204.7968 255.65855 259.12415 261.79297 263.39136 267.38977 270.05856 271.12415 272.18976 274.58975 277.25854 300.11328 303.31488 304.64929 308.11487 309.71329 312.64609 332.57471 336.84192 338.17633 341.64191 342.70752 344.04193 371.39471 374.59631 375.93073 379.39633 380.99472 383.92752"
         y="6.3600001"
         sodipodi:role="line"
         id="tspan70">Total Unit EERNormalizedEIR-FT% DiffEIR-FT</tspan><tspan
         style="font-variant:normal;font-weight:normal;font-stretch:normal;font-size:4.80000019px;font-family:Arial;-inkscape-font-specification:ArialMT;writing-mode:lr-tb;fill:#000000;fill-opacity:1;fill-rule:nonzero;stroke:none"
         x="-77.699997 -73.701599 -71.032799 -68.363998 -65.695198 -64.360802 -61.692001 -59.292 -57.9576 -55.288799 -53.690399 -51.021599 -41.882881 -37.88448 -35.215679 -32.546879 -29.87808 9.7142401 13.17984 16.645439 21.17664 29.753281 33.21888 36.684479 41.215679 44.417278 46.284481 48.15168 66.350403 69.816002 74.347198 86.750397 90.216003 94.7472 97.948799 99.816002 101.6832 108.408 111.8736 115.3392 119.8704 123.072 124.9392 128.4048 132.936 140.26656 143.73216 146.40096 149.06976 151.73856 154.13857 155.20416 156.53856 158.93855 160.27296 161.87135 163.20576 165.87456 168.54337 170.94336 187.18369 190.38528 193.31808 196.78368 198.11807 202.64928 205.31808 206.65248 236.02608 239.22768 240.56207 271.84607 275.04767 276.38208 290.26608 293.19888 294.79727 297.46609 301.46448 302.79889 306.26447 308.93329 310.53168 312.93167"
         y="12.36"
         sodipodi:role="line"
         id="tspan72">ManufacturerModelCHWSCHWS**2CWSCWS**2CHWS*CWSCapacity (tons)BTU/WattEIREIRFrom Curve</tspan><tspan
         style="font-variant:normal;font-weight:normal;font-stretch:normal;font-size:4.80000019px;font-family:Arial;-inkscape-font-specification:ArialMT;writing-mode:lr-tb;fill:#000000;fill-opacity:1;fill-rule:nonzero;stroke:none"
         x="-77.699997 -74.498398 -71.829597 -70.231201 -41.880959 -38.679359 -35.21376 -30.68256 -27.74976 -25.080959 -22.412161 -19.21056 -16.008961 19.3176 21.986401 40.436161 43.104961 45.773762 48.442558 72.473282 75.142082 93.951843 96.620644 99.289436 101.95824 125.98896 128.65776 131.32655 133.99536 163.12608 165.79488 168.46368 169.79808 198.94464 201.61343 204.28224 205.61664 234.7632 237.43201 238.7664 241.4352 270.58176 273.25055 274.58496 277.25375 301.12033 303.78912 305.12354 307.79233 310.46112 313.12991 330.33743 331.93585 334.60464 335.93903 338.60785 341.27664 387.33505 420.63599 453.81503 487.89456 522.63458 556.77411 575.55359 578.75519 581.42401 582.48962 585.15839 587.55841 588.89282 591.56158 594.23041 595.56482"
         y="18.360001"
         sodipodi:role="line"
         id="tspan74">YorkYCWZ33AB0401600755625300055.314.50.240.920.9211-0.33%fedcbaAdjusted a</tspan><tspan
         style="font-variant:normal;font-weight:normal;font-stretch:normal;font-size:4.80000019px;font-family:Arial;-inkscape-font-specification:ArialMT;writing-mode:lr-tb;fill:#000000;fill-opacity:1;fill-rule:nonzero;stroke:none"
         x="-77.699997 -74.498398 -71.829597 -70.231201 -41.880959 -38.679359 -35.21376 -30.68256 -27.74976 -25.080959 -22.412161 -19.21056 -16.008961 19.3176 21.986401 40.436161 43.104961 45.773762 48.442558 72.473282 75.142082 93.951843 96.620644 99.289436 101.95824 125.98896 128.65776 131.32655 133.99536 163.12608 165.79488 168.46368 169.79808 198.94464 201.61343 204.28224 205.61664 234.7632 237.43201 238.7664 241.4352 270.58176 273.25055 274.58496 277.25375 301.12033 303.78912 305.12354 307.79233 310.46112 313.12991 330.33743 331.93585 334.60464 335.93903 338.60785 341.27664 377.55505 379.15344 381.82224 383.15665 385.82544 388.49423 391.16302 393.83185 396.50064 399.16943 401.83823 410.18927 412.85809 414.19247 416.86127 419.53009 422.19888 424.86768 427.53647 430.73807 432.33649 435.00528 442.884 445.5528 446.88721 449.556 452.22479 454.89359 457.56241 460.2312 462.89999 465.56879 468.23761 477.55728 480.22607 481.56049 484.22928 486.89807 489.56689 492.23569 494.90448 497.57327 500.24207 502.91089 511.03104 512.62946 515.29822 516.63263 519.30145 521.97021 524.63904 527.30786 529.97662 532.64545 535.31427 537.98303 545.82434 548.4931 549.82751 552.49634 555.1651 557.83392 560.50275 563.17151 565.84033 568.50909 571.17792 577.85809 580.52686 581.86127 584.59247 587.26129 589.93005 592.59888 595.2677"
         y="24.360001"
         sodipodi:role="line"
         id="tspan76">YorkYCWZ33AB0421764755625315057.515.00.230.890.8917-0.18%-0.000135876.72502E-050.0088717550.000140632-0.0160399680.7037190870.701619</tspan><tspan
         style="font-variant:normal;font-weight:normal;font-stretch:normal;font-size:4.80000019px;font-family:Arial;-inkscape-font-specification:ArialMT;writing-mode:lr-tb;fill:#000000;fill-opacity:1;fill-rule:nonzero;stroke:none"
         x="-77.699997 -74.498398 -71.829597 -70.231201 -41.880959 -38.679359 -35.21376 -30.68256 -27.74976 -25.080959 -22.412161 -19.21056 -16.008961 19.3176 21.986401 40.436161 43.104961 45.773762 48.442558 72.473282 75.142082 93.951843 96.620644 99.289436 101.95824 125.98896 128.65776 131.32655 133.99536 163.12608 165.79488 168.46368 169.79808 198.94464 201.61343 204.28224 205.61664 234.7632 237.43201 238.7664 241.4352 270.58176 273.25055 274.58496 277.25375 301.12033 303.78912 305.12354 307.79233 310.46112 313.12991 330.33743 331.93585 334.60464 335.93903 338.60785 341.27664 379.65503 382.32385 383.65823 386.32703 388.99585 391.66464 394.33344 397.53503 399.13345 401.80225 410.19073 412.85953 414.19391 416.86273 419.53152 422.20032 424.86911 427.53793 430.73953 432.33792 435.00671 442.88544 445.55423 446.88864 449.55743 452.22623 454.89505 457.56384 460.23264 462.90143 465.57025 468.23904 478.03873 480.70752 482.04193 484.71072 487.37952 490.04831 492.71713 495.38593 498.58752 500.18591 502.85471 512.65393 515.32269 516.6571 519.32593 521.99469 524.66351 527.33234 530.0011 532.66992 535.33875 538.00751 545.82721 548.49597 549.83038 552.49921 555.16803 557.83679 560.50562 563.17438 565.8432 568.51202 571.18079"
         y="30.360001"
         sodipodi:role="line"
         id="tspan78">YorkYCWZ33AB0441936755625330059.715.50.220.860.8634-0.13%1.5715E-058.40004E-060.0015942943.47937E-050.0034062480.110471781</tspan><tspan
         style="font-variant:normal;font-weight:normal;font-stretch:normal;font-size:4.80000019px;font-family:Arial;-inkscape-font-specification:ArialMT;writing-mode:lr-tb;fill:#000000;fill-opacity:1;fill-rule:nonzero;stroke:none"
         x="-77.699997 -74.498398 -71.829597 -70.231201 -41.880959 -38.679359 -35.21376 -30.68256 -27.74976 -25.080959 -22.412161 -19.21056 -16.008961 19.3176 21.986401 40.436161 43.104961 45.773762 48.442558 72.473282 75.142082 93.951843 96.620644 99.289436 101.95824 125.98896 128.65776 131.32655 133.99536 163.12608 165.79488 168.46368 169.79808 198.94464 201.61343 204.28224 205.61664 234.7632 237.43201 238.7664 241.4352 270.58176 273.25055 274.58496 277.25375 301.12033 303.78912 305.12354 307.79233 310.46112 313.12991 330.33743 331.93585 334.60464 335.93903 338.60785 341.27664 365.31503 366.91345 376.53409 379.20288 380.53729 383.20609 385.87488 388.54367 391.21249 393.88129 396.55008 399.21887 401.88766 409.70737 412.37616 413.71057 416.37936 419.04816 421.71695 424.38577 427.05457 429.72336 432.39215 435.06097 449.84064 452.50943 455.97504 457.30945 483.73969 486.40848 489.87408 491.20847 518.65918 521.328 524.79358 526.12799 552.79871 555.46753 558.93311 560.26752"
         y="36.360001"
         sodipodi:role="line"
         id="tspan80">YorkYCWZ33AB0452025755625337560.815.70.220.850.8497-0.45%r20.9997093480.002078905#N/A#N/A#N/A#N/A</tspan><tspan
         style="font-variant:normal;font-weight:normal;font-stretch:normal;font-size:4.80000019px;font-family:Arial;-inkscape-font-specification:ArialMT;writing-mode:lr-tb;fill:#000000;fill-opacity:1;fill-rule:nonzero;stroke:none"
         x="-77.699997 -74.498398 -71.829597 -70.231201 -41.880959 -38.679359 -35.21376 -30.68256 -27.74976 -25.080959 -22.412161 -19.21056 -16.008961 19.3176 21.986401 40.436161 43.104961 45.773762 48.442558 72.473282 75.142082 93.951843 96.620644 99.289436 101.95824 125.98896 128.65776 131.32655 133.99536 163.12608 165.79488 168.46368 169.79808 198.94464 201.61343 204.28224 205.61664 234.7632 237.43201 238.7664 241.4352 270.58176 273.25055 274.58496 277.25375 301.12033 303.78912 305.12354 307.79233 310.46112 313.12991 330.33743 331.93585 334.60464 335.93903 338.60785 341.27664"
         y="42.360001"
         sodipodi:role="line"
         id="tspan82">YorkYCWZ33AB0462116755625345061.916.00.210.840.8363-0.15%</tspan><tspan
         style="font-variant:normal;font-weight:normal;font-stretch:normal;font-size:4.80000019px;font-family:Arial;-inkscape-font-specification:ArialMT;writing-mode:lr-tb;fill:#000000;fill-opacity:1;fill-rule:nonzero;stroke:none"
         x="-77.699997 -74.498398 -71.829597 -70.231201 -41.880959 -38.679359 -35.21376 -30.68256 -27.74976 -25.080959 -22.412161 -19.21056 -16.008961 19.3176 21.986401 40.436161 43.104961 45.773762 48.442558 72.473282 75.142082 93.951843 96.620644 99.289436 101.95824 125.98896 128.65776 131.32655 133.99536 163.12608 165.79488 168.46368 169.79808 198.94464 201.61343 204.28224 205.61664 234.7632 237.43201 238.7664 241.4352 270.58176 273.25055 274.58496 277.25375 301.12033 303.78912 305.12354 307.79233 310.46112 313.12991 330.33743 331.93585 334.60464 335.93903 338.60785 341.27664"
         y="48.360001"
         sodipodi:role="line"
         id="tspan84">YorkYCWZ33AB0482304755625360064.216.50.210.810.8103-0.23%</tspan><tspan
         style="font-variant:normal;font-weight:normal;font-stretch:normal;font-size:4.80000019px;font-family:Arial;-inkscape-font-specification:ArialMT;writing-mode:lr-tb;fill:#000000;fill-opacity:1;fill-rule:nonzero;stroke:none"
         x="-77.699997 -74.498398 -71.829597 -70.231201 -41.880959 -38.679359 -35.21376 -30.68256 -27.74976 -25.080959 -22.412161 -19.21056 -16.008961 19.3176 21.986401 40.436161 43.104961 45.773762 48.442558 72.473282 75.142082 93.951843 96.620644 99.289436 101.95824 125.98896 128.65776 131.32655 133.99536 163.12608 165.79488 168.46368 169.79808 198.94464 201.61343 204.28224 205.61664 234.7632 237.43201 238.7664 241.4352 270.58176 273.25055 274.58496 277.25375 301.12033 303.78912 305.12354 307.79233 310.46112 313.12991 330.33743 331.93585 334.60464 335.93903 338.60785 341.27664"
         y="54.360001"
         sodipodi:role="line"
         id="tspan86">YorkYCWZ33AB0502500755625375066.617.00.200.790.7854-0.37%</tspan><tspan
         style="font-variant:normal;font-weight:normal;font-stretch:normal;font-size:4.80000019px;font-family:Arial;-inkscape-font-specification:ArialMT;writing-mode:lr-tb;fill:#000000;fill-opacity:1;fill-rule:nonzero;stroke:none"
         x="-77.699997 -74.498398 -71.829597 -70.231201 -41.880959 -38.679359 -35.21376 -30.68256 -27.74976 -25.080959 -22.412161 -19.21056 -16.008961 19.3176 21.986401 40.436161 43.104961 45.773762 48.442558 72.473282 75.142082 93.951843 96.620644 99.289436 101.95824 125.98896 128.65776 131.32655 133.99536 163.12608 165.79488 168.46368 169.79808 198.94464 201.61343 204.28224 205.61664 234.7632 237.43201 238.7664 241.4352 270.58176 273.25055 274.58496 277.25375 301.12033 303.78912 305.12354 307.79233 310.46112 313.12991 330.33743 331.93585 334.60464 335.93903 338.60785 341.27664"
         y="60.360001"
         sodipodi:role="line"
         id="tspan88">YorkYCWZ33AB0401600806400320053.813.50.250.990.9904-0.22%</tspan><tspan
         style="font-variant:normal;font-weight:normal;font-stretch:normal;font-size:4.80000019px;font-family:Arial;-inkscape-font-specification:ArialMT;writing-mode:lr-tb;fill:#000000;fill-opacity:1;fill-rule:nonzero;stroke:none"
         x="-77.699997 -74.498398 -71.829597 -70.231201 -41.880959 -38.679359 -35.21376 -30.68256 -27.74976 -25.080959 -22.412161 -19.21056 -16.008961 19.3176 21.986401 40.436161 43.104961 45.773762 48.442558 72.473282 75.142082 93.951843 96.620644 99.289436 101.95824 125.98896 128.65776 131.32655 133.99536 163.12608 165.79488 168.46368 169.79808 198.94464 201.61343 204.28224 205.61664 234.7632 237.43201 238.7664 241.4352 270.58176 273.25055 274.58496 277.25375 301.12033 303.78912 305.12354 307.79233 310.46112 313.12991 330.33743 331.93585 334.60464 335.93903 338.60785 341.27664"
         y="66.360001"
         sodipodi:role="line"
         id="tspan90">YorkYCWZ33AB0421764806400336055.913.90.250.960.9596-0.46%</tspan><tspan
         style="font-variant:normal;font-weight:normal;font-stretch:normal;font-size:4.80000019px;font-family:Arial;-inkscape-font-specification:ArialMT;writing-mode:lr-tb;fill:#000000;fill-opacity:1;fill-rule:nonzero;stroke:none"
         x="-77.699997 -74.498398 -71.829597 -70.231201 -41.880959 -38.679359 -35.21376 -30.68256 -27.74976 -25.080959 -22.412161 -19.21056 -16.008961 19.3176 21.986401 40.436161 43.104961 45.773762 48.442558 72.473282 75.142082 93.951843 96.620644 99.289436 101.95824 125.98896 128.65776 131.32655 133.99536 163.12608 165.79488 168.46368 169.79808 198.94464 201.61343 204.28224 205.61664 234.7632 237.43201 238.7664 241.4352 270.58176 273.25055 274.58496 277.25375 301.12033 303.78912 305.12354 307.79233 310.46112 313.12991 330.33743 331.93585 334.60464 335.93903 338.60785 341.27664"
         y="72.360001"
         sodipodi:role="line"
         id="tspan92">YorkYCWZ33AB0441936806400352058.114.40.240.930.9300-0.06%</tspan><tspan
         style="font-variant:normal;font-weight:normal;font-stretch:normal;font-size:4.80000019px;font-family:Arial;-inkscape-font-specification:ArialMT;writing-mode:lr-tb;fill:#000000;fill-opacity:1;fill-rule:nonzero;stroke:none"
         x="-77.699997 -74.498398 -71.829597 -70.231201 -41.880959 -38.679359 -35.21376 -30.68256 -27.74976 -25.080959 -22.412161 -19.21056 -16.008961 19.3176 21.986401 40.436161 43.104961 45.773762 48.442558 72.473282 75.142082 93.951843 96.620644 99.289436 101.95824 125.98896 128.65776 131.32655 133.99536 163.12608 165.79488 168.46368 169.79808 198.94464 201.61343 204.28224 205.61664 234.7632 237.43201 238.7664 241.4352 270.58176 273.25055 274.58496 277.25375 301.12033 303.78912 305.12354 307.79233 310.46112 313.12991 330.33743 331.93585 334.60464 335.93903 338.60785 341.27664"
         y="78.360001"
         sodipodi:role="line"
         id="tspan94">YorkYCWZ33AB0452025806400360059.214.60.230.920.9156-0.24%</tspan><tspan
         style="font-variant:normal;font-weight:normal;font-stretch:normal;font-size:4.80000019px;font-family:Arial;-inkscape-font-specification:ArialMT;writing-mode:lr-tb;fill:#000000;fill-opacity:1;fill-rule:nonzero;stroke:none"
         x="-77.699997 -74.498398 -71.829597 -70.231201 -41.880959 -38.679359 -35.21376 -30.68256 -27.74976 -25.080959 -22.412161 -19.21056 -16.008961 19.3176 21.986401 40.436161 43.104961 45.773762 48.442558 72.473282 75.142082 93.951843 96.620644 99.289436 101.95824 125.98896 128.65776 131.32655 133.99536 163.12608 165.79488 168.46368 169.79808 198.94464 201.61343 204.28224 205.61664 234.7632 237.43201 238.7664 241.4352 270.58176 273.25055 274.58496 277.25375 301.12033 303.78912 305.12354 307.79233 310.46112 313.12991 330.33743 331.93585 334.60464 335.93903 338.60785 341.27664"
         y="84.360001"
         sodipodi:role="line"
         id="tspan96">YorkYCWZ33AB0462116806400368060.314.80.230.910.9015-0.43%</tspan><tspan
         style="font-variant:normal;font-weight:normal;font-stretch:normal;font-size:4.80000019px;font-family:Arial;-inkscape-font-specification:ArialMT;writing-mode:lr-tb;fill:#000000;fill-opacity:1;fill-rule:nonzero;stroke:none"
         x="-77.699997 -74.498398 -71.829597 -70.231201 -41.880959 -38.679359 -35.21376 -30.68256 -27.74976 -25.080959 -22.412161 -19.21056 -16.008961 19.3176 21.986401 40.436161 43.104961 45.773762 48.442558 72.473282 75.142082 93.951843 96.620644 99.289436 101.95824 125.98896 128.65776 131.32655 133.99536 163.12608 165.79488 168.46368 169.79808 198.94464 201.61343 204.28224 205.61664 234.7632 237.43201 238.7664 241.4352 270.58176 273.25055 274.58496 277.25375 301.12033 303.78912 305.12354 307.79233 310.46112 313.12991 330.33743 331.93585 334.60464 335.93903 338.60785 341.27664"
         y="90.360001"
         sodipodi:role="line"
         id="tspan98">YorkYCWZ33AB0482304806400384062.615.30.220.880.8741-0.19%</tspan><tspan
         style="font-variant:normal;font-weight:normal;font-stretch:normal;font-size:4.80000019px;font-family:Arial;-inkscape-font-specification:ArialMT;writing-mode:lr-tb;fill:#000000;fill-opacity:1;fill-rule:nonzero;stroke:none"
         x="-77.699997 -74.498398 -71.829597 -70.231201 -41.880959 -38.679359 -35.21376 -30.68256 -27.74976 -25.080959 -22.412161 -19.21056 -16.008961 19.3176 21.986401 40.436161 43.104961 45.773762 48.442558 72.473282 75.142082 93.951843 96.620644 99.289436 101.95824 125.98896 128.65776 131.32655 133.99536 163.12608 165.79488 168.46368 169.79808 198.94464 201.61343 204.28224 205.61664 234.7632 237.43201 238.7664 241.4352 270.58176 273.25055 274.58496 277.25375 301.12033 303.78912 305.12354 307.79233 310.46112 313.12991 330.33743 331.93585 334.60464 335.93903 338.60785 341.27664"
         y="96.360001"
         sodipodi:role="line"
         id="tspan100">YorkYCWZ33AB0502500806400400064.915.80.220.850.8479-0.03%</tspan><tspan
         style="font-variant:normal;font-weight:normal;font-stretch:normal;font-size:4.80000019px;font-family:Arial;-inkscape-font-specification:ArialMT;writing-mode:lr-tb;fill:#000000;fill-opacity:1;fill-rule:nonzero;stroke:none"
         x="-77.699997 -74.498398 -71.829597 -70.231201 -41.880959 -38.679359 -35.21376 -30.68256 -27.74976 -25.080959 -22.412161 -19.21056 -16.008961 19.3176 21.986401 40.436161 43.104961 45.773762 48.442558 72.473282 75.142082 93.951843 96.620644 99.289436 101.95824 125.98896 128.65776 131.32655 133.99536 163.12608 165.79488 168.46368 169.79808 198.94464 201.61343 204.28224 205.61664 234.7632 237.43201 238.7664 241.4352 270.58176 273.25055 274.58496 277.25375 301.12033 303.78912 305.12354 307.79233 310.46112 313.12991 330.33743 331.93585 334.60464 335.93903 338.60785 341.27664"
         y="102.36"
         sodipodi:role="line"
         id="tspan102">YorkYCWZ33AB0401600857225340052.312.60.271.061.0631-0.04%</tspan><tspan
         style="font-variant:normal;font-weight:normal;font-stretch:normal;font-size:4.80000019px;font-family:Arial;-inkscape-font-specification:ArialMT;writing-mode:lr-tb;fill:#000000;fill-opacity:1;fill-rule:nonzero;stroke:none"
         x="-77.699997 -74.498398 -71.829597 -70.231201 -41.880959 -38.679359 -35.21376 -30.68256 -27.74976 -25.080959 -22.412161 -19.21056 -16.008961 19.3176 21.986401 40.436161 43.104961 45.773762 48.442558 72.473282 75.142082 93.951843 96.620644 99.289436 101.95824 125.98896 128.65776 131.32655 133.99536 163.12608 165.79488 168.46368 169.79808 198.94464 201.61343 204.28224 205.61664 234.7632 237.43201 238.7664 241.4352 270.58176 273.25055 274.58496 277.25375 301.12033 303.78912 305.12354 307.79233 310.46112 313.12991 331.95743 334.62625 335.96063 338.62943 341.29825"
         y="108.36"
         sodipodi:role="line"
         id="tspan104">YorkYCWZ33AB0421764857225357054.413.00.261.031.03090.02%</tspan><tspan
         style="font-variant:normal;font-weight:normal;font-stretch:normal;font-size:4.80000019px;font-family:Arial;-inkscape-font-specification:ArialMT;writing-mode:lr-tb;fill:#000000;fill-opacity:1;fill-rule:nonzero;stroke:none"
         x="-77.699997 -74.498398 -71.829597 -70.231201 -41.880959 -38.679359 -35.21376 -30.68256 -27.74976 -25.080959 -22.412161 -19.21056 -16.008961 19.3176 21.986401 40.436161 43.104961 45.773762 48.442558 72.473282 75.142082 93.951843 96.620644 99.289436 101.95824 125.98896 128.65776 131.32655 133.99536 163.12608 165.79488 168.46368 169.79808 198.94464 201.61343 204.28224 205.61664 234.7632 237.43201 238.7664 241.4352 270.58176 273.25055 274.58496 277.25375 301.12033 303.78912 305.12354 307.79233 310.46112 313.12991 331.95743 334.62625 335.96063 338.62943 341.29825"
         y="114.36"
         sodipodi:role="line"
         id="tspan106">YorkYCWZ33AB0441936857225374056.513.40.251.001.00000.00%</tspan><tspan
         style="font-variant:normal;font-weight:normal;font-stretch:normal;font-size:4.80000019px;font-family:Arial;-inkscape-font-specification:ArialMT;writing-mode:lr-tb;fill:#000000;fill-opacity:1;fill-rule:nonzero;stroke:none"
         x="-77.699997 -74.498398 -71.829597 -70.231201 -41.880959 -38.679359 -35.21376 -30.68256 -27.74976 -25.080959 -22.412161 -19.21056 -16.008961 19.3176 21.986401 40.436161 43.104961 45.773762 48.442558 72.473282 75.142082 93.951843 96.620644 99.289436 101.95824 125.98896 128.65776 131.32655 133.99536 163.12608 165.79488 168.46368 169.79808 198.94464 201.61343 204.28224 205.61664 234.7632 237.43201 238.7664 241.4352 270.58176 273.25055 274.58496 277.25375 301.12033 303.78912 305.12354 307.79233 310.46112 313.12991 330.33743 331.93585 334.60464 335.93903 338.60785 341.27664"
         y="120.36"
         sodipodi:role="line"
         id="tspan108">YorkYCWZ33AB0452025857225382557.613.60.250.990.9849-0.04%</tspan><tspan
         style="font-variant:normal;font-weight:normal;font-stretch:normal;font-size:4.80000019px;font-family:Arial;-inkscape-font-specification:ArialMT;writing-mode:lr-tb;fill:#000000;fill-opacity:1;fill-rule:nonzero;stroke:none"
         x="-77.699997 -74.498398 -71.829597 -70.231201 -41.880959 -38.679359 -35.21376 -30.68256 -27.74976 -25.080959 -22.412161 -19.21056 -16.008961 19.3176 21.986401 40.436161 43.104961 45.773762 48.442558 72.473282 75.142082 93.951843 96.620644 99.289436 101.95824 125.98896 128.65776 131.32655 133.99536 163.12608 165.79488 168.46368 169.79808 198.94464 201.61343 204.28224 205.61664 234.7632 237.43201 238.7664 241.4352 270.58176 273.25055 274.58496 277.25375 301.12033 303.78912 305.12354 307.79233 310.46112 313.12991 330.33743 331.93585 334.60464 335.93903 338.60785 341.27664"
         y="126.36"
         sodipodi:role="line"
         id="tspan110">YorkYCWZ33AB0462116857225391058.713.80.250.970.9701-0.10%</tspan><tspan
         style="font-variant:normal;font-weight:normal;font-stretch:normal;font-size:4.80000019px;font-family:Arial;-inkscape-font-specification:ArialMT;writing-mode:lr-tb;fill:#000000;fill-opacity:1;fill-rule:nonzero;stroke:none"
         x="-77.699997 -74.498398 -71.829597 -70.231201 -41.880959 -38.679359 -35.21376 -30.68256 -27.74976 -25.080959 -22.412161 -19.21056 -16.008961 19.3176 21.986401 40.436161 43.104961 45.773762 48.442558 72.473282 75.142082 93.951843 96.620644 99.289436 101.95824 125.98896 128.65776 131.32655 133.99536 163.12608 165.79488 168.46368 169.79808 198.94464 201.61343 204.28224 205.61664 234.7632 237.43201 238.7664 241.4352 270.58176 273.25055 274.58496 277.25375 301.12033 303.78912 305.12354 307.79233 310.46112 313.12991 330.33743 331.93585 334.60464 335.93903 338.60785 341.27664"
         y="132.36"
         sodipodi:role="line"
         id="tspan112">YorkYCWZ33AB0482304857225408060.914.20.240.940.9414-0.24%</tspan><tspan
         style="font-variant:normal;font-weight:normal;font-stretch:normal;font-size:4.80000019px;font-family:Arial;-inkscape-font-specification:ArialMT;writing-mode:lr-tb;fill:#000000;fill-opacity:1;fill-rule:nonzero;stroke:none"
         x="-77.699997 -74.498398 -71.829597 -70.231201 -41.880959 -38.679359 -35.21376 -30.68256 -27.74976 -25.080959 -22.412161 -19.21056 -16.008961 19.3176 21.986401 40.436161 43.104961 45.773762 48.442558 72.473282 75.142082 93.951843 96.620644 99.289436 101.95824 125.98896 128.65776 131.32655 133.99536 163.12608 165.79488 168.46368 169.79808 198.94464 201.61343 204.28224 205.61664 234.7632 237.43201 238.7664 241.4352 270.58176 273.25055 274.58496 277.25375 301.12033 303.78912 305.12354 307.79233 310.46112 313.12991 330.33743 331.93585 334.60464 335.93903 338.60785 341.27664"
         y="138.36"
         sodipodi:role="line"
         id="tspan114">YorkYCWZ33AB0502500857225425063.214.60.230.920.9137-0.44%</tspan><tspan
         style="font-variant:normal;font-weight:normal;font-stretch:normal;font-size:4.80000019px;font-family:Arial;-inkscape-font-specification:ArialMT;writing-mode:lr-tb;fill:#000000;fill-opacity:1;fill-rule:nonzero;stroke:none"
         x="-77.699997 -74.498398 -71.829597 -70.231201 -41.880959 -38.679359 -35.21376 -30.68256 -27.74976 -25.080959 -22.412161 -19.21056 -16.008961 19.3176 21.986401 40.436161 43.104961 45.773762 48.442558 72.473282 75.142082 93.951843 96.620644 99.289436 101.95824 125.98896 128.65776 131.32655 133.99536 163.12608 165.79488 168.46368 169.79808 198.94464 201.61343 204.28224 205.61664 234.7632 237.43201 238.7664 241.4352 270.58176 273.25055 274.58496 277.25375 301.12033 303.78912 305.12354 307.79233 310.46112 313.12991 330.33743 331.93585 334.60464 335.93903 338.60785 341.27664"
         y="144.36"
         sodipodi:role="line"
         id="tspan116">YorkYCWZ33AB0401600908100360050.711.70.291.151.1391-0.54%</tspan><tspan
         style="font-variant:normal;font-weight:normal;font-stretch:normal;font-size:4.80000019px;font-family:Arial;-inkscape-font-specification:ArialMT;writing-mode:lr-tb;fill:#000000;fill-opacity:1;fill-rule:nonzero;stroke:none"
         x="-77.699997 -74.498398 -71.829597 -70.231201 -41.880959 -38.679359 -35.21376 -30.68256 -27.74976 -25.080959 -22.412161 -19.21056 -16.008961 19.3176 21.986401 40.436161 43.104961 45.773762 48.442558 72.473282 75.142082 93.951843 96.620644 99.289436 101.95824 125.98896 128.65776 131.32655 133.99536 163.12608 165.79488 168.46368 169.79808 198.94464 201.61343 204.28224 205.61664 234.7632 237.43201 238.7664 241.4352 270.58176 273.25055 274.58496 277.25375 301.12033 303.78912 305.12354 307.79233 310.46112 313.12991 330.33743 331.93585 334.60464 335.93903 338.60785 341.27664"
         y="150.36"
         sodipodi:role="line"
         id="tspan118">YorkYCWZ33AB0421764908100378052.812.10.281.111.1056-0.16%</tspan><tspan
         style="font-variant:normal;font-weight:normal;font-stretch:normal;font-size:4.80000019px;font-family:Arial;-inkscape-font-specification:ArialMT;writing-mode:lr-tb;fill:#000000;fill-opacity:1;fill-rule:nonzero;stroke:none"
         x="-77.699997 -74.498398 -71.829597 -70.231201 -41.880959 -38.679359 -35.21376 -30.68256 -27.74976 -25.080959 -22.412161 -19.21056 -16.008961 19.3176 21.986401 40.436161 43.104961 45.773762 48.442558 72.473282 75.142082 93.951843 96.620644 99.289436 101.95824 125.98896 128.65776 131.32655 133.99536 163.12608 165.79488 168.46368 169.79808 198.94464 201.61343 204.28224 205.61664 234.7632 237.43201 238.7664 241.4352 270.58176 273.25055 274.58496 277.25375 301.12033 303.78912 305.12354 307.79233 310.46112 313.12991 331.95743 334.62625 335.96063 338.62943 341.29825"
         y="156.36"
         sodipodi:role="line"
         id="tspan120">YorkYCWZ33AB0441936908100396054.912.50.271.071.07330.12%</tspan><tspan
         style="font-variant:normal;font-weight:normal;font-stretch:normal;font-size:4.80000019px;font-family:Arial;-inkscape-font-specification:ArialMT;writing-mode:lr-tb;fill:#000000;fill-opacity:1;fill-rule:nonzero;stroke:none"
         x="-77.699997 -74.498398 -71.829597 -70.231201 -41.880959 -38.679359 -35.21376 -30.68256 -27.74976 -25.080959 -22.412161 -19.21056 -16.008961 19.3176 21.986401 40.436161 43.104961 45.773762 48.442558 72.473282 75.142082 93.951843 96.620644 99.289436 101.95824 125.98896 128.65776 131.32655 133.99536 167.08607 169.75488 198.94464 201.61343 204.28224 205.61664 234.7632 237.43201 238.7664 241.4352 270.58176 273.25055 274.58496 277.25375 301.12033 303.78912 305.12354 307.79233 310.46112 313.12991 330.33743 331.93585 334.60464 335.93903 338.60785 341.27664"
         y="162.36"
         sodipodi:role="line"
         id="tspan122">YorkYCWZ33AB045202590810040505612.60.271.061.0575-0.56%</tspan><tspan
         style="font-variant:normal;font-weight:normal;font-stretch:normal;font-size:4.80000019px;font-family:Arial;-inkscape-font-specification:ArialMT;writing-mode:lr-tb;fill:#000000;fill-opacity:1;fill-rule:nonzero;stroke:none"
         x="-77.699997 -74.498398 -71.829597 -70.231201 -41.880959 -38.679359 -35.21376 -30.68256 -27.74976 -25.080959 -22.412161 -19.21056 -16.008961 19.3176 21.986401 40.436161 43.104961 45.773762 48.442558 72.473282 75.142082 93.951843 96.620644 99.289436 101.95824 125.98896 128.65776 131.32655 133.99536 167.08607 169.75488 198.94464 201.61343 204.28224 205.61664 234.7632 237.43201 238.7664 241.4352 270.58176 273.25055 274.58496 277.25375 301.12033 303.78912 305.12354 307.79233 310.46112 313.12991 330.33743 331.93585 334.60464 335.93903 338.60785 341.27664"
         y="168.36"
         sodipodi:role="line"
         id="tspan124">YorkYCWZ33AB046211690810041405712.80.271.051.0420-0.46%</tspan><tspan
         style="font-variant:normal;font-weight:normal;font-stretch:normal;font-size:4.80000019px;font-family:Arial;-inkscape-font-specification:ArialMT;writing-mode:lr-tb;fill:#000000;fill-opacity:1;fill-rule:nonzero;stroke:none"
         x="-77.699997 -74.498398 -71.829597 -70.231201 -41.880959 -38.679359 -35.21376 -30.68256 -27.74976 -25.080959 -22.412161 -19.21056 -16.008961 19.3176 21.986401 40.436161 43.104961 45.773762 48.442558 72.473282 75.142082 93.951843 96.620644 99.289436 101.95824 125.98896 128.65776 131.32655 133.99536 163.12608 165.79488 168.46368 169.79808 198.94464 201.61343 204.28224 205.61664 234.7632 237.43201 238.7664 241.4352 270.58176 273.25055 274.58496 277.25375 301.12033 303.78912 305.12354 307.79233 310.46112 313.12991 330.33743 331.93585 334.60464 335.93903 338.60785 341.27664"
         y="174.36"
         sodipodi:role="line"
         id="tspan126">YorkYCWZ33AB0482304908100432059.213.20.261.021.0119-0.32%</tspan><tspan
         style="font-variant:normal;font-weight:normal;font-stretch:normal;font-size:4.80000019px;font-family:Arial;-inkscape-font-specification:ArialMT;writing-mode:lr-tb;fill:#000000;fill-opacity:1;fill-rule:nonzero;stroke:none"
         x="-77.699997 -74.498398 -71.829597 -70.231201 -41.880959 -38.679359 -35.21376 -30.68256 -27.74976 -25.080959 -22.412161 -19.21056 -16.008961 19.3176 21.986401 40.436161 43.104961 45.773762 48.442558 72.473282 75.142082 93.951843 96.620644 99.289436 101.95824 125.98896 128.65776 131.32655 133.99536 163.12608 165.79488 168.46368 169.79808 198.94464 201.61343 204.28224 205.61664 234.7632 237.43201 238.7664 241.4352 270.58176 273.25055 274.58496 277.25375 301.12033 303.78912 305.12354 307.79233 310.46112 313.12991 330.33743 331.93585 334.60464 335.93903 338.60785 341.27664"
         y="180.36"
         sodipodi:role="line"
         id="tspan128">YorkYCWZ33AB0502500908100450061.513.60.250.990.9830-0.24%</tspan><tspan
         style="font-variant:normal;font-weight:normal;font-stretch:normal;font-size:4.80000019px;font-family:Arial;-inkscape-font-specification:ArialMT;writing-mode:lr-tb;fill:#000000;fill-opacity:1;fill-rule:nonzero;stroke:none"
         x="-77.699997 -74.498398 -71.829597 -70.231201 -41.880959 -38.679359 -35.21376 -30.68256 -27.74976 -25.080959 -22.412161 -19.21056 -16.008961 19.3176 21.986401 40.436161 43.104961 45.773762 48.442558 72.473282 75.142082 93.951843 96.620644 99.289436 101.95824 125.98896 128.65776 131.32655 133.99536 163.12608 165.79488 168.46368 169.79808 198.94464 201.61343 204.28224 205.61664 234.7632 237.43201 238.7664 241.4352 270.58176 273.25055 274.58496 277.25375 301.12033 303.78912 305.12354 307.79233 310.46112 313.12991 331.95743 334.62625 335.96063 338.62943 341.29825"
         y="186.36"
         sodipodi:role="line"
         id="tspan130">YorkYCWZ33AB0401600959025380049.111.00.311.221.21850.02%</tspan><tspan
         style="font-variant:normal;font-weight:normal;font-stretch:normal;font-size:4.80000019px;font-family:Arial;-inkscape-font-specification:ArialMT;writing-mode:lr-tb;fill:#000000;fill-opacity:1;fill-rule:nonzero;stroke:none"
         x="-77.699997 -74.498398 -71.829597 -70.231201 -41.880959 -38.679359 -35.21376 -30.68256 -27.74976 -25.080959 -22.412161 -19.21056 -16.008961 19.3176 21.986401 40.436161 43.104961 45.773762 48.442558 72.473282 75.142082 93.951843 96.620644 99.289436 101.95824 125.98896 128.65776 131.32655 133.99536 163.12608 165.79488 168.46368 169.79808 198.94464 201.61343 204.28224 205.61664 234.7632 237.43201 238.7664 241.4352 270.58176 273.25055 274.58496 277.25375 301.12033 303.78912 305.12354 307.79233 310.46112 313.12991 330.33743 331.93585 334.60464 335.93903 338.60785 341.27664"
         y="192.36"
         sodipodi:role="line"
         id="tspan132">YorkYCWZ33AB0421764959025399051.211.30.301.191.1836-0.19%</tspan><tspan
         style="font-variant:normal;font-weight:normal;font-stretch:normal;font-size:4.80000019px;font-family:Arial;-inkscape-font-specification:ArialMT;writing-mode:lr-tb;fill:#000000;fill-opacity:1;fill-rule:nonzero;stroke:none"
         x="-77.699997 -74.498398 -71.829597 -70.231201 -41.880959 -38.679359 -35.21376 -30.68256 -27.74976 -25.080959 -22.412161 -19.21056 -16.008961 19.3176 21.986401 40.436161 43.104961 45.773762 48.442558 72.473282 75.142082 93.951843 96.620644 99.289436 101.95824 125.98896 128.65776 131.32655 133.99536 163.12608 165.79488 168.46368 169.79808 198.94464 201.61343 204.28224 205.61664 234.7632 237.43201 238.7664 241.4352 270.58176 273.25055 274.58496 277.25375 301.12033 303.78912 305.12354 307.79233 310.46112 313.12991 330.33743 331.93585 334.60464 335.93903 338.60785 341.27664"
         y="198.36"
         sodipodi:role="line"
         id="tspan134">YorkYCWZ33AB0441936959025418053.211.60.291.161.1499-0.45%</tspan><tspan
         style="font-variant:normal;font-weight:normal;font-stretch:normal;font-size:4.80000019px;font-family:Arial;-inkscape-font-specification:ArialMT;writing-mode:lr-tb;fill:#000000;fill-opacity:1;fill-rule:nonzero;stroke:none"
         x="-77.699997 -74.498398 -71.829597 -70.231201 -41.880959 -38.679359 -35.21376 -30.68256 -27.74976 -25.080959 -22.412161 -19.21056 -16.008961 19.3176 21.986401 40.436161 43.104961 45.773762 48.442558 72.473282 75.142082 93.951843 96.620644 99.289436 101.95824 125.98896 128.65776 131.32655 133.99536 163.12608 165.79488 168.46368 169.79808 198.94464 201.61343 204.28224 205.61664 234.7632 237.43201 238.7664 241.4352 270.58176 273.25055 274.58496 277.25375 301.12033 303.78912 305.12354 307.79233 310.46112 313.12991 330.33743 331.93585 334.60464 335.93903 338.60785 341.27664"
         y="204.36"
         sodipodi:role="line"
         id="tspan136">YorkYCWZ33AB0452025959025427554.311.80.291.141.1335-0.18%</tspan><tspan
         style="font-variant:normal;font-weight:normal;font-stretch:normal;font-size:4.80000019px;font-family:Arial;-inkscape-font-specification:ArialMT;writing-mode:lr-tb;fill:#000000;fill-opacity:1;fill-rule:nonzero;stroke:none"
         x="-77.699997 -74.498398 -71.829597 -70.231201 -41.880959 -38.679359 -35.21376 -30.68256 -27.74976 -25.080959 -22.412161 -19.21056 -16.008961 19.3176 21.986401 40.436161 43.104961 45.773762 48.442558 72.473282 75.142082 93.951843 96.620644 99.289436 101.95824 125.98896 128.65776 131.32655 133.99536 163.12608 165.79488 168.46368 169.79808 198.94464 201.61343 204.28224 205.61664 234.7632 237.43201 238.7664 241.4352 270.58176 273.25055 274.58496 277.25375 301.12033 303.78912 305.12354 307.79233 310.46112 313.12991 331.95743 334.62625 335.96063 338.62943 341.29825"
         y="210.36"
         sodipodi:role="line"
         id="tspan138">YorkYCWZ33AB0462116959025437055.312.00.281.121.11740.06%</tspan><tspan
         style="font-variant:normal;font-weight:normal;font-stretch:normal;font-size:4.80000019px;font-family:Arial;-inkscape-font-specification:ArialMT;writing-mode:lr-tb;fill:#000000;fill-opacity:1;fill-rule:nonzero;stroke:none"
         x="-77.699997 -74.498398 -71.829597 -70.231201 -41.880959 -38.679359 -35.21376 -30.68256 -27.74976 -25.080959 -22.412161 -19.21056 -16.008961 19.3176 21.986401 40.436161 43.104961 45.773762 48.442558 72.473282 75.142082 93.951843 96.620644 99.289436 101.95824 125.98896 128.65776 131.32655 133.99536 163.12608 165.79488 168.46368 169.79808 198.94464 201.61343 204.28224 205.61664 234.7632 237.43201 238.7664 241.4352 270.58176 273.25055 274.58496 277.25375 301.12033 303.78912 305.12354 307.79233 310.46112 313.12991 330.33743 331.93585 334.60464 335.93903 338.60785 341.27664"
         y="216.36"
         sodipodi:role="line"
         id="tspan140">YorkYCWZ33AB0482304959025456057.512.30.281.091.0859-0.32%</tspan><tspan
         style="font-variant:normal;font-weight:normal;font-stretch:normal;font-size:4.80000019px;font-family:Arial;-inkscape-font-specification:ArialMT;writing-mode:lr-tb;fill:#000000;fill-opacity:1;fill-rule:nonzero;stroke:none"
         x="-77.699997 -74.498398 -71.829597 -70.231201 -41.880959 -38.679359 -35.21376 -30.68256 -27.74976 -25.080959 -22.412161 -19.21056 -16.008961 19.3176 21.986401 40.436161 43.104961 45.773762 48.442558 72.473282 75.142082 93.951843 96.620644 99.289436 101.95824 125.98896 128.65776 131.32655 133.99536 163.12608 165.79488 168.46368 169.79808 198.94464 201.61343 204.28224 205.61664 234.7632 237.43201 238.7664 241.4352 270.58176 273.25055 274.58496 277.25375 301.12033 303.78912 305.12354 307.79233 310.46112 313.12991 331.95743 334.62625 335.96063 338.62943 341.29825"
         y="222.36"
         sodipodi:role="line"
         id="tspan142">YorkYCWZ33AB0502500959025475059.712.70.271.061.05560.04%</tspan></text>
<text
       transform="matrix(0,1,1,0,323.28,78.36)"
       id="text144"><tspan
         style="font-variant:normal;font-weight:bold;font-stretch:normal;font-size:4.80000019px;font-family:Arial;-inkscape-font-specification:Arial-BoldMT;writing-mode:lr-tb;fill:#000000;fill-opacity:1;fill-rule:nonzero;stroke:none"
         x="0 3.9984 6.6672001 8.2656002 10.1328 11.4672 14.136 15.4704 18.936001 21.868799 23.203199 24.8016"
         y="0"
         sodipodi:role="line"
         id="tspan146">Metric Units</tspan></text>
<text
       transform="matrix(0,1,1,0,329.28,332.58)"
       id="text148"><tspan
         style="font-variant:normal;font-weight:normal;font-stretch:normal;font-size:4.80000019px;font-family:Arial;-inkscape-font-specification:ArialMT;writing-mode:lr-tb;fill:#000000;fill-opacity:1;fill-rule:nonzero;stroke:none"
         x="0 2.9328001 5.6016002 6.9359999 9.6048002 10.6704 12.0048 15.4704 18.1392 19.2048 20.5392 21.8736 25.075199 28.2768 79.138557 82.604156 85.272957 86.871361 90.869759 93.538559 94.604156 95.669762 98.069763 100.73856 123.59328 126.79488 128.12927 131.59488 133.19328 136.12608 156.05472 160.32191 161.65633 165.12192 166.18752 167.52193 194.87473 198.07632 199.41072 202.87633 204.47472 207.40752"
         y="0"
         sodipodi:role="line"
         id="tspan150">Total Unit EERNormalizedEIR-FT% DiffEIR-FT</tspan><tspan
         style="font-variant:normal;font-weight:normal;font-stretch:normal;font-size:4.80000019px;font-family:Arial;-inkscape-font-specification:ArialMT;writing-mode:lr-tb;fill:#000000;fill-opacity:1;fill-rule:nonzero;stroke:none"
         x="-254.22 -250.2216 -247.5528 -244.884 -242.21519 -240.8808 -238.21201 -235.812 -234.4776 -231.80881 -230.2104 -227.5416 -218.40288 -214.40448 -211.73569 -209.06688 -206.39809 -166.80576 -163.34016 -159.87456 -155.34335 -146.76672 -143.30112 -139.83553 -135.30432 -132.10272 -130.23552 -128.36832 -110.1696 -106.704 -102.1728 -89.7696 -86.304001 -81.772797 -78.571198 -76.704002 -74.8368 -68.112 -64.6464 -61.180801 -56.649601 -53.448002 -51.580799 -48.1152 -43.584 -36.253441 -32.787842 -30.11904 -27.450239 -24.781441 -22.381439 -21.31584 -19.98144 -17.58144 -16.24704 -14.64864 -13.31424 -10.64544 -7.9766402 -5.5766401 10.66368 13.86528 16.79808 20.26368 21.59808 26.12928 28.79808 30.132481 59.506081 62.70768 64.042084 95.32608 98.527679 99.862083 113.74608 116.67888 118.27728 120.94608 124.94448 126.27888 129.74448 132.41328 134.01167 136.41168"
         y="6"
         sodipodi:role="line"
         id="tspan152">ManufacturerModelCHWSCHWS**2CWSCWS**2CHWS*CWSCapacity (tons)BTU/WattEIREIRFrom Curve</tspan><tspan
         style="font-variant:normal;font-weight:normal;font-stretch:normal;font-size:4.80000019px;font-family:Arial;-inkscape-font-specification:ArialMT;writing-mode:lr-tb;fill:#000000;fill-opacity:1;fill-rule:nonzero;stroke:none"
         x="-254.22 -251.0184 -248.34959 -246.75121 -218.40096 -215.19936 -211.73376 -207.20256 -204.26976 -201.60097 -198.93216 -195.73056 -192.52896 -158.5224 -155.85361 -154.5192 -134.76288 -132.09409 -129.42528 -128.09088 -108.00432 -105.33552 -102.66672 -101.33232 -83.885757 -81.216957 -78.548157 -75.879356 -74.54496 -51.847679 -49.178879 -46.510078 -43.841282 -42.506882 -13.3896 -10.7208 -8.052 -6.7175999 22.428961 25.097759 27.76656 29.10096 58.24752 60.916321 62.250721 64.919518 94.066078 96.734879 98.069283 100.73808 124.60464 127.27344 128.60783 131.27664 133.94543 136.61424 153.82176 155.42017 158.08896 159.42336 162.09216 164.76096 210.81937 244.12032 277.29935 311.37888 346.11887 380.25839 399.03793 402.23953 404.90833 405.97391 408.64273 411.04272 412.37711 415.04593 417.71472 419.04913"
         y="12"
         sodipodi:role="line"
         id="tspan154">YorkYCWZ33AB04.419.823.9570.7106.255.314.50.240.920.9211-0.33%fedcbaAdjusted a</tspan><tspan
         style="font-variant:normal;font-weight:normal;font-stretch:normal;font-size:4.80000019px;font-family:Arial;-inkscape-font-specification:ArialMT;writing-mode:lr-tb;fill:#000000;fill-opacity:1;fill-rule:nonzero;stroke:none"
         x="-254.22 -251.0184 -248.34959 -246.75121 -218.40096 -215.19936 -211.73376 -207.20256 -204.26976 -201.60097 -198.93216 -195.73056 -192.52896 -158.5224 -155.85361 -154.5192 -134.76288 -132.09409 -129.42528 -128.09088 -108.00432 -105.33552 -102.66672 -101.33232 -83.885757 -81.216957 -78.548157 -75.879356 -74.54496 -51.847679 -49.178879 -46.510078 -43.841282 -42.506882 -13.3896 -10.7208 -8.052 -6.7175999 22.428961 25.097759 27.76656 29.10096 58.24752 60.916321 62.250721 64.919518 94.066078 96.734879 98.069283 100.73808 124.60464 127.27344 128.60783 131.27664 133.94543 136.61424 153.82176 155.42017 158.08896 159.42336 162.09216 164.76096 198.39935 199.99776 202.66656 204.00096 206.66975 209.33856 212.00735 214.67616 217.34496 220.01376 222.68256 225.35136 233.19264 235.86143 237.19585 239.86464 242.53345 245.20224 247.87103 250.53984 253.20863 255.87744 258.54623 266.36591 269.03473 270.36911 273.03793 275.70673 278.37552 281.04431 283.71313 286.38193 289.05072 291.71951 301.03922 303.70801 305.04239 307.71121 310.38 313.0488 315.71759 318.38641 321.05521 323.724 326.39279 334.51297 336.11136 338.78015 340.11456 342.78336 345.45215 348.12097 350.78976 353.45856 356.12735 358.79617 361.46497 371.94623 374.61505 375.94943 378.61823 381.28705 383.95584 386.62463 389.29343 392.02032 394.68912 401.39856 404.06735 405.40176 408.07056 410.73935 413.40817 416.07697 418.74576"
         y="18"
         sodipodi:role="line"
         id="tspan156">YorkYCWZ33AB05.630.923.9570.7132.757.515.00.230.890.8917-0.18%-0.0004402180.0002178910.0158902920.000455648-0.0204972120.548077280.545977</tspan><tspan
         style="font-variant:normal;font-weight:normal;font-stretch:normal;font-size:4.80000019px;font-family:Arial;-inkscape-font-specification:ArialMT;writing-mode:lr-tb;fill:#000000;fill-opacity:1;fill-rule:nonzero;stroke:none"
         x="-254.22 -251.0184 -248.34959 -246.75121 -218.40096 -215.19936 -211.73376 -207.20256 -204.26976 -201.60097 -198.93216 -195.73056 -192.52896 -158.5224 -155.85361 -154.5192 -134.76288 -132.09409 -129.42528 -128.09088 -108.00432 -105.33552 -102.66672 -101.33232 -83.885757 -81.216957 -78.548157 -75.879356 -74.54496 -51.847679 -49.178879 -46.510078 -43.841282 -42.506882 -13.3896 -10.7208 -8.052 -6.7175999 22.428961 25.097759 27.76656 29.10096 58.24752 60.916321 62.250721 64.919518 94.066078 96.734879 98.069283 100.73808 124.60464 127.27344 128.60783 131.27664 133.94543 136.61424 153.82176 155.42017 158.08896 159.42336 162.09216 164.76096 200.49936 203.16817 204.50256 207.17136 209.84016 212.50896 215.17776 217.84656 221.04816 222.64656 225.31535 233.67409 236.34288 237.67728 240.34608 243.01488 245.68369 248.35248 251.02129 254.22289 255.82127 258.49008 266.3688 269.0376 270.37201 273.0408 275.70959 278.37839 281.04721 283.716 286.3848 289.05359 291.72241 301.04208 303.71088 305.04529 307.71408 310.38287 313.05167 315.72049 318.38928 321.05807 323.72687 326.39569 336.13583 338.80463 340.13904 342.80783 345.47665 348.14545 350.81424 353.48303 356.15182 358.82065 361.48944 369.30911 371.97791 373.31232 375.98111 378.64993 381.31873 383.98752 386.65631 389.32513 391.99393 394.71936"
         y="24"
         sodipodi:role="line"
         id="tspan158">YorkYCWZ33AB06.744.423.9570.7159.359.715.50.220.860.8634-0.13%5.09167E-052.72161E-050.0016468050.0001127320.0022224220.026345877</tspan><tspan
         style="font-variant:normal;font-weight:normal;font-stretch:normal;font-size:4.80000019px;font-family:Arial;-inkscape-font-specification:ArialMT;writing-mode:lr-tb;fill:#000000;fill-opacity:1;fill-rule:nonzero;stroke:none"
         x="-254.22 -251.0184 -248.34959 -246.75121 -218.40096 -215.19936 -211.73376 -207.20256 -204.26976 -201.60097 -198.93216 -195.73056 -192.52896 -158.5224 -155.85361 -154.5192 -134.76288 -132.09409 -129.42528 -128.09088 -108.00432 -105.33552 -102.66672 -101.33232 -83.885757 -81.216957 -78.548157 -75.879356 -74.54496 -51.847679 -49.178879 -46.510078 -43.841282 -42.506882 -13.3896 -10.7208 -8.052 -6.7175999 22.428961 25.097759 27.76656 29.10096 58.24752 60.916321 62.250721 64.919518 94.066078 96.734879 98.069283 100.73808 124.60464 127.27344 128.60783 131.27664 133.94543 136.61424 153.82176 155.42017 158.08896 159.42336 162.09216 164.76096 188.79936 190.39777 200.0184 202.68719 204.02161 206.6904 209.35921 212.028 214.69679 217.3656 220.03439 222.7032 225.37199 233.19168 235.86047 237.19489 239.86368 242.53249 245.20128 247.87009 250.53888 253.20769 255.87648 258.54529 273.32495 275.99377 279.45935 280.79376 307.224 309.89279 313.3584 314.69281 342.14352 344.81232 348.27792 349.61234 376.28305 378.95184 382.41745 383.75183"
         y="30"
         sodipodi:role="line"
         id="tspan160">YorkYCWZ33AB07.252.223.9570.7172.560.815.70.220.850.8497-0.45%r20.9997093480.002078905#N/A#N/A#N/A#N/A</tspan><tspan
         style="font-variant:normal;font-weight:normal;font-stretch:normal;font-size:4.80000019px;font-family:Arial;-inkscape-font-specification:ArialMT;writing-mode:lr-tb;fill:#000000;fill-opacity:1;fill-rule:nonzero;stroke:none"
         x="-254.22 -251.0184 -248.34959 -246.75121 -218.40096 -215.19936 -211.73376 -207.20256 -204.26976 -201.60097 -198.93216 -195.73056 -192.52896 -158.5224 -155.85361 -154.5192 -134.76288 -132.09409 -129.42528 -128.09088 -108.00432 -105.33552 -102.66672 -101.33232 -83.885757 -81.216957 -78.548157 -75.879356 -74.54496 -51.847679 -49.178879 -46.510078 -43.841282 -42.506882 -13.3896 -10.7208 -8.052 -6.7175999 22.428961 25.097759 27.76656 29.10096 58.24752 60.916321 62.250721 64.919518 94.066078 96.734879 98.069283 100.73808 124.60464 127.27344 128.60783 131.27664 133.94543 136.61424 153.82176 155.42017 158.08896 159.42336 162.09216 164.76096"
         y="36"
         sodipodi:role="line"
         id="tspan162">YorkYCWZ33AB07.860.523.9570.7185.861.916.00.210.840.8363-0.15%</tspan><tspan
         style="font-variant:normal;font-weight:normal;font-stretch:normal;font-size:4.80000019px;font-family:Arial;-inkscape-font-specification:ArialMT;writing-mode:lr-tb;fill:#000000;fill-opacity:1;fill-rule:nonzero;stroke:none"
         x="-254.22 -251.0184 -248.34959 -246.75121 -218.40096 -215.19936 -211.73376 -207.20256 -204.26976 -201.60097 -198.93216 -195.73056 -192.52896 -158.5224 -155.85361 -154.5192 -134.76288 -132.09409 -129.42528 -128.09088 -108.00432 -105.33552 -102.66672 -101.33232 -83.885757 -81.216957 -78.548157 -75.879356 -74.54496 -51.847679 -49.178879 -46.510078 -43.841282 -42.506882 -13.3896 -10.7208 -8.052 -6.7175999 22.428961 25.097759 27.76656 29.10096 58.24752 60.916321 62.250721 64.919518 94.066078 96.734879 98.069283 100.73808 124.60464 127.27344 128.60783 131.27664 133.94543 136.61424 153.82176 155.42017 158.08896 159.42336 162.09216 164.76096"
         y="42"
         sodipodi:role="line"
         id="tspan164">YorkYCWZ33AB08.979.023.9570.7212.364.216.50.210.810.8103-0.23%</tspan><tspan
         style="font-variant:normal;font-weight:normal;font-stretch:normal;font-size:4.80000019px;font-family:Arial;-inkscape-font-specification:ArialMT;writing-mode:lr-tb;fill:#000000;fill-opacity:1;fill-rule:nonzero;stroke:none"
         x="-254.22 -251.0184 -248.34959 -246.75121 -218.40096 -215.19936 -211.73376 -207.20256 -204.26976 -201.60097 -198.93216 -195.73056 -192.52896 -161.1624 -158.49361 -155.8248 -154.4904 -137.40384 -134.73505 -132.06624 -129.39745 -128.06303 -108.00576 -105.33696 -102.66816 -101.33376 -83.887199 -81.218399 -78.549599 -75.880798 -74.546402 -51.849121 -49.180321 -46.51152 -43.84272 -42.50832 -13.39104 -10.72224 -8.0534401 -6.7190399 22.427521 25.096319 27.76512 29.09952 58.246078 60.914879 62.249279 64.918083 94.064636 96.733437 98.067841 100.73664 124.6032 127.272 128.6064 131.27521 133.944 136.61279 153.82031 155.41872 158.08752 159.42192 162.09071 164.75952"
         y="48"
         sodipodi:role="line"
         id="tspan166">YorkYCWZ33AB010.0100.023.9570.7238.966.617.00.200.790.7854-0.37%</tspan><tspan
         style="font-variant:normal;font-weight:normal;font-stretch:normal;font-size:4.80000019px;font-family:Arial;-inkscape-font-specification:ArialMT;writing-mode:lr-tb;fill:#000000;fill-opacity:1;fill-rule:nonzero;stroke:none"
         x="-254.22 -251.0184 -248.34959 -246.75121 -218.40096 -215.19936 -211.73376 -207.20256 -204.26976 -201.60097 -198.93216 -195.73056 -192.52896 -158.5224 -155.85361 -154.5192 -134.76288 -132.09409 -129.42528 -128.09088 -108.00432 -105.33552 -102.66672 -101.33232 -83.885757 -81.216957 -78.548157 -75.879356 -74.54496 -51.847679 -49.178879 -46.510078 -43.841282 -42.506882 -13.3896 -10.7208 -8.052 -6.7175999 22.428961 25.097759 27.76656 29.10096 58.24752 60.916321 62.250721 64.919518 94.066078 96.734879 98.069283 100.73808 124.60464 127.27344 128.60783 131.27664 133.94543 136.61424 153.82176 155.42017 158.08896 159.42336 162.09216 164.76096"
         y="54"
         sodipodi:role="line"
         id="tspan168">YorkYCWZ33AB04.419.826.7711.1118.553.813.50.250.990.9904-0.22%</tspan><tspan
         style="font-variant:normal;font-weight:normal;font-stretch:normal;font-size:4.80000019px;font-family:Arial;-inkscape-font-specification:ArialMT;writing-mode:lr-tb;fill:#000000;fill-opacity:1;fill-rule:nonzero;stroke:none"
         x="-254.22 -251.0184 -248.34959 -246.75121 -218.40096 -215.19936 -211.73376 -207.20256 -204.26976 -201.60097 -198.93216 -195.73056 -192.52896 -158.5224 -155.85361 -154.5192 -134.76288 -132.09409 -129.42528 -128.09088 -108.00432 -105.33552 -102.66672 -101.33232 -83.885757 -81.216957 -78.548157 -75.879356 -74.54496 -51.847679 -49.178879 -46.510078 -43.841282 -42.506882 -13.3896 -10.7208 -8.052 -6.7175999 22.428961 25.097759 27.76656 29.10096 58.24752 60.916321 62.250721 64.919518 94.066078 96.734879 98.069283 100.73808 124.60464 127.27344 128.60783 131.27664 133.94543 136.61424 153.82176 155.42017 158.08896 159.42336 162.09216 164.76096"
         y="60"
         sodipodi:role="line"
         id="tspan170">YorkYCWZ33AB05.630.926.7711.1148.155.913.90.250.960.9596-0.46%</tspan><tspan
         style="font-variant:normal;font-weight:normal;font-stretch:normal;font-size:4.80000019px;font-family:Arial;-inkscape-font-specification:ArialMT;writing-mode:lr-tb;fill:#000000;fill-opacity:1;fill-rule:nonzero;stroke:none"
         x="-254.22 -251.0184 -248.34959 -246.75121 -218.40096 -215.19936 -211.73376 -207.20256 -204.26976 -201.60097 -198.93216 -195.73056 -192.52896 -158.5224 -155.85361 -154.5192 -134.76288 -132.09409 -129.42528 -128.09088 -108.00432 -105.33552 -102.66672 -101.33232 -83.885757 -81.216957 -78.548157 -75.879356 -74.54496 -51.847679 -49.178879 -46.510078 -43.841282 -42.506882 -13.3896 -10.7208 -8.052 -6.7175999 22.428961 25.097759 27.76656 29.10096 58.24752 60.916321 62.250721 64.919518 94.066078 96.734879 98.069283 100.73808 124.60464 127.27344 128.60783 131.27664 133.94543 136.61424 153.82176 155.42017 158.08896 159.42336 162.09216 164.76096"
         y="66"
         sodipodi:role="line"
         id="tspan172">YorkYCWZ33AB06.744.426.7711.1177.858.114.40.240.930.9300-0.06%</tspan><tspan
         style="font-variant:normal;font-weight:normal;font-stretch:normal;font-size:4.80000019px;font-family:Arial;-inkscape-font-specification:ArialMT;writing-mode:lr-tb;fill:#000000;fill-opacity:1;fill-rule:nonzero;stroke:none"
         x="-254.22 -251.0184 -248.34959 -246.75121 -218.40096 -215.19936 -211.73376 -207.20256 -204.26976 -201.60097 -198.93216 -195.73056 -192.52896 -158.5224 -155.85361 -154.5192 -134.76288 -132.09409 -129.42528 -128.09088 -108.00432 -105.33552 -102.66672 -101.33232 -83.885757 -81.216957 -78.548157 -75.879356 -74.54496 -51.847679 -49.178879 -46.510078 -43.841282 -42.506882 -13.3896 -10.7208 -8.052 -6.7175999 22.428961 25.097759 27.76656 29.10096 58.24752 60.916321 62.250721 64.919518 94.066078 96.734879 98.069283 100.73808 124.60464 127.27344 128.60783 131.27664 133.94543 136.61424 153.82176 155.42017 158.08896 159.42336 162.09216 164.76096"
         y="72"
         sodipodi:role="line"
         id="tspan174">YorkYCWZ33AB07.252.226.7711.1192.659.214.60.230.920.9156-0.24%</tspan><tspan
         style="font-variant:normal;font-weight:normal;font-stretch:normal;font-size:4.80000019px;font-family:Arial;-inkscape-font-specification:ArialMT;writing-mode:lr-tb;fill:#000000;fill-opacity:1;fill-rule:nonzero;stroke:none"
         x="-254.22 -251.0184 -248.34959 -246.75121 -218.40096 -215.19936 -211.73376 -207.20256 -204.26976 -201.60097 -198.93216 -195.73056 -192.52896 -158.5224 -155.85361 -154.5192 -134.76288 -132.09409 -129.42528 -128.09088 -108.00432 -105.33552 -102.66672 -101.33232 -83.885757 -81.216957 -78.548157 -75.879356 -74.54496 -51.847679 -49.178879 -46.510078 -43.841282 -42.506882 -13.3896 -10.7208 -8.052 -6.7175999 22.428961 25.097759 27.76656 29.10096 58.24752 60.916321 62.250721 64.919518 94.066078 96.734879 98.069283 100.73808 124.60464 127.27344 128.60783 131.27664 133.94543 136.61424 153.82176 155.42017 158.08896 159.42336 162.09216 164.76096"
         y="78"
         sodipodi:role="line"
         id="tspan176">YorkYCWZ33AB07.860.526.7711.1207.460.314.80.230.910.9015-0.43%</tspan><tspan
         style="font-variant:normal;font-weight:normal;font-stretch:normal;font-size:4.80000019px;font-family:Arial;-inkscape-font-specification:ArialMT;writing-mode:lr-tb;fill:#000000;fill-opacity:1;fill-rule:nonzero;stroke:none"
         x="-254.22 -251.0184 -248.34959 -246.75121 -218.40096 -215.19936 -211.73376 -207.20256 -204.26976 -201.60097 -198.93216 -195.73056 -192.52896 -158.5224 -155.85361 -154.5192 -134.76288 -132.09409 -129.42528 -128.09088 -108.00432 -105.33552 -102.66672 -101.33232 -83.885757 -81.216957 -78.548157 -75.879356 -74.54496 -51.847679 -49.178879 -46.510078 -43.841282 -42.506882 -13.3896 -10.7208 -8.052 -6.7175999 22.428961 25.097759 27.76656 29.10096 58.24752 60.916321 62.250721 64.919518 94.066078 96.734879 98.069283 100.73808 124.60464 127.27344 128.60783 131.27664 133.94543 136.61424 153.82176 155.42017 158.08896 159.42336 162.09216 164.76096"
         y="84"
         sodipodi:role="line"
         id="tspan178">YorkYCWZ33AB08.979.026.7711.1237.062.615.30.220.880.8741-0.19%</tspan><tspan
         style="font-variant:normal;font-weight:normal;font-stretch:normal;font-size:4.80000019px;font-family:Arial;-inkscape-font-specification:ArialMT;writing-mode:lr-tb;fill:#000000;fill-opacity:1;fill-rule:nonzero;stroke:none"
         x="-254.22 -251.0184 -248.34959 -246.75121 -218.40096 -215.19936 -211.73376 -207.20256 -204.26976 -201.60097 -198.93216 -195.73056 -192.52896 -161.1624 -158.49361 -155.8248 -154.4904 -137.40384 -134.73505 -132.06624 -129.39745 -128.06303 -108.00576 -105.33696 -102.66816 -101.33376 -83.887199 -81.218399 -78.549599 -75.880798 -74.546402 -51.849121 -49.180321 -46.51152 -43.84272 -42.50832 -13.39104 -10.72224 -8.0534401 -6.7190399 22.427521 25.096319 27.76512 29.09952 58.246078 60.914879 62.249279 64.918083 94.064636 96.733437 98.067841 100.73664 124.6032 127.272 128.6064 131.27521 133.944 136.61279 153.82031 155.41872 158.08752 159.42192 162.09071 164.75952"
         y="90"
         sodipodi:role="line"
         id="tspan180">YorkYCWZ33AB010.0100.026.7711.1266.764.915.80.220.850.8479-0.03%</tspan><tspan
         style="font-variant:normal;font-weight:normal;font-stretch:normal;font-size:4.80000019px;font-family:Arial;-inkscape-font-specification:ArialMT;writing-mode:lr-tb;fill:#000000;fill-opacity:1;fill-rule:nonzero;stroke:none"
         x="-254.22 -251.0184 -248.34959 -246.75121 -218.40096 -215.19936 -211.73376 -207.20256 -204.26976 -201.60097 -198.93216 -195.73056 -192.52896 -158.5224 -155.85361 -154.5192 -134.76288 -132.09409 -129.42528 -128.09088 -108.00432 -105.33552 -102.66672 -101.33232 -83.885757 -81.216957 -78.548157 -75.879356 -74.54496 -51.847679 -49.178879 -46.510078 -43.841282 -42.506882 -13.3896 -10.7208 -8.052 -6.7175999 22.428961 25.097759 27.76656 29.10096 58.24752 60.916321 62.250721 64.919518 94.066078 96.734879 98.069283 100.73808 124.60464 127.27344 128.60783 131.27664 133.94543 136.61424 153.82176 155.42017 158.08896 159.42336 162.09216 164.76096"
         y="96"
         sodipodi:role="line"
         id="tspan182">YorkYCWZ33AB04.419.829.4867.0130.952.312.60.271.061.0631-0.04%</tspan><tspan
         style="font-variant:normal;font-weight:normal;font-stretch:normal;font-size:4.80000019px;font-family:Arial;-inkscape-font-specification:ArialMT;writing-mode:lr-tb;fill:#000000;fill-opacity:1;fill-rule:nonzero;stroke:none"
         x="-254.22 -251.0184 -248.34959 -246.75121 -218.40096 -215.19936 -211.73376 -207.20256 -204.26976 -201.60097 -198.93216 -195.73056 -192.52896 -158.5224 -155.85361 -154.5192 -134.76288 -132.09409 -129.42528 -128.09088 -108.00432 -105.33552 -102.66672 -101.33232 -83.885757 -81.216957 -78.548157 -75.879356 -74.54496 -51.847679 -49.178879 -46.510078 -43.841282 -42.506882 -13.3896 -10.7208 -8.052 -6.7175999 22.428961 25.097759 27.76656 29.10096 58.24752 60.916321 62.250721 64.919518 94.066078 96.734879 98.069283 100.73808 124.60464 127.27344 128.60783 131.27664 133.94543 136.61424 155.44176 158.11057 159.44496 162.11375 164.78256"
         y="102"
         sodipodi:role="line"
         id="tspan184">YorkYCWZ33AB05.630.929.4867.0163.654.413.00.261.031.03090.02%</tspan><tspan
         style="font-variant:normal;font-weight:normal;font-stretch:normal;font-size:4.80000019px;font-family:Arial;-inkscape-font-specification:ArialMT;writing-mode:lr-tb;fill:#000000;fill-opacity:1;fill-rule:nonzero;stroke:none"
         x="-254.22 -251.0184 -248.34959 -246.75121 -218.40096 -215.19936 -211.73376 -207.20256 -204.26976 -201.60097 -198.93216 -195.73056 -192.52896 -158.5224 -155.85361 -154.5192 -134.76288 -132.09409 -129.42528 -128.09088 -108.00432 -105.33552 -102.66672 -101.33232 -83.885757 -81.216957 -78.548157 -75.879356 -74.54496 -51.847679 -49.178879 -46.510078 -43.841282 -42.506882 -13.3896 -10.7208 -8.052 -6.7175999 22.428961 25.097759 27.76656 29.10096 58.24752 60.916321 62.250721 64.919518 94.066078 96.734879 98.069283 100.73808 124.60464 127.27344 128.60783 131.27664 133.94543 136.61424 155.44176 158.11057 159.44496 162.11375 164.78256 194.85936 198.32497 202.05936 205.26096 208.06416 211.26576 214.46736 217.93295 219.26736 221.93616 223.27055 225.93936 228.60815 231.27696 266.37744 269.04623 270.38065 273.04944 275.71823 278.38705 281.05585 283.72464 286.39343 289.06223 291.73105"
         y="108"
         sodipodi:role="line"
         id="tspan186">YorkYCWZ33AB06.744.429.4867.0196.356.513.40.251.001.00000.00%COP=EER/3.413=3.926164665</tspan><tspan
         style="font-variant:normal;font-weight:normal;font-stretch:normal;font-size:4.80000019px;font-family:Arial;-inkscape-font-specification:ArialMT;writing-mode:lr-tb;fill:#000000;fill-opacity:1;fill-rule:nonzero;stroke:none"
         x="-254.22 -251.0184 -248.34959 -246.75121 -218.40096 -215.19936 -211.73376 -207.20256 -204.26976 -201.60097 -198.93216 -195.73056 -192.52896 -158.5224 -155.85361 -154.5192 -134.76288 -132.09409 -129.42528 -128.09088 -108.00432 -105.33552 -102.66672 -101.33232 -83.885757 -81.216957 -78.548157 -75.879356 -74.54496 -51.847679 -49.178879 -46.510078 -43.841282 -42.506882 -13.3896 -10.7208 -8.052 -6.7175999 22.428961 25.097759 27.76656 29.10096 58.24752 60.916321 62.250721 64.919518 94.066078 96.734879 98.069283 100.73808 124.60464 127.27344 128.60783 131.27664 133.94543 136.61424 153.82176 155.42017 158.08896 159.42336 162.09216 164.76096"
         y="114"
         sodipodi:role="line"
         id="tspan188">YorkYCWZ33AB07.252.229.4867.0212.757.613.60.250.990.9849-0.04%</tspan><tspan
         style="font-variant:normal;font-weight:normal;font-stretch:normal;font-size:4.80000019px;font-family:Arial;-inkscape-font-specification:ArialMT;writing-mode:lr-tb;fill:#000000;fill-opacity:1;fill-rule:nonzero;stroke:none"
         x="-254.22 -251.0184 -248.34959 -246.75121 -218.40096 -215.19936 -211.73376 -207.20256 -204.26976 -201.60097 -198.93216 -195.73056 -192.52896 -158.5224 -155.85361 -154.5192 -134.76288 -132.09409 -129.42528 -128.09088 -108.00432 -105.33552 -102.66672 -101.33232 -83.885757 -81.216957 -78.548157 -75.879356 -74.54496 -51.847679 -49.178879 -46.510078 -43.841282 -42.506882 -13.3896 -10.7208 -8.052 -6.7175999 22.428961 25.097759 27.76656 29.10096 58.24752 60.916321 62.250721 64.919518 94.066078 96.734879 98.069283 100.73808 124.60464 127.27344 128.60783 131.27664 133.94543 136.61424 153.82176 155.42017 158.08896 159.42336 162.09216 164.76096"
         y="120"
         sodipodi:role="line"
         id="tspan190">YorkYCWZ33AB07.860.529.4867.0229.058.713.80.250.970.9701-0.10%</tspan><tspan
         style="font-variant:normal;font-weight:normal;font-stretch:normal;font-size:4.80000019px;font-family:Arial;-inkscape-font-specification:ArialMT;writing-mode:lr-tb;fill:#000000;fill-opacity:1;fill-rule:nonzero;stroke:none"
         x="-254.22 -251.0184 -248.34959 -246.75121 -218.40096 -215.19936 -211.73376 -207.20256 -204.26976 -201.60097 -198.93216 -195.73056 -192.52896 -158.5224 -155.85361 -154.5192 -134.76288 -132.09409 -129.42528 -128.09088 -108.00432 -105.33552 -102.66672 -101.33232 -83.885757 -81.216957 -78.548157 -75.879356 -74.54496 -51.847679 -49.178879 -46.510078 -43.841282 -42.506882 -13.3896 -10.7208 -8.052 -6.7175999 22.428961 25.097759 27.76656 29.10096 58.24752 60.916321 62.250721 64.919518 94.066078 96.734879 98.069283 100.73808 124.60464 127.27344 128.60783 131.27664 133.94543 136.61424 153.82176 155.42017 158.08896 159.42336 162.09216 164.76096"
         y="126"
         sodipodi:role="line"
         id="tspan192">YorkYCWZ33AB08.979.029.4867.0261.760.914.20.240.940.9414-0.24%</tspan><tspan
         style="font-variant:normal;font-weight:normal;font-stretch:normal;font-size:4.80000019px;font-family:Arial;-inkscape-font-specification:ArialMT;writing-mode:lr-tb;fill:#000000;fill-opacity:1;fill-rule:nonzero;stroke:none"
         x="-254.22 -251.0184 -248.34959 -246.75121 -218.40096 -215.19936 -211.73376 -207.20256 -204.26976 -201.60097 -198.93216 -195.73056 -192.52896 -161.1624 -158.49361 -155.8248 -154.4904 -137.40384 -134.73505 -132.06624 -129.39745 -128.06303 -108.00576 -105.33696 -102.66816 -101.33376 -83.887199 -81.218399 -78.549599 -75.880798 -74.546402 -51.849121 -49.180321 -46.51152 -43.84272 -42.50832 -13.39104 -10.72224 -8.0534401 -6.7190399 22.427521 25.096319 27.76512 29.09952 58.246078 60.914879 62.249279 64.918083 94.064636 96.733437 98.067841 100.73664 124.6032 127.272 128.6064 131.27521 133.944 136.61279 153.82031 155.41872 158.08752 159.42192 162.09071 164.75952"
         y="132"
         sodipodi:role="line"
         id="tspan194">YorkYCWZ33AB010.0100.029.4867.0294.463.214.60.230.920.9137-0.44%</tspan><tspan
         style="font-variant:normal;font-weight:normal;font-stretch:normal;font-size:4.80000019px;font-family:Arial;-inkscape-font-specification:ArialMT;writing-mode:lr-tb;fill:#000000;fill-opacity:1;fill-rule:nonzero;stroke:none"
         x="-254.22 -251.0184 -248.34959 -246.75121 -218.40096 -215.19936 -211.73376 -207.20256 -204.26976 -201.60097 -198.93216 -195.73056 -192.52896 -158.5224 -155.85361 -154.5192 -134.76288 -132.09409 -129.42528 -128.09088 -108.00432 -105.33552 -102.66672 -101.33232 -86.525757 -83.856956 -81.188164 -78.519363 -75.850563 -74.516159 -51.84864 -49.17984 -46.51104 -43.842239 -42.507839 -13.39056 -10.72176 -8.0529604 -6.7185602 22.427999 25.0968 27.7656 29.1 58.246559 60.915359 62.24976 64.918556 94.065117 96.733917 98.068321 100.73712 124.60368 127.27248 128.60687 131.27568 133.94447 136.61328 153.8208 155.4192 158.088 159.42239 162.0912 164.75999"
         y="138"
         sodipodi:role="line"
         id="tspan196">YorkYCWZ33AB04.419.832.21038.3143.250.711.70.291.151.1391-0.54%</tspan><tspan
         style="font-variant:normal;font-weight:normal;font-stretch:normal;font-size:4.80000019px;font-family:Arial;-inkscape-font-specification:ArialMT;writing-mode:lr-tb;fill:#000000;fill-opacity:1;fill-rule:nonzero;stroke:none"
         x="-254.22 -251.0184 -248.34959 -246.75121 -218.40096 -215.19936 -211.73376 -207.20256 -204.26976 -201.60097 -198.93216 -195.73056 -192.52896 -158.5224 -155.85361 -154.5192 -134.76288 -132.09409 -129.42528 -128.09088 -108.00432 -105.33552 -102.66672 -101.33232 -86.525757 -83.856956 -81.188164 -78.519363 -75.850563 -74.516159 -51.84864 -49.17984 -46.51104 -43.842239 -42.507839 -13.39056 -10.72176 -8.0529604 -6.7185602 22.427999 25.0968 27.7656 29.1 58.246559 60.915359 62.24976 64.918556 94.065117 96.733917 98.068321 100.73712 124.60368 127.27248 128.60687 131.27568 133.94447 136.61328 153.8208 155.4192 158.088 159.42239 162.0912 164.75999"
         y="144"
         sodipodi:role="line"
         id="tspan198">YorkYCWZ33AB05.630.932.21038.3179.052.812.10.281.111.1056-0.16%</tspan><tspan
         style="font-variant:normal;font-weight:normal;font-stretch:normal;font-size:4.80000019px;font-family:Arial;-inkscape-font-specification:ArialMT;writing-mode:lr-tb;fill:#000000;fill-opacity:1;fill-rule:nonzero;stroke:none"
         x="-254.22 -251.0184 -248.34959 -246.75121 -218.40096 -215.19936 -211.73376 -207.20256 -204.26976 -201.60097 -198.93216 -195.73056 -192.52896 -158.5224 -155.85361 -154.5192 -134.76288 -132.09409 -129.42528 -128.09088 -108.00432 -105.33552 -102.66672 -101.33232 -86.525757 -83.856956 -81.188164 -78.519363 -75.850563 -74.516159 -51.84864 -49.17984 -46.51104 -43.842239 -42.507839 -13.39056 -10.72176 -8.0529604 -6.7185602 22.427999 25.0968 27.7656 29.1 58.246559 60.915359 62.24976 64.918556 94.065117 96.733917 98.068321 100.73712 124.60368 127.27248 128.60687 131.27568 133.94447 136.61328 155.4408 158.1096 159.444 162.11279 164.7816"
         y="150"
         sodipodi:role="line"
         id="tspan200">YorkYCWZ33AB06.744.432.21038.3214.854.912.50.271.071.07330.12%</tspan><tspan
         style="font-variant:normal;font-weight:normal;font-stretch:normal;font-size:4.80000019px;font-family:Arial;-inkscape-font-specification:ArialMT;writing-mode:lr-tb;fill:#000000;fill-opacity:1;fill-rule:nonzero;stroke:none"
         x="-254.22 -251.0184 -248.34959 -246.75121 -218.40096 -215.19936 -211.73376 -207.20256 -204.26976 -201.60097 -198.93216 -195.73056 -192.52896 -158.5224 -155.85361 -154.5192 -134.76288 -132.09409 -129.42528 -128.09088 -108.00432 -105.33552 -102.66672 -101.33232 -86.525757 -83.856956 -81.188164 -78.519363 -75.850563 -74.516159 -51.84864 -49.17984 -46.51104 -43.842239 -42.507839 -9.4305601 -6.7617602 22.427999 25.0968 27.7656 29.1 58.246559 60.915359 62.24976 64.918556 94.065117 96.733917 98.068321 100.73712 124.60368 127.27248 128.60687 131.27568 133.94447 136.61328 153.8208 155.4192 158.088 159.42239 162.0912 164.75999"
         y="156"
         sodipodi:role="line"
         id="tspan202">YorkYCWZ33AB07.252.232.21038.3232.75612.60.271.061.0575-0.56%</tspan><tspan
         style="font-variant:normal;font-weight:normal;font-stretch:normal;font-size:4.80000019px;font-family:Arial;-inkscape-font-specification:ArialMT;writing-mode:lr-tb;fill:#000000;fill-opacity:1;fill-rule:nonzero;stroke:none"
         x="-254.22 -251.0184 -248.34959 -246.75121 -218.40096 -215.19936 -211.73376 -207.20256 -204.26976 -201.60097 -198.93216 -195.73056 -192.52896 -158.5224 -155.85361 -154.5192 -134.76288 -132.09409 -129.42528 -128.09088 -108.00432 -105.33552 -102.66672 -101.33232 -86.525757 -83.856956 -81.188164 -78.519363 -75.850563 -74.516159 -51.84864 -49.17984 -46.51104 -43.842239 -42.507839 -9.4305601 -6.7617602 22.427999 25.0968 27.7656 29.1 58.246559 60.915359 62.24976 64.918556 94.065117 96.733917 98.068321 100.73712 124.60368 127.27248 128.60687 131.27568 133.94447 136.61328 153.8208 155.4192 158.088 159.42239 162.0912 164.75999"
         y="162"
         sodipodi:role="line"
         id="tspan204">YorkYCWZ33AB07.860.532.21038.3250.65712.80.271.051.0420-0.46%</tspan><tspan
         style="font-variant:normal;font-weight:normal;font-stretch:normal;font-size:4.80000019px;font-family:Arial;-inkscape-font-specification:ArialMT;writing-mode:lr-tb;fill:#000000;fill-opacity:1;fill-rule:nonzero;stroke:none"
         x="-254.22 -251.0184 -248.34959 -246.75121 -218.40096 -215.19936 -211.73376 -207.20256 -204.26976 -201.60097 -198.93216 -195.73056 -192.52896 -158.5224 -155.85361 -154.5192 -134.76288 -132.09409 -129.42528 -128.09088 -108.00432 -105.33552 -102.66672 -101.33232 -86.525757 -83.856956 -81.188164 -78.519363 -75.850563 -74.516159 -51.84864 -49.17984 -46.51104 -43.842239 -42.507839 -13.39056 -10.72176 -8.0529604 -6.7185602 22.427999 25.0968 27.7656 29.1 58.246559 60.915359 62.24976 64.918556 94.065117 96.733917 98.068321 100.73712 124.60368 127.27248 128.60687 131.27568 133.94447 136.61328 153.8208 155.4192 158.088 159.42239 162.0912 164.75999"
         y="168"
         sodipodi:role="line"
         id="tspan206">YorkYCWZ33AB08.979.032.21038.3286.459.213.20.261.021.0119-0.32%</tspan><tspan
         style="font-variant:normal;font-weight:normal;font-stretch:normal;font-size:4.80000019px;font-family:Arial;-inkscape-font-specification:ArialMT;writing-mode:lr-tb;fill:#000000;fill-opacity:1;fill-rule:nonzero;stroke:none"
         x="-254.22 -251.0184 -248.34959 -246.75121 -218.40096 -215.19936 -211.73376 -207.20256 -204.26976 -201.60097 -198.93216 -195.73056 -192.52896 -161.1624 -158.49361 -155.8248 -154.4904 -137.40384 -134.73505 -132.06624 -129.39745 -128.06303 -108.00576 -105.33696 -102.66816 -101.33376 -86.527199 -83.858398 -81.189598 -78.520798 -75.851997 -74.517601 -51.850079 -49.181278 -46.512482 -43.843681 -42.509281 -13.392 -10.7232 -8.0544004 -6.7199998 22.426559 25.09536 27.76416 29.09856 58.245121 60.913921 62.248322 64.917122 94.063683 96.732483 98.066879 100.73568 124.60224 127.27104 128.60544 131.27425 133.94304 136.61185 153.81937 155.41776 158.08656 159.42096 162.08977 164.75856"
         y="174"
         sodipodi:role="line"
         id="tspan208">YorkYCWZ33AB010.0100.032.21038.3322.261.513.60.250.990.9830-0.24%</tspan><tspan
         style="font-variant:normal;font-weight:normal;font-stretch:normal;font-size:4.80000019px;font-family:Arial;-inkscape-font-specification:ArialMT;writing-mode:lr-tb;fill:#000000;fill-opacity:1;fill-rule:nonzero;stroke:none"
         x="-254.22 -251.0184 -248.34959 -246.75121 -218.40096 -215.19936 -211.73376 -207.20256 -204.26976 -201.60097 -198.93216 -195.73056 -192.52896 -158.5224 -155.85361 -154.5192 -134.76288 -132.09409 -129.42528 -128.09088 -108.00432 -105.33552 -102.66672 -101.33232 -86.525757 -83.856956 -81.188164 -78.519363 -75.850563 -74.516159 -51.84864 -49.17984 -46.51104 -43.842239 -42.507839 -13.39056 -10.72176 -8.0529604 -6.7185602 22.427999 25.0968 27.7656 29.1 58.246559 60.915359 62.24976 64.918556 94.065117 96.733917 98.068321 100.73712 124.60368 127.27248 128.60687 131.27568 133.94447 136.61328 155.4408 158.1096 159.444 162.11279 164.7816"
         y="180"
         sodipodi:role="line"
         id="tspan210">YorkYCWZ33AB04.419.835.01225.0155.649.111.00.311.221.21850.02%</tspan><tspan
         style="font-variant:normal;font-weight:normal;font-stretch:normal;font-size:4.80000019px;font-family:Arial;-inkscape-font-specification:ArialMT;writing-mode:lr-tb;fill:#000000;fill-opacity:1;fill-rule:nonzero;stroke:none"
         x="-254.22 -251.0184 -248.34959 -246.75121 -218.40096 -215.19936 -211.73376 -207.20256 -204.26976 -201.60097 -198.93216 -195.73056 -192.52896 -158.5224 -155.85361 -154.5192 -134.76288 -132.09409 -129.42528 -128.09088 -108.00432 -105.33552 -102.66672 -101.33232 -86.525757 -83.856956 -81.188164 -78.519363 -75.850563 -74.516159 -51.84864 -49.17984 -46.51104 -43.842239 -42.507839 -13.39056 -10.72176 -8.0529604 -6.7185602 22.427999 25.0968 27.7656 29.1 58.246559 60.915359 62.24976 64.918556 94.065117 96.733917 98.068321 100.73712 124.60368 127.27248 128.60687 131.27568 133.94447 136.61328 153.8208 155.4192 158.088 159.42239 162.0912 164.75999"
         y="186"
         sodipodi:role="line"
         id="tspan212">YorkYCWZ33AB05.630.935.01225.0194.451.211.30.301.191.1836-0.19%</tspan><tspan
         style="font-variant:normal;font-weight:normal;font-stretch:normal;font-size:4.80000019px;font-family:Arial;-inkscape-font-specification:ArialMT;writing-mode:lr-tb;fill:#000000;fill-opacity:1;fill-rule:nonzero;stroke:none"
         x="-254.22 -251.0184 -248.34959 -246.75121 -218.40096 -215.19936 -211.73376 -207.20256 -204.26976 -201.60097 -198.93216 -195.73056 -192.52896 -158.5224 -155.85361 -154.5192 -134.76288 -132.09409 -129.42528 -128.09088 -108.00432 -105.33552 -102.66672 -101.33232 -86.525757 -83.856956 -81.188164 -78.519363 -75.850563 -74.516159 -51.84864 -49.17984 -46.51104 -43.842239 -42.507839 -13.39056 -10.72176 -8.0529604 -6.7185602 22.427999 25.0968 27.7656 29.1 58.246559 60.915359 62.24976 64.918556 94.065117 96.733917 98.068321 100.73712 124.60368 127.27248 128.60687 131.27568 133.94447 136.61328 153.8208 155.4192 158.088 159.42239 162.0912 164.75999"
         y="192"
         sodipodi:role="line"
         id="tspan214">YorkYCWZ33AB06.744.435.01225.0233.353.211.60.291.161.1499-0.45%</tspan><tspan
         style="font-variant:normal;font-weight:normal;font-stretch:normal;font-size:4.80000019px;font-family:Arial;-inkscape-font-specification:ArialMT;writing-mode:lr-tb;fill:#000000;fill-opacity:1;fill-rule:nonzero;stroke:none"
         x="-254.22 -251.0184 -248.34959 -246.75121 -218.40096 -215.19936 -211.73376 -207.20256 -204.26976 -201.60097 -198.93216 -195.73056 -192.52896 -158.5224 -155.85361 -154.5192 -134.76288 -132.09409 -129.42528 -128.09088 -108.00432 -105.33552 -102.66672 -101.33232 -86.525757 -83.856956 -81.188164 -78.519363 -75.850563 -74.516159 -51.84864 -49.17984 -46.51104 -43.842239 -42.507839 -13.39056 -10.72176 -8.0529604 -6.7185602 22.427999 25.0968 27.7656 29.1 58.246559 60.915359 62.24976 64.918556 94.065117 96.733917 98.068321 100.73712 124.60368 127.27248 128.60687 131.27568 133.94447 136.61328 153.8208 155.4192 158.088 159.42239 162.0912 164.75999"
         y="198"
         sodipodi:role="line"
         id="tspan216">YorkYCWZ33AB07.252.235.01225.0252.854.311.80.291.141.1335-0.18%</tspan><tspan
         style="font-variant:normal;font-weight:normal;font-stretch:normal;font-size:4.80000019px;font-family:Arial;-inkscape-font-specification:ArialMT;writing-mode:lr-tb;fill:#000000;fill-opacity:1;fill-rule:nonzero;stroke:none"
         x="-254.22 -251.0184 -248.34959 -246.75121 -218.40096 -215.19936 -211.73376 -207.20256 -204.26976 -201.60097 -198.93216 -195.73056 -192.52896 -158.5224 -155.85361 -154.5192 -134.76288 -132.09409 -129.42528 -128.09088 -108.00432 -105.33552 -102.66672 -101.33232 -86.525757 -83.856956 -81.188164 -78.519363 -75.850563 -74.516159 -51.84864 -49.17984 -46.51104 -43.842239 -42.507839 -13.39056 -10.72176 -8.0529604 -6.7185602 22.427999 25.0968 27.7656 29.1 58.246559 60.915359 62.24976 64.918556 94.065117 96.733917 98.068321 100.73712 124.60368 127.27248 128.60687 131.27568 133.94447 136.61328 155.4408 158.1096 159.444 162.11279 164.7816"
         y="204"
         sodipodi:role="line"
         id="tspan218">YorkYCWZ33AB07.860.535.01225.0272.255.312.00.281.121.11740.06%</tspan><tspan
         style="font-variant:normal;font-weight:normal;font-stretch:normal;font-size:4.80000019px;font-family:Arial;-inkscape-font-specification:ArialMT;writing-mode:lr-tb;fill:#000000;fill-opacity:1;fill-rule:nonzero;stroke:none"
         x="-254.22 -251.0184 -248.34959 -246.75121 -218.40096 -215.19936 -211.73376 -207.20256 -204.26976 -201.60097 -198.93216 -195.73056 -192.52896 -158.5224 -155.85361 -154.5192 -134.76288 -132.09409 -129.42528 -128.09088 -108.00432 -105.33552 -102.66672 -101.33232 -86.525757 -83.856956 -81.188164 -78.519363 -75.850563 -74.516159 -51.84864 -49.17984 -46.51104 -43.842239 -42.507839 -13.39056 -10.72176 -8.0529604 -6.7185602 22.427999 25.0968 27.7656 29.1 58.246559 60.915359 62.24976 64.918556 94.065117 96.733917 98.068321 100.73712 124.60368 127.27248 128.60687 131.27568 133.94447 136.61328 153.8208 155.4192 158.088 159.42239 162.0912 164.75999"
         y="210"
         sodipodi:role="line"
         id="tspan220">YorkYCWZ33AB08.979.035.01225.0311.157.512.30.281.091.0859-0.32%</tspan><tspan
         style="font-variant:normal;font-weight:normal;font-stretch:normal;font-size:4.80000019px;font-family:Arial;-inkscape-font-specification:ArialMT;writing-mode:lr-tb;fill:#000000;fill-opacity:1;fill-rule:nonzero;stroke:none"
         x="-254.22 -251.0184 -248.34959 -246.75121 -218.40096 -215.19936 -211.73376 -207.20256 -204.26976 -201.60097 -198.93216 -195.73056 -192.52896 -161.1624 -158.49361 -155.8248 -154.4904 -137.40384 -134.73505 -132.06624 -129.39745 -128.06303 -108.00576 -105.33696 -102.66816 -101.33376 -86.527199 -83.858398 -81.189598 -78.520798 -75.851997 -74.517601 -51.850079 -49.181278 -46.512482 -43.843681 -42.509281 -13.392 -10.7232 -8.0544004 -6.7199998 22.426559 25.09536 27.76416 29.09856 58.245121 60.913921 62.248322 64.917122 94.063683 96.732483 98.066879 100.73568 124.60224 127.27104 128.60544 131.27425 133.94304 136.61185 155.43936 158.10815 159.44257 162.11136 164.78017"
         y="216"
         sodipodi:role="line"
         id="tspan222">YorkYCWZ33AB010.0100.035.01225.0350.059.712.70.271.061.05560.04%</tspan><tspan
         style="font-variant:normal;font-weight:normal;font-stretch:normal;font-size:4.80000019px;font-family:Arial;-inkscape-font-specification:ArialMT;writing-mode:lr-tb;fill:#000000;fill-opacity:1;fill-rule:nonzero;stroke:none"
         x="-278.10001 -274.89841 -272.22961 -269.56079 -266.892 -264.22321 -261.55441 -260.4888 -258.08881 -256.75439 -253.5528 -252.2184 -250.62 -249.2856 -245.82001 -243.1512 -240.75121 -239.68559 -237.0168 -233.55119 -230.8824 -229.8168 -228.75121 -227.68559 -225.0168 -223.4184 -220.2168 -217.548 -215.9496 -214.6152 -213.28081 -209.8152 -207.14639 -205.548 -203.14799 -200.4792 -199.14481 -195.6792 -193.01041 -191.67599 -189.0072 -187.4088 -183.94321 -181.2744 -179.94 -177.27119 -176.2056 -173.5368 -170.868 -167.6664 -165.2664 -161.8008 -159.132 -158.06641 -155.6664 -154.332 -151.93201 -150.86639 -148.4664 -147.132 -142.6008 -139.93201 -138.5976 -135.9288 -134.3304 -130.86481 -128.196 -125.5272 -124.4616 -122.8632 -119.3976 -116.7288 -114.3288 -113.2632 -110.5944 -108.996 -105.7944 -104.46 -100.9944 -99.396004 -96.463203 383.82001 386.4888 387.82321 390.492 393.1608 394.49521 397.164 399.83279 402.50159"
         y="244.74001"
         sodipodi:role="line"
         id="tspan224">Appendix A - RecipChillerPerf Curve Data-CatalogVsCalc.xls/WaterCool-Recip-EIR-FT6/29/2006</tspan></text>
</g></svg>